M48
;DRILL file {PCBnew (20090216-final)} date 11/10/2009 21:19:05
;FORMAT={-.-/ absolute / inch / decimal}
R,T
VER,1
FMAT,2
INCH,TZ
TCST,OFF
ICI,OFF
ATC,ON
T1C0.032
T2C0.036
T3C0.040
T4C0.120
%
M47
G05
M72
T1
X7.094Y3.772
X7.094Y4.072
X7.394Y3.772
X7.394Y4.072
X7.559Y3.295
X7.618Y2.991
X7.618Y3.091
X7.618Y3.191
X7.638Y3.905
X7.638Y4.005
X7.638Y4.105
X7.638Y4.205
X7.657Y3.295
X7.922Y3.799
X8.022Y3.799
X8.118Y2.893
X8.484Y3.483
X8.484Y3.683
X8.492Y2.795
X8.492Y2.913
X8.492Y3.031
X8.492Y3.150
X8.492Y3.268
X8.492Y3.386
X8.917Y3.301
X8.937Y4.226
T2
X7.237Y3.027
X7.237Y3.567
X7.342Y3.167
X7.342Y3.267
X7.342Y3.347
X7.342Y3.447
X7.559Y3.595
X7.657Y3.595
X7.724Y3.898
X7.724Y3.996
X7.724Y4.095
X7.724Y4.193
X7.744Y2.894
X7.744Y2.992
X7.744Y3.091
X7.744Y3.189
X7.744Y3.287
X7.744Y3.386
X7.744Y3.484
X8.024Y3.898
X8.024Y3.996
X8.024Y4.095
X8.024Y4.193
X8.044Y2.894
X8.044Y2.992
X8.044Y3.091
X8.044Y3.189
X8.044Y3.287
X8.044Y3.386
X8.044Y3.484
X8.118Y2.993
X8.118Y3.093
X8.118Y3.193
X8.118Y3.293
X8.118Y3.393
X8.118Y3.493
X8.118Y3.593
X8.118Y3.693
X8.118Y3.793
X8.118Y3.893
X8.118Y3.993
X8.118Y4.093
X8.118Y4.193
X8.418Y2.893
X8.418Y2.993
X8.418Y3.093
X8.418Y3.193
X8.418Y3.293
X8.418Y3.393
X8.418Y3.493
X8.418Y3.593
X8.418Y3.693
X8.418Y3.793
X8.418Y3.893
X8.418Y3.993
X8.418Y4.093
X8.418Y4.193
X8.511Y3.799
X8.511Y3.917
X8.511Y4.035
X8.511Y4.154
X8.511Y4.272
X8.792Y2.795
X8.792Y2.913
X8.792Y3.031
X8.792Y3.150
X8.792Y3.268
X8.792Y3.386
X8.811Y3.799
X8.811Y3.917
X8.811Y4.035
X8.811Y4.154
X8.811Y4.272
X8.917Y2.801
X8.917Y2.901
X8.917Y3.001
X8.917Y3.101
X8.917Y3.201
X8.937Y3.826
X8.937Y3.926
X8.937Y4.026
X8.937Y4.126
T3
X8.699Y3.552
X8.699Y3.652
X8.799Y3.552
X8.799Y3.652
X8.899Y3.552
X8.899Y3.652
T4
X7.087Y2.697
X7.146Y4.419
X8.366Y2.638
X8.868Y4.439
T0
M30
