M48
;DRILL file {PCBnew (20090216-final)} date 16/01/2010 09:09:34
;FORMAT={-.-/ absolute / inch / decimal}
R,T
VER,1
FMAT,2
INCH,TZ
TCST,OFF
ICI,OFF
ATC,ON
T1C0.025
T2C0.032
T3C0.036
T4C0.040
T5C0.091
T6C0.120
%
M47
G05
M72
T1
X7.670Y4.193
X7.970Y2.820
X8.050Y3.300
X8.050Y3.400
X8.580Y3.260
X8.715Y3.395
X8.800Y2.980
X8.950Y3.510
X8.950Y3.610
X8.970Y3.710
X9.000Y3.440
T2
X7.260Y3.470
X7.260Y3.570
X7.260Y3.670
X7.260Y3.770
X7.260Y3.870
X7.260Y3.970
X7.262Y3.072
X7.367Y3.117
X7.500Y3.300
X7.500Y3.400
X7.530Y3.610
X7.600Y3.300
X7.600Y3.400
X7.620Y3.076
X7.620Y3.155
X7.620Y3.610
X7.680Y3.300
X7.720Y3.076
X7.720Y3.155
X7.730Y4.210
X7.782Y3.607
X7.782Y3.707
X7.782Y3.807
X7.782Y3.907
X7.810Y4.020
X7.820Y4.110
X7.930Y3.500
X7.970Y3.740
X7.970Y3.940
X7.980Y3.300
X8.030Y3.500
X8.030Y4.210
X8.118Y2.893
X8.500Y3.290
X8.505Y3.550
X8.505Y3.650
X8.510Y2.850
X8.610Y2.850
X8.710Y2.850
X8.800Y3.290
X8.810Y2.850
X8.890Y3.800
X8.890Y3.900
X8.890Y4.000
X8.890Y4.100
X8.890Y4.200
X8.900Y3.090
X8.900Y3.190
X8.900Y3.290
X8.900Y3.390
T3
X7.262Y3.372
X7.367Y3.418
X7.510Y4.020
X7.520Y4.110
X7.530Y3.910
X7.550Y3.500
X7.620Y3.910
X7.680Y3.400
X7.850Y3.500
X7.980Y3.400
X8.030Y2.900
X8.030Y3.200
X8.118Y2.993
X8.118Y3.093
X8.118Y3.193
X8.118Y3.293
X8.118Y3.393
X8.118Y3.493
X8.118Y3.593
X8.118Y3.693
X8.118Y3.793
X8.118Y3.893
X8.118Y3.993
X8.118Y4.093
X8.118Y4.193
X8.418Y2.893
X8.418Y2.993
X8.418Y3.093
X8.418Y3.193
X8.418Y3.293
X8.418Y3.393
X8.418Y3.493
X8.418Y3.593
X8.418Y3.693
X8.418Y3.793
X8.418Y3.893
X8.418Y3.993
X8.418Y4.093
X8.418Y4.193
X8.500Y3.090
X8.500Y3.190
X8.500Y3.390
X8.500Y3.800
X8.500Y3.900
X8.500Y4.000
X8.500Y4.100
X8.500Y4.200
X8.800Y3.090
X8.800Y3.190
X8.800Y3.390
X8.800Y3.800
X8.800Y3.900
X8.800Y4.000
X8.800Y4.100
X8.800Y4.200
T4
X8.650Y3.550
X8.650Y3.650
X8.750Y3.550
X8.750Y3.650
X8.850Y3.550
X8.850Y3.650
T5
X7.434Y2.970
X7.906Y2.970
T6
X7.300Y2.880
X7.320Y4.120
X8.950Y2.890
T0
M30
