G04 (created by PCBnew (20090216-final)) date 06/11/2009 16:27:38*
G01*
G70*
G90*
%MOIN*%
G04 Gerber Fmt 3.4, Leading zero omitted, Abs format*
%FSLAX34Y34*%
G04 APERTURE LIST*
%ADD10C,0.015000*%
%ADD11C,0.055000*%
%ADD12R,0.055000X0.055000*%
%ADD13C,0.060000*%
%ADD14R,0.060000X0.060000*%
%ADD15C,0.106300*%
%ADD16C,0.045000*%
%ADD17C,0.160000*%
%ADD18C,0.017000*%
%ADD19C,0.010000*%
G04 APERTURE END LIST*
G54D10*
X68500Y-27750D02*
X69750Y-27750D01*
X68500Y-42750D02*
X68500Y-27750D01*
X89750Y-42750D02*
X68500Y-42750D01*
X91000Y-42750D02*
X89750Y-42750D01*
X91000Y-27750D02*
X91000Y-42750D01*
X89750Y-27750D02*
X91000Y-27750D01*
X89250Y-27750D02*
X69750Y-27750D01*
X89500Y-27750D02*
X89250Y-27750D01*
X89750Y-27750D02*
X89500Y-27750D01*
G54D11*
X77250Y-33000D03*
X80250Y-33000D03*
G54D12*
X80250Y-29250D03*
G54D13*
X77250Y-29250D03*
X79500Y-40000D03*
X79500Y-37000D03*
X76500Y-40000D03*
X76500Y-37000D03*
X81177Y-29933D03*
X81177Y-30933D03*
X81177Y-31933D03*
X81177Y-32933D03*
X81177Y-33933D03*
X81177Y-34933D03*
X81177Y-35933D03*
X81177Y-36933D03*
X81177Y-37933D03*
X81177Y-38933D03*
X81177Y-39933D03*
X81177Y-40933D03*
X81177Y-41933D03*
G54D12*
X81177Y-28933D03*
G54D13*
X84177Y-41933D03*
X84177Y-40933D03*
X84177Y-39933D03*
X84177Y-38933D03*
X84177Y-37933D03*
X84177Y-36933D03*
X84177Y-35933D03*
X84177Y-34933D03*
X84177Y-33933D03*
X84177Y-32933D03*
X84177Y-31933D03*
X84177Y-30933D03*
X84177Y-29933D03*
X84177Y-28933D03*
G54D12*
X80250Y-31250D03*
G54D13*
X77250Y-31250D03*
G54D12*
X72750Y-33250D03*
G54D13*
X72750Y-30250D03*
G54D12*
X70750Y-33250D03*
G54D13*
X70750Y-30250D03*
G54D12*
X80250Y-30250D03*
G54D13*
X77250Y-30250D03*
G54D12*
X71750Y-33250D03*
G54D13*
X71750Y-30250D03*
G54D12*
X76250Y-35250D03*
G54D13*
X73250Y-35250D03*
G54D12*
X76250Y-34250D03*
G54D13*
X73250Y-34250D03*
X88450Y-29600D03*
X85450Y-29600D03*
X88000Y-33750D03*
X85000Y-33750D03*
X88000Y-32750D03*
X85000Y-32750D03*
X88000Y-31750D03*
X85000Y-31750D03*
X88000Y-38000D03*
X85000Y-38000D03*
X88000Y-42000D03*
X85000Y-42000D03*
X88000Y-41000D03*
X85000Y-41000D03*
X88000Y-40000D03*
X85000Y-40000D03*
X88000Y-39000D03*
X85000Y-39000D03*
X77250Y-34000D03*
X80250Y-34000D03*
X88000Y-30750D03*
X85000Y-30750D03*
G54D11*
X85050Y-35000D03*
X85050Y-37000D03*
G54D13*
X77250Y-35000D03*
X80250Y-35000D03*
G54D12*
X88750Y-33750D03*
G54D11*
X88750Y-32750D03*
X88750Y-31750D03*
X88750Y-30750D03*
G54D12*
X89000Y-42000D03*
G54D13*
X89000Y-41000D03*
X89000Y-40000D03*
X89000Y-39000D03*
X89000Y-38000D03*
G54D12*
X76250Y-29000D03*
G54D13*
X75250Y-29000D03*
X74250Y-29000D03*
X73250Y-29000D03*
X72250Y-29000D03*
X71250Y-29000D03*
G54D14*
X86500Y-36500D03*
G54D13*
X86500Y-35500D03*
X87500Y-36500D03*
X87500Y-35500D03*
X88500Y-36500D03*
X88500Y-35500D03*
X74350Y-39000D03*
X74350Y-38000D03*
X73563Y-38000D03*
X73563Y-39000D03*
G54D15*
X72500Y-40862D03*
X72500Y-36138D03*
G54D16*
X75750Y-42000D03*
G54D11*
X80250Y-42000D03*
X77250Y-42000D03*
G54D14*
X74500Y-31000D03*
G54D13*
X75500Y-31000D03*
X74500Y-32000D03*
X75500Y-32000D03*
X74500Y-33000D03*
X75500Y-33000D03*
G54D16*
X76500Y-42000D03*
G54D17*
X89750Y-29000D03*
X69750Y-29000D03*
X69750Y-41750D03*
G54D18*
X75500Y-33000D02*
X77250Y-33000D01*
X76250Y-34250D02*
X76250Y-33750D01*
X76250Y-33750D02*
X75500Y-33000D01*
X81110Y-33000D02*
X81177Y-32933D01*
X80250Y-33000D02*
X81110Y-33000D01*
X80494Y-29250D02*
X81177Y-29933D01*
X80250Y-29250D02*
X80494Y-29250D01*
X77250Y-29250D02*
X76500Y-29250D01*
X76500Y-29250D02*
X76250Y-29000D01*
X79567Y-36933D02*
X79500Y-37000D01*
X81177Y-36933D02*
X79567Y-36933D01*
X85450Y-29600D02*
X85550Y-29600D01*
X86500Y-30550D02*
X86500Y-35500D01*
X85550Y-29600D02*
X86500Y-30550D01*
X76500Y-37000D02*
X78250Y-37000D01*
X78250Y-37000D02*
X80250Y-35000D01*
X74350Y-39000D02*
X74500Y-39000D01*
X74500Y-39000D02*
X76500Y-37000D01*
X84177Y-35933D02*
X86067Y-35933D01*
X86067Y-35933D02*
X86500Y-35500D01*
X85050Y-37000D02*
X85050Y-36950D01*
X85050Y-36950D02*
X86500Y-35500D01*
X84177Y-35933D02*
X84177Y-36127D01*
X84177Y-36127D02*
X85050Y-37000D01*
X85050Y-37000D02*
X84244Y-37000D01*
X84244Y-37000D02*
X84177Y-36933D01*
X84177Y-35933D02*
X84177Y-36933D01*
X81177Y-34933D02*
X83177Y-34933D01*
X83177Y-34933D02*
X84177Y-35933D01*
X81110Y-35000D02*
X81177Y-34933D01*
X80250Y-35000D02*
X81110Y-35000D01*
X80494Y-30250D02*
X81177Y-30933D01*
X80250Y-30250D02*
X80494Y-30250D01*
X80494Y-31250D02*
X81177Y-31933D01*
X80250Y-31250D02*
X80494Y-31250D01*
X81110Y-34000D02*
X81177Y-33933D01*
X80250Y-34000D02*
X81110Y-34000D01*
X81500Y-42500D02*
X82000Y-42000D01*
X76250Y-42500D02*
X81500Y-42500D01*
X75750Y-42000D02*
X76250Y-42500D01*
X82000Y-38756D02*
X81177Y-37933D01*
X82000Y-42000D02*
X82000Y-38756D01*
X73350Y-39650D02*
X71350Y-37650D01*
X75250Y-39650D02*
X73350Y-39650D01*
X75967Y-38933D02*
X75250Y-39650D01*
X81177Y-38933D02*
X75967Y-38933D01*
X71350Y-34650D02*
X72750Y-33250D01*
X71350Y-37650D02*
X71350Y-34650D01*
X71050Y-37800D02*
X71050Y-33950D01*
X74000Y-40750D02*
X71050Y-37800D01*
X79800Y-40750D02*
X74000Y-40750D01*
X80617Y-39933D02*
X79800Y-40750D01*
X81177Y-39933D02*
X80617Y-39933D01*
X71050Y-33950D02*
X71750Y-33250D01*
X79900Y-41050D02*
X73900Y-41050D01*
X80017Y-40933D02*
X79900Y-41050D01*
X81177Y-40933D02*
X80017Y-40933D01*
X70750Y-37900D02*
X70750Y-33250D01*
X73900Y-41050D02*
X70750Y-37900D01*
X81110Y-42000D02*
X81177Y-41933D01*
X80250Y-42000D02*
X81110Y-42000D01*
X88450Y-29600D02*
X87950Y-29600D01*
X89000Y-36000D02*
X88500Y-36500D01*
X89000Y-35300D02*
X89000Y-36000D01*
X88250Y-34550D02*
X89000Y-35300D01*
X88100Y-34550D02*
X88250Y-34550D01*
X87450Y-33900D02*
X88100Y-34550D01*
X87450Y-30100D02*
X87450Y-33900D01*
X87950Y-29600D02*
X87450Y-30100D01*
X83125Y-30425D02*
X84375Y-30425D01*
X81633Y-28933D02*
X83125Y-30425D01*
X81177Y-28933D02*
X81633Y-28933D01*
X87900Y-29050D02*
X88450Y-29600D01*
X85100Y-29050D02*
X87900Y-29050D01*
X84750Y-29400D02*
X85100Y-29050D01*
X84750Y-30050D02*
X84750Y-29400D01*
X84375Y-30425D02*
X84750Y-30050D01*
X84244Y-42000D02*
X84177Y-41933D01*
X85000Y-42000D02*
X84244Y-42000D01*
X84244Y-41000D02*
X84177Y-40933D01*
X85000Y-41000D02*
X84244Y-41000D01*
X87500Y-35500D02*
X87500Y-35775D01*
X88000Y-37000D02*
X85000Y-40000D01*
X88000Y-36275D02*
X88000Y-37000D01*
X87500Y-35775D02*
X88000Y-36275D01*
X85000Y-40000D02*
X84244Y-40000D01*
X84244Y-40000D02*
X84177Y-39933D01*
X86500Y-36500D02*
X86250Y-36500D01*
X83650Y-38406D02*
X84177Y-38933D01*
X83650Y-37700D02*
X83650Y-38406D01*
X83925Y-37425D02*
X83650Y-37700D01*
X84325Y-37425D02*
X83925Y-37425D01*
X84400Y-37500D02*
X84325Y-37425D01*
X85250Y-37500D02*
X84400Y-37500D01*
X86250Y-36500D02*
X85250Y-37500D01*
X85000Y-39000D02*
X84244Y-39000D01*
X84244Y-39000D02*
X84177Y-38933D01*
X87500Y-36500D02*
X87425Y-36500D01*
X85925Y-38000D02*
X85000Y-38000D01*
X87425Y-36500D02*
X85925Y-38000D01*
X85000Y-38000D02*
X84244Y-38000D01*
X84244Y-38000D02*
X84177Y-37933D01*
X84360Y-33750D02*
X84177Y-33933D01*
X85000Y-33750D02*
X84360Y-33750D01*
X84360Y-32750D02*
X84177Y-32933D01*
X85000Y-32750D02*
X84360Y-32750D01*
X85000Y-31750D02*
X84360Y-31750D01*
X84360Y-31750D02*
X84177Y-31933D01*
X84360Y-30750D02*
X84177Y-30933D01*
X85000Y-30750D02*
X84360Y-30750D01*
X75500Y-31000D02*
X76750Y-32250D01*
X83083Y-29933D02*
X84177Y-29933D01*
X81600Y-28450D02*
X83083Y-29933D01*
X80050Y-28450D02*
X81600Y-28450D01*
X79500Y-29000D02*
X80050Y-28450D01*
X79500Y-31000D02*
X79500Y-29000D01*
X78250Y-32250D02*
X79500Y-31000D01*
X76750Y-32250D02*
X78250Y-32250D01*
X74500Y-31000D02*
X74750Y-31000D01*
X83394Y-28150D02*
X84177Y-28933D01*
X78850Y-28150D02*
X83394Y-28150D01*
X77850Y-29150D02*
X78850Y-28150D01*
X77850Y-31400D02*
X77850Y-29150D01*
X77400Y-31850D02*
X77850Y-31400D01*
X77100Y-31850D02*
X77400Y-31850D01*
X75700Y-30450D02*
X77100Y-31850D01*
X75300Y-30450D02*
X75700Y-30450D01*
X74750Y-31000D02*
X75300Y-30450D01*
X77250Y-31250D02*
X77250Y-30950D01*
X75050Y-29800D02*
X74250Y-29000D01*
X76100Y-29800D02*
X75050Y-29800D01*
X77250Y-30950D02*
X76100Y-29800D01*
X72750Y-30250D02*
X72750Y-29500D01*
X72750Y-29500D02*
X73250Y-29000D01*
X70750Y-30250D02*
X70750Y-29500D01*
X70750Y-29500D02*
X71250Y-29000D01*
X77000Y-30250D02*
X76250Y-29500D01*
X77250Y-30250D02*
X77000Y-30250D01*
X75750Y-29500D02*
X75250Y-29000D01*
X76250Y-29500D02*
X75750Y-29500D01*
X71750Y-29500D02*
X72250Y-29000D01*
X71750Y-30250D02*
X71750Y-29500D01*
X74500Y-33000D02*
X74500Y-33500D01*
X74500Y-33500D02*
X76250Y-35250D01*
X76250Y-35250D02*
X77000Y-35250D01*
X77000Y-35250D02*
X77250Y-35000D01*
X77250Y-34000D02*
X77250Y-35000D01*
X88000Y-33750D02*
X88750Y-33750D01*
X88000Y-32750D02*
X88750Y-32750D01*
X88000Y-31750D02*
X88750Y-31750D01*
X88000Y-38000D02*
X89000Y-38000D01*
X88000Y-42000D02*
X89000Y-42000D01*
X89000Y-41000D02*
X88000Y-41000D01*
X88000Y-40000D02*
X89000Y-40000D01*
X89000Y-39000D02*
X88000Y-39000D01*
X88000Y-30750D02*
X88750Y-30750D01*
X74350Y-38000D02*
X74350Y-33850D01*
X74250Y-32250D02*
X74500Y-32000D01*
X74250Y-32500D02*
X74250Y-32250D01*
X74000Y-32750D02*
X74250Y-32500D01*
X74000Y-33500D02*
X74000Y-32750D01*
X74350Y-33850D02*
X74000Y-33500D01*
X73563Y-38000D02*
X73563Y-36937D01*
X75000Y-31500D02*
X75500Y-32000D01*
X74250Y-31500D02*
X75000Y-31500D01*
X73500Y-32250D02*
X74250Y-31500D01*
X73500Y-33500D02*
X73500Y-32250D01*
X74000Y-34000D02*
X73500Y-33500D01*
X74000Y-36500D02*
X74000Y-34000D01*
X73563Y-36937D02*
X74000Y-36500D01*
X77250Y-42000D02*
X76500Y-42000D01*
M02*
