G04 (created by PCBnew (20090216-final)) date 11/10/2009 21:18:54*
G01*
G70*
G90*
%MOIN*%
G04 Gerber Fmt 3.4, Leading zero omitted, Abs format*
%FSLAX34Y34*%
G04 APERTURE LIST*
%ADD10C,0.015000*%
%ADD11C,0.060000*%
%ADD12R,0.055000X0.055000*%
%ADD13C,0.055000*%
%ADD14R,0.060000X0.060000*%
%ADD15C,0.160000*%
%ADD16C,0.017000*%
G04 APERTURE END LIST*
G54D10*
X68307Y-46063D02*
X69685Y-46063D01*
X68307Y-24606D02*
X68307Y-46063D01*
X69685Y-24606D02*
X68307Y-24606D01*
X69685Y-24606D02*
X69882Y-24606D01*
X70276Y-46063D02*
X69685Y-46063D01*
X90551Y-46063D02*
X70276Y-46063D01*
X90551Y-24606D02*
X90551Y-46063D01*
X69882Y-24606D02*
X90551Y-24606D01*
G54D11*
X81177Y-29933D03*
X81177Y-30933D03*
X81177Y-31933D03*
X81177Y-32933D03*
X81177Y-33933D03*
X81177Y-34933D03*
X81177Y-35933D03*
X81177Y-36933D03*
X81177Y-37933D03*
X81177Y-38933D03*
X81177Y-39933D03*
X81177Y-40933D03*
X81177Y-41933D03*
G54D12*
X81177Y-28933D03*
G54D11*
X84177Y-41933D03*
X84177Y-40933D03*
X84177Y-39933D03*
X84177Y-38933D03*
X84177Y-37933D03*
X84177Y-36933D03*
X84177Y-35933D03*
X84177Y-34933D03*
X84177Y-33933D03*
X84177Y-32933D03*
X84177Y-31933D03*
X84177Y-30933D03*
X84177Y-29933D03*
X84177Y-28933D03*
G54D12*
X84917Y-32677D03*
G54D11*
X87917Y-32677D03*
G54D12*
X84917Y-30315D03*
G54D11*
X87917Y-30315D03*
G54D12*
X84917Y-27953D03*
G54D11*
X87917Y-27953D03*
G54D12*
X84917Y-33858D03*
G54D11*
X87917Y-33858D03*
G54D12*
X84917Y-31496D03*
G54D11*
X87917Y-31496D03*
G54D12*
X84917Y-29134D03*
G54D11*
X87917Y-29134D03*
G54D12*
X75591Y-32949D03*
G54D11*
X75591Y-35949D03*
G54D12*
X76575Y-32949D03*
G54D11*
X76575Y-35949D03*
X80437Y-28937D03*
X77437Y-28937D03*
X77240Y-38976D03*
X80240Y-38976D03*
X77240Y-39961D03*
X80240Y-39961D03*
X77240Y-40945D03*
X80240Y-40945D03*
X88114Y-37992D03*
X85114Y-37992D03*
X88114Y-42717D03*
X85114Y-42717D03*
X88114Y-41535D03*
X85114Y-41535D03*
X88114Y-40354D03*
X85114Y-40354D03*
X88114Y-39173D03*
X85114Y-39173D03*
X77437Y-32874D03*
X80437Y-32874D03*
X77437Y-33858D03*
X80437Y-33858D03*
X70941Y-40717D03*
X73941Y-40717D03*
X70941Y-37717D03*
X73941Y-37717D03*
X73425Y-34471D03*
X73425Y-33471D03*
X73425Y-32671D03*
X73425Y-31671D03*
X72375Y-35671D03*
X72375Y-30271D03*
X77437Y-30906D03*
X80437Y-30906D03*
X77437Y-29921D03*
X80437Y-29921D03*
X77437Y-31890D03*
X80437Y-31890D03*
X77240Y-41929D03*
X80240Y-41929D03*
G54D13*
X80224Y-37992D03*
X79224Y-37992D03*
X84843Y-34827D03*
X84843Y-36827D03*
G54D11*
X77437Y-34843D03*
X80437Y-34843D03*
G54D12*
X76181Y-29906D03*
G54D13*
X76181Y-30906D03*
X76181Y-31906D03*
G54D12*
X76378Y-39051D03*
G54D13*
X76378Y-40051D03*
X76378Y-41051D03*
X76378Y-42051D03*
G54D12*
X89370Y-42264D03*
G54D11*
X89370Y-41264D03*
X89370Y-40264D03*
X89370Y-39264D03*
X89370Y-38264D03*
G54D12*
X89173Y-33012D03*
G54D11*
X89173Y-32012D03*
X89173Y-31012D03*
X89173Y-30012D03*
X89173Y-29012D03*
X89173Y-28012D03*
G54D14*
X86992Y-36524D03*
G54D11*
X86992Y-35524D03*
X87992Y-36524D03*
X87992Y-35524D03*
X88992Y-36524D03*
X88992Y-35524D03*
G54D15*
X70866Y-26969D03*
X88681Y-44390D03*
X83661Y-26378D03*
X71457Y-44193D03*
G54D16*
X81177Y-29933D02*
X81144Y-29988D01*
X80360Y-29988D02*
X80437Y-29921D01*
X81144Y-29988D02*
X80360Y-29988D01*
X80437Y-30906D02*
X80360Y-30968D01*
X80360Y-30968D02*
X81144Y-30968D01*
X81144Y-30968D02*
X81177Y-30933D01*
X80360Y-31948D02*
X80437Y-31890D01*
X81144Y-31948D02*
X80360Y-31948D01*
X81177Y-31933D02*
X81144Y-31948D01*
X81177Y-32933D02*
X81144Y-32928D01*
X81144Y-32928D02*
X80360Y-32928D01*
X80360Y-32928D02*
X80437Y-32874D01*
X81144Y-33908D02*
X80360Y-33908D01*
X80360Y-33908D02*
X80437Y-33858D01*
X81177Y-33933D02*
X81144Y-33908D01*
X84843Y-36827D02*
X84283Y-36827D01*
X84283Y-36827D02*
X84177Y-36933D01*
X84177Y-36933D02*
X84177Y-35933D01*
X86992Y-35524D02*
X84586Y-35524D01*
X84586Y-35524D02*
X84177Y-35933D01*
X69724Y-41456D02*
X69724Y-40040D01*
X70158Y-41890D02*
X69724Y-41456D01*
X69724Y-40040D02*
X72047Y-37717D01*
X72047Y-37717D02*
X73941Y-37717D01*
X84177Y-36933D02*
X82162Y-36933D01*
X75079Y-38976D02*
X75079Y-41456D01*
X76614Y-37441D02*
X75079Y-38976D01*
X81654Y-37441D02*
X76614Y-37441D01*
X82162Y-36933D02*
X81654Y-37441D01*
X77437Y-28937D02*
X78504Y-28937D01*
X78976Y-33382D02*
X80437Y-34843D01*
X78976Y-29409D02*
X78976Y-33382D01*
X78504Y-28937D02*
X78976Y-29409D01*
X75079Y-41456D02*
X74645Y-41890D01*
X74645Y-41890D02*
X70158Y-41890D01*
X72598Y-34409D02*
X72598Y-32498D01*
X73941Y-35752D02*
X72598Y-34409D01*
X73425Y-31671D02*
X73500Y-31752D01*
X73500Y-31752D02*
X75656Y-29596D01*
X75656Y-29596D02*
X75656Y-29400D01*
X75656Y-29400D02*
X76048Y-29008D01*
X76048Y-29008D02*
X77420Y-29008D01*
X77420Y-29008D02*
X77437Y-28937D01*
X73425Y-31671D02*
X73500Y-31752D01*
X81144Y-34888D02*
X81177Y-34933D01*
X84177Y-36933D02*
X84084Y-36848D01*
X81177Y-34933D02*
X81144Y-34888D01*
X81144Y-34888D02*
X80360Y-34888D01*
X80360Y-34888D02*
X80437Y-34843D01*
X84084Y-36848D02*
X84177Y-36933D01*
X72598Y-32498D02*
X73425Y-31671D01*
X73941Y-37717D02*
X73941Y-35752D01*
X81177Y-35933D02*
X81429Y-35933D01*
X81429Y-35933D02*
X82429Y-34933D01*
X82429Y-34933D02*
X84177Y-34933D01*
X73425Y-34471D02*
X73500Y-34496D01*
X73500Y-34496D02*
X73696Y-34692D01*
X73696Y-34692D02*
X73696Y-34888D01*
X73696Y-34888D02*
X74480Y-35672D01*
X74480Y-35672D02*
X74480Y-38024D01*
X74480Y-38024D02*
X71736Y-40768D01*
X71736Y-40768D02*
X70952Y-40768D01*
X70952Y-40768D02*
X70941Y-40717D01*
X75591Y-35949D02*
X75656Y-35868D01*
X75656Y-35868D02*
X74284Y-34496D01*
X74284Y-34496D02*
X73500Y-34496D01*
X73500Y-34496D02*
X73425Y-34471D01*
X84177Y-34933D02*
X84084Y-34888D01*
X81144Y-35868D02*
X81177Y-35933D01*
X84843Y-34827D02*
X84868Y-34888D01*
X84868Y-34888D02*
X88200Y-34888D01*
X88200Y-34888D02*
X88788Y-35476D01*
X88788Y-35476D02*
X88984Y-35476D01*
X88984Y-35476D02*
X88992Y-35524D01*
X76575Y-35949D02*
X76636Y-35868D01*
X76636Y-35868D02*
X79528Y-35868D01*
X79528Y-35868D02*
X81144Y-35868D01*
X81144Y-35868D02*
X81177Y-35933D01*
X75591Y-35949D02*
X75656Y-35868D01*
X75656Y-35868D02*
X76636Y-35868D01*
X76636Y-35868D02*
X76575Y-35949D01*
X84843Y-34827D02*
X84868Y-34888D01*
X84868Y-34888D02*
X84084Y-34888D01*
X84084Y-34888D02*
X84177Y-34933D01*
X76453Y-36933D02*
X81177Y-36933D01*
X73941Y-39445D02*
X76453Y-36933D01*
X73941Y-40717D02*
X73941Y-39445D01*
X80164Y-38024D02*
X81144Y-38024D01*
X81144Y-38024D02*
X81177Y-37933D01*
X80224Y-37992D02*
X80164Y-38024D01*
X81144Y-39004D02*
X80164Y-39004D01*
X80164Y-39004D02*
X80240Y-38976D01*
X81177Y-38933D02*
X81144Y-39004D01*
X80164Y-39984D02*
X81144Y-39984D01*
X81144Y-39984D02*
X81177Y-39933D01*
X80240Y-39961D02*
X80164Y-39984D01*
X80164Y-40964D02*
X81144Y-40964D01*
X81144Y-40964D02*
X81177Y-40933D01*
X80240Y-40945D02*
X80164Y-40964D01*
X81144Y-41944D02*
X81177Y-41933D01*
X80240Y-41929D02*
X80164Y-41944D01*
X80164Y-41944D02*
X81144Y-41944D01*
X88992Y-36524D02*
X89263Y-36524D01*
X82878Y-28933D02*
X81177Y-28933D01*
X84842Y-26969D02*
X82878Y-28933D01*
X89489Y-26969D02*
X84842Y-26969D01*
X90079Y-27559D02*
X89489Y-26969D01*
X90079Y-35708D02*
X90079Y-27559D01*
X89263Y-36524D02*
X90079Y-35708D01*
X80437Y-28937D02*
X80360Y-29008D01*
X80360Y-29008D02*
X81144Y-29008D01*
X81144Y-29008D02*
X81177Y-28933D01*
X85114Y-42717D02*
X85064Y-42728D01*
X85064Y-42728D02*
X84280Y-41944D01*
X84280Y-41944D02*
X84084Y-41944D01*
X84084Y-41944D02*
X84177Y-41933D01*
X84177Y-40933D02*
X84084Y-40964D01*
X84084Y-40964D02*
X84672Y-41552D01*
X84672Y-41552D02*
X85064Y-41552D01*
X85064Y-41552D02*
X85114Y-41535D01*
X87992Y-35524D02*
X88004Y-35524D01*
X85114Y-40279D02*
X85114Y-40354D01*
X88504Y-36889D02*
X85114Y-40279D01*
X88504Y-36024D02*
X88504Y-36889D01*
X88004Y-35524D02*
X88504Y-36024D01*
X85114Y-40354D02*
X85064Y-40376D01*
X85114Y-40354D02*
X85064Y-40376D01*
X85064Y-40376D02*
X84672Y-39984D01*
X84672Y-39984D02*
X84084Y-39984D01*
X84084Y-39984D02*
X84177Y-39933D01*
X85114Y-39173D02*
X85064Y-39200D01*
X85064Y-39200D02*
X85114Y-39173D01*
X86992Y-36524D02*
X86992Y-37295D01*
X84177Y-38933D02*
X84874Y-38933D01*
X84874Y-38933D02*
X85114Y-39173D01*
X86992Y-37295D02*
X85114Y-39173D01*
X87992Y-36524D02*
X87992Y-36457D01*
X85114Y-37248D02*
X85114Y-37992D01*
X86338Y-36024D02*
X85114Y-37248D01*
X87559Y-36024D02*
X86338Y-36024D01*
X87992Y-36457D02*
X87559Y-36024D01*
X85114Y-37992D02*
X85064Y-38024D01*
X85114Y-37992D02*
X85064Y-38024D01*
X85064Y-38024D02*
X84084Y-38024D01*
X84084Y-38024D02*
X84177Y-37933D01*
X84868Y-33908D02*
X84084Y-33908D01*
X84084Y-33908D02*
X84177Y-33933D01*
X84917Y-33858D02*
X84868Y-33908D01*
X84084Y-32928D02*
X84280Y-32732D01*
X84280Y-32732D02*
X84868Y-32732D01*
X84868Y-32732D02*
X84917Y-32677D01*
X84177Y-32933D02*
X84084Y-32928D01*
X84084Y-31948D02*
X84177Y-31933D01*
X84917Y-31496D02*
X84868Y-31556D01*
X84868Y-31556D02*
X84476Y-31948D01*
X84476Y-31948D02*
X84084Y-31948D01*
X84084Y-30968D02*
X84672Y-30380D01*
X84672Y-30380D02*
X84868Y-30380D01*
X84868Y-30380D02*
X84917Y-30315D01*
X84177Y-30933D02*
X84084Y-30968D01*
X84084Y-29988D02*
X84868Y-29204D01*
X84868Y-29204D02*
X84917Y-29134D01*
X84177Y-29933D02*
X84084Y-29988D01*
X84084Y-29008D02*
X84177Y-28933D01*
X84917Y-27953D02*
X84868Y-28028D01*
X84868Y-28028D02*
X84084Y-28812D01*
X84084Y-28812D02*
X84084Y-29008D01*
X88004Y-32732D02*
X88788Y-31948D01*
X88788Y-31948D02*
X89180Y-31948D01*
X89180Y-31948D02*
X89173Y-32012D01*
X87917Y-32677D02*
X88004Y-32732D01*
X89180Y-29988D02*
X89173Y-30012D01*
X87917Y-30315D02*
X88004Y-30380D01*
X88004Y-30380D02*
X88396Y-29988D01*
X88396Y-29988D02*
X89180Y-29988D01*
X88004Y-28028D02*
X87917Y-27953D01*
X89173Y-28012D02*
X89180Y-28028D01*
X89180Y-28028D02*
X88004Y-28028D01*
X88004Y-33908D02*
X87917Y-33858D01*
X89173Y-33012D02*
X89180Y-32928D01*
X89180Y-32928D02*
X88200Y-33908D01*
X88200Y-33908D02*
X88004Y-33908D01*
X89180Y-30968D02*
X88592Y-31556D01*
X88592Y-31556D02*
X88004Y-31556D01*
X88004Y-31556D02*
X87917Y-31496D01*
X89173Y-31012D02*
X89180Y-30968D01*
X87917Y-29134D02*
X88004Y-29204D01*
X88004Y-29204D02*
X88200Y-29008D01*
X88200Y-29008D02*
X89180Y-29008D01*
X89180Y-29008D02*
X89173Y-29012D01*
X77437Y-33858D02*
X73779Y-33858D01*
X72913Y-33183D02*
X73425Y-32671D01*
X72913Y-33661D02*
X72913Y-33183D01*
X73228Y-33976D02*
X72913Y-33661D01*
X73661Y-33976D02*
X73228Y-33976D01*
X73779Y-33858D02*
X73661Y-33976D01*
X77437Y-33858D02*
X77420Y-33908D01*
X75656Y-32928D02*
X75591Y-32949D01*
X75591Y-32949D02*
X75656Y-32928D01*
X75656Y-32928D02*
X75460Y-32732D01*
X73500Y-32732D02*
X73425Y-32671D01*
X75460Y-32732D02*
X73500Y-32732D01*
X77437Y-33858D02*
X77420Y-33908D01*
X77420Y-33908D02*
X77420Y-34888D01*
X77420Y-34888D02*
X77437Y-34843D01*
X76575Y-32949D02*
X76636Y-32928D01*
X76636Y-32928D02*
X76048Y-33516D01*
X76048Y-33516D02*
X73500Y-33516D01*
X73500Y-33516D02*
X73425Y-33471D01*
X76575Y-32949D02*
X76636Y-32928D01*
X76636Y-32928D02*
X77420Y-32928D01*
X77420Y-32928D02*
X77437Y-32874D01*
X77224Y-39004D02*
X77240Y-38976D01*
X76378Y-39051D02*
X76440Y-39004D01*
X76440Y-39004D02*
X77224Y-39004D01*
X76378Y-40051D02*
X76440Y-39984D01*
X76440Y-39984D02*
X77224Y-39984D01*
X77224Y-39984D02*
X77240Y-39961D01*
X76440Y-40964D02*
X76378Y-41051D01*
X77240Y-40945D02*
X77224Y-40964D01*
X77224Y-40964D02*
X76440Y-40964D01*
X89370Y-38264D02*
X89376Y-38220D01*
X89376Y-38220D02*
X89180Y-38024D01*
X89180Y-38024D02*
X88200Y-38024D01*
X88200Y-38024D02*
X88114Y-37992D01*
X89370Y-42264D02*
X89376Y-42336D01*
X89376Y-42336D02*
X88984Y-42728D01*
X88984Y-42728D02*
X88200Y-42728D01*
X88200Y-42728D02*
X88114Y-42717D01*
X88114Y-41535D02*
X88200Y-41552D01*
X88200Y-41552D02*
X88396Y-41356D01*
X88396Y-41356D02*
X89376Y-41356D01*
X89376Y-41356D02*
X89370Y-41264D01*
X89370Y-40264D02*
X89376Y-40180D01*
X89376Y-40180D02*
X89180Y-40376D01*
X89180Y-40376D02*
X88200Y-40376D01*
X88200Y-40376D02*
X88114Y-40354D01*
X89370Y-39264D02*
X89376Y-39200D01*
X89376Y-39200D02*
X88200Y-39200D01*
X88200Y-39200D02*
X88114Y-39173D01*
X76244Y-30968D02*
X76181Y-30906D01*
X77437Y-30906D02*
X77420Y-30968D01*
X77420Y-30968D02*
X76244Y-30968D01*
X77420Y-29988D02*
X76244Y-29988D01*
X76244Y-29988D02*
X76181Y-29906D01*
X77437Y-29921D02*
X77420Y-29988D01*
X77420Y-31948D02*
X76244Y-31948D01*
X76244Y-31948D02*
X76181Y-31906D01*
X77437Y-31890D02*
X77420Y-31948D01*
X76378Y-42051D02*
X76440Y-42140D01*
X76440Y-42140D02*
X76636Y-41944D01*
X76636Y-41944D02*
X77224Y-41944D01*
X77224Y-41944D02*
X77240Y-41929D01*
M02*
