M48
;DRILL file {PCBnew (20090216-final)} date 04/11/2009 16:02:00
;FORMAT={-.-/ absolute / inch / decimal}
R,T
VER,1
FMAT,2
INCH,TZ
TCST,OFF
ICI,OFF
ATC,ON
T1C0.025
T2C0.032
T3C0.036
T4C0.040
T5C0.091
T6C0.120
%
M47
G05
M72
T1
X7.575Y4.200
X7.650Y4.200
T2
X7.075Y3.325
X7.175Y3.325
X7.275Y3.325
X7.356Y3.800
X7.356Y3.900
X7.435Y3.800
X7.435Y3.900
X7.625Y2.900
X7.625Y3.425
X7.625Y3.525
X7.650Y3.700
X7.650Y4.000
X7.725Y3.300
X7.725Y4.200
X7.950Y3.700
X7.950Y4.000
X8.025Y2.925
X8.025Y3.025
X8.025Y3.125
X8.025Y3.300
X8.025Y4.200
X8.118Y2.893
X8.505Y3.500
X8.505Y3.700
X8.875Y3.075
X8.875Y3.175
X8.875Y3.275
X8.875Y3.375
X8.900Y4.200
T3
X7.075Y3.025
X7.125Y2.900
X7.175Y3.025
X7.225Y2.900
X7.275Y3.025
X7.325Y2.900
X7.325Y3.425
X7.325Y3.525
X7.425Y2.900
X7.525Y2.900
X7.725Y2.925
X7.725Y3.025
X7.725Y3.125
X7.725Y3.400
X7.725Y3.500
X8.025Y3.400
X8.025Y3.500
X8.118Y2.993
X8.118Y3.093
X8.118Y3.193
X8.118Y3.293
X8.118Y3.393
X8.118Y3.493
X8.118Y3.593
X8.118Y3.693
X8.118Y3.793
X8.118Y3.893
X8.118Y3.993
X8.118Y4.093
X8.118Y4.193
X8.418Y2.893
X8.418Y2.993
X8.418Y3.093
X8.418Y3.193
X8.418Y3.293
X8.418Y3.393
X8.418Y3.493
X8.418Y3.593
X8.418Y3.693
X8.418Y3.793
X8.418Y3.893
X8.418Y3.993
X8.418Y4.093
X8.418Y4.193
X8.500Y3.075
X8.500Y3.175
X8.500Y3.275
X8.500Y3.375
X8.500Y3.800
X8.500Y3.900
X8.500Y4.000
X8.500Y4.100
X8.500Y4.200
X8.545Y2.960
X8.800Y3.075
X8.800Y3.175
X8.800Y3.275
X8.800Y3.375
X8.800Y3.800
X8.800Y3.900
X8.800Y4.000
X8.800Y4.100
X8.800Y4.200
X8.845Y2.960
X8.900Y3.800
X8.900Y3.900
X8.900Y4.000
X8.900Y4.100
T4
X7.450Y3.100
X7.450Y3.200
X7.450Y3.300
X7.550Y3.100
X7.550Y3.200
X7.550Y3.300
X8.650Y3.550
X8.650Y3.650
X8.750Y3.550
X8.750Y3.650
X8.850Y3.550
X8.850Y3.650
T5
X7.250Y3.614
X7.250Y4.086
T6
X6.975Y2.900
X6.975Y4.175
X8.975Y2.900
T0
M30
