G04 (created by PCBnew (20090216-final)) date 04/11/2009 16:01:52*
G01*
G70*
G90*
%MOIN*%
G04 Gerber Fmt 3.4, Leading zero omitted, Abs format*
%FSLAX34Y34*%
G04 APERTURE LIST*
%ADD10C,0.015000*%
%ADD11C,0.015000*%
%ADD12C,0.055000*%
%ADD13R,0.055000X0.055000*%
%ADD14C,0.060000*%
%ADD15R,0.060000X0.060000*%
%ADD16C,0.106300*%
%ADD17C,0.045000*%
%ADD18C,0.017000*%
%ADD19C,0.010000*%
%ADD20C,0.000100*%
%ADD21C,0.007500*%
%ADD22C,0.008000*%
%ADD23C,0.005000*%
%ADD24C,0.005700*%
%ADD25C,0.160000*%
G04 APERTURE END LIST*
G54D10*
X68500Y-27750D02*
X69750Y-27750D01*
X68500Y-42750D02*
X68500Y-27750D01*
X89750Y-42750D02*
X68500Y-42750D01*
X91000Y-42750D02*
X89750Y-42750D01*
X91000Y-27750D02*
X91000Y-42750D01*
X89750Y-27750D02*
X91000Y-27750D01*
X89250Y-27750D02*
X69750Y-27750D01*
X89500Y-27750D02*
X89250Y-27750D01*
X89750Y-27750D02*
X89500Y-27750D01*
G54D20*
X73031Y-40862D02*
X73020Y-40965D01*
X73020Y-40965D02*
X72990Y-41064D01*
X72990Y-41064D02*
X72942Y-41155D01*
X72942Y-41155D02*
X72876Y-41236D01*
X72876Y-41236D02*
X72796Y-41302D01*
X72796Y-41302D02*
X72705Y-41351D01*
X72705Y-41351D02*
X72606Y-41382D01*
X72606Y-41382D02*
X72503Y-41392D01*
X72503Y-41392D02*
X72401Y-41383D01*
X72401Y-41383D02*
X72302Y-41354D01*
X72302Y-41354D02*
X72210Y-41306D01*
X72210Y-41306D02*
X72129Y-41241D01*
X72129Y-41241D02*
X72062Y-41161D01*
X72062Y-41161D02*
X72012Y-41071D01*
X72012Y-41071D02*
X71981Y-40972D01*
X71981Y-40972D02*
X71970Y-40869D01*
X71970Y-40869D02*
X71978Y-40767D01*
X71978Y-40767D02*
X72007Y-40667D01*
X72007Y-40667D02*
X72054Y-40575D01*
X72054Y-40575D02*
X72119Y-40494D01*
X72119Y-40494D02*
X72197Y-40426D01*
X72197Y-40426D02*
X72288Y-40376D01*
X72288Y-40376D02*
X72386Y-40344D01*
X72386Y-40344D02*
X72489Y-40332D01*
X72489Y-40332D02*
X72592Y-40340D01*
X72592Y-40340D02*
X72692Y-40367D01*
X72692Y-40367D02*
X72784Y-40414D01*
X72784Y-40414D02*
X72866Y-40478D01*
X72866Y-40478D02*
X72933Y-40556D01*
X72933Y-40556D02*
X72985Y-40647D01*
X72985Y-40647D02*
X73017Y-40745D01*
X73017Y-40745D02*
X73030Y-40848D01*
X73030Y-40848D02*
X73031Y-40862D01*
M02*
