G04 (created by PCBnew (20090216-final)) date 11/10/2009 21:18:54*
G01*
G70*
G90*
%MOIN*%
G04 Gerber Fmt 3.4, Leading zero omitted, Abs format*
%FSLAX34Y34*%
G04 APERTURE LIST*
%ADD10C,0.015000*%
%ADD11C,0.060000*%
%ADD12R,0.055000X0.055000*%
%ADD13C,0.055000*%
%ADD14R,0.060000X0.060000*%
%ADD15C,0.160000*%
%ADD16C,0.017000*%
%ADD17C,0.012000*%
%ADD18C,0.005000*%
%ADD19C,0.008000*%
%ADD20C,0.000100*%
G04 APERTURE END LIST*
G54D10*
X68307Y-46063D02*
X69685Y-46063D01*
X68307Y-24606D02*
X68307Y-46063D01*
X69685Y-24606D02*
X68307Y-24606D01*
X69685Y-24606D02*
X69882Y-24606D01*
X70276Y-46063D02*
X69685Y-46063D01*
X90551Y-46063D02*
X70276Y-46063D01*
X90551Y-24606D02*
X90551Y-46063D01*
X69882Y-24606D02*
X90551Y-24606D01*
X83677Y-27933D02*
X83677Y-42933D01*
X83677Y-42933D02*
X81677Y-42933D01*
X81677Y-42933D02*
X81677Y-27933D01*
X81677Y-27933D02*
X83677Y-27933D01*
X83177Y-27933D02*
X83177Y-28433D01*
X83177Y-28433D02*
X82177Y-28433D01*
X82177Y-28433D02*
X82177Y-27933D01*
G54D17*
X84917Y-32677D02*
X85217Y-32677D01*
X85217Y-32677D02*
X85217Y-33077D01*
X85217Y-33077D02*
X87617Y-33077D01*
X87617Y-33077D02*
X87617Y-32677D01*
X87617Y-32677D02*
X87917Y-32677D01*
X87617Y-32677D02*
X87617Y-32277D01*
X87617Y-32277D02*
X85217Y-32277D01*
X85217Y-32277D02*
X85217Y-32677D01*
X85417Y-33077D02*
X85417Y-32277D01*
X85517Y-32277D02*
X85517Y-33077D01*
X84917Y-30315D02*
X85217Y-30315D01*
X85217Y-30315D02*
X85217Y-30715D01*
X85217Y-30715D02*
X87617Y-30715D01*
X87617Y-30715D02*
X87617Y-30315D01*
X87617Y-30315D02*
X87917Y-30315D01*
X87617Y-30315D02*
X87617Y-29915D01*
X87617Y-29915D02*
X85217Y-29915D01*
X85217Y-29915D02*
X85217Y-30315D01*
X85417Y-30715D02*
X85417Y-29915D01*
X85517Y-29915D02*
X85517Y-30715D01*
X84917Y-27953D02*
X85217Y-27953D01*
X85217Y-27953D02*
X85217Y-28353D01*
X85217Y-28353D02*
X87617Y-28353D01*
X87617Y-28353D02*
X87617Y-27953D01*
X87617Y-27953D02*
X87917Y-27953D01*
X87617Y-27953D02*
X87617Y-27553D01*
X87617Y-27553D02*
X85217Y-27553D01*
X85217Y-27553D02*
X85217Y-27953D01*
X85417Y-28353D02*
X85417Y-27553D01*
X85517Y-27553D02*
X85517Y-28353D01*
X84917Y-33858D02*
X85217Y-33858D01*
X85217Y-33858D02*
X85217Y-34258D01*
X85217Y-34258D02*
X87617Y-34258D01*
X87617Y-34258D02*
X87617Y-33858D01*
X87617Y-33858D02*
X87917Y-33858D01*
X87617Y-33858D02*
X87617Y-33458D01*
X87617Y-33458D02*
X85217Y-33458D01*
X85217Y-33458D02*
X85217Y-33858D01*
X85417Y-34258D02*
X85417Y-33458D01*
X85517Y-33458D02*
X85517Y-34258D01*
X84917Y-31496D02*
X85217Y-31496D01*
X85217Y-31496D02*
X85217Y-31896D01*
X85217Y-31896D02*
X87617Y-31896D01*
X87617Y-31896D02*
X87617Y-31496D01*
X87617Y-31496D02*
X87917Y-31496D01*
X87617Y-31496D02*
X87617Y-31096D01*
X87617Y-31096D02*
X85217Y-31096D01*
X85217Y-31096D02*
X85217Y-31496D01*
X85417Y-31896D02*
X85417Y-31096D01*
X85517Y-31096D02*
X85517Y-31896D01*
X84917Y-29134D02*
X85217Y-29134D01*
X85217Y-29134D02*
X85217Y-29534D01*
X85217Y-29534D02*
X87617Y-29534D01*
X87617Y-29534D02*
X87617Y-29134D01*
X87617Y-29134D02*
X87917Y-29134D01*
X87617Y-29134D02*
X87617Y-28734D01*
X87617Y-28734D02*
X85217Y-28734D01*
X85217Y-28734D02*
X85217Y-29134D01*
X85417Y-29534D02*
X85417Y-28734D01*
X85517Y-28734D02*
X85517Y-29534D01*
X75591Y-32949D02*
X75591Y-33249D01*
X75591Y-33249D02*
X75191Y-33249D01*
X75191Y-33249D02*
X75191Y-35649D01*
X75191Y-35649D02*
X75591Y-35649D01*
X75591Y-35649D02*
X75591Y-35949D01*
X75591Y-35649D02*
X75991Y-35649D01*
X75991Y-35649D02*
X75991Y-33249D01*
X75991Y-33249D02*
X75591Y-33249D01*
X75191Y-33449D02*
X75991Y-33449D01*
X75991Y-33549D02*
X75191Y-33549D01*
X76575Y-32949D02*
X76575Y-33249D01*
X76575Y-33249D02*
X76175Y-33249D01*
X76175Y-33249D02*
X76175Y-35649D01*
X76175Y-35649D02*
X76575Y-35649D01*
X76575Y-35649D02*
X76575Y-35949D01*
X76575Y-35649D02*
X76975Y-35649D01*
X76975Y-35649D02*
X76975Y-33249D01*
X76975Y-33249D02*
X76575Y-33249D01*
X76175Y-33449D02*
X76975Y-33449D01*
X76975Y-33549D02*
X76175Y-33549D01*
X80437Y-28937D02*
X80237Y-28937D01*
X77437Y-28937D02*
X77637Y-28937D01*
X77637Y-28937D02*
X77637Y-29337D01*
X77637Y-29337D02*
X80237Y-29337D01*
X80237Y-29337D02*
X80237Y-28537D01*
X80237Y-28537D02*
X77637Y-28537D01*
X77637Y-28537D02*
X77637Y-28937D01*
X80237Y-29137D02*
X80037Y-29337D01*
X77240Y-38976D02*
X77440Y-38976D01*
X80240Y-38976D02*
X80040Y-38976D01*
X80040Y-38976D02*
X80040Y-38576D01*
X80040Y-38576D02*
X77440Y-38576D01*
X77440Y-38576D02*
X77440Y-39376D01*
X77440Y-39376D02*
X80040Y-39376D01*
X80040Y-39376D02*
X80040Y-38976D01*
X77440Y-38776D02*
X77640Y-38576D01*
X77240Y-39961D02*
X77440Y-39961D01*
X80240Y-39961D02*
X80040Y-39961D01*
X80040Y-39961D02*
X80040Y-39561D01*
X80040Y-39561D02*
X77440Y-39561D01*
X77440Y-39561D02*
X77440Y-40361D01*
X77440Y-40361D02*
X80040Y-40361D01*
X80040Y-40361D02*
X80040Y-39961D01*
X77440Y-39761D02*
X77640Y-39561D01*
X77240Y-40945D02*
X77440Y-40945D01*
X80240Y-40945D02*
X80040Y-40945D01*
X80040Y-40945D02*
X80040Y-40545D01*
X80040Y-40545D02*
X77440Y-40545D01*
X77440Y-40545D02*
X77440Y-41345D01*
X77440Y-41345D02*
X80040Y-41345D01*
X80040Y-41345D02*
X80040Y-40945D01*
X77440Y-40745D02*
X77640Y-40545D01*
X88114Y-37992D02*
X87914Y-37992D01*
X85114Y-37992D02*
X85314Y-37992D01*
X85314Y-37992D02*
X85314Y-38392D01*
X85314Y-38392D02*
X87914Y-38392D01*
X87914Y-38392D02*
X87914Y-37592D01*
X87914Y-37592D02*
X85314Y-37592D01*
X85314Y-37592D02*
X85314Y-37992D01*
X87914Y-38192D02*
X87714Y-38392D01*
X88114Y-42717D02*
X87914Y-42717D01*
X85114Y-42717D02*
X85314Y-42717D01*
X85314Y-42717D02*
X85314Y-43117D01*
X85314Y-43117D02*
X87914Y-43117D01*
X87914Y-43117D02*
X87914Y-42317D01*
X87914Y-42317D02*
X85314Y-42317D01*
X85314Y-42317D02*
X85314Y-42717D01*
X87914Y-42917D02*
X87714Y-43117D01*
X88114Y-41535D02*
X87914Y-41535D01*
X85114Y-41535D02*
X85314Y-41535D01*
X85314Y-41535D02*
X85314Y-41935D01*
X85314Y-41935D02*
X87914Y-41935D01*
X87914Y-41935D02*
X87914Y-41135D01*
X87914Y-41135D02*
X85314Y-41135D01*
X85314Y-41135D02*
X85314Y-41535D01*
X87914Y-41735D02*
X87714Y-41935D01*
X88114Y-40354D02*
X87914Y-40354D01*
X85114Y-40354D02*
X85314Y-40354D01*
X85314Y-40354D02*
X85314Y-40754D01*
X85314Y-40754D02*
X87914Y-40754D01*
X87914Y-40754D02*
X87914Y-39954D01*
X87914Y-39954D02*
X85314Y-39954D01*
X85314Y-39954D02*
X85314Y-40354D01*
X87914Y-40554D02*
X87714Y-40754D01*
X88114Y-39173D02*
X87914Y-39173D01*
X85114Y-39173D02*
X85314Y-39173D01*
X85314Y-39173D02*
X85314Y-39573D01*
X85314Y-39573D02*
X87914Y-39573D01*
X87914Y-39573D02*
X87914Y-38773D01*
X87914Y-38773D02*
X85314Y-38773D01*
X85314Y-38773D02*
X85314Y-39173D01*
X87914Y-39373D02*
X87714Y-39573D01*
X77437Y-32874D02*
X77637Y-32874D01*
X80437Y-32874D02*
X80237Y-32874D01*
X80237Y-32874D02*
X80237Y-32474D01*
X80237Y-32474D02*
X77637Y-32474D01*
X77637Y-32474D02*
X77637Y-33274D01*
X77637Y-33274D02*
X80237Y-33274D01*
X80237Y-33274D02*
X80237Y-32874D01*
X77637Y-32674D02*
X77837Y-32474D01*
X77437Y-33858D02*
X77637Y-33858D01*
X80437Y-33858D02*
X80237Y-33858D01*
X80237Y-33858D02*
X80237Y-33458D01*
X80237Y-33458D02*
X77637Y-33458D01*
X77637Y-33458D02*
X77637Y-34258D01*
X77637Y-34258D02*
X80237Y-34258D01*
X80237Y-34258D02*
X80237Y-33858D01*
X77637Y-33658D02*
X77837Y-33458D01*
G54D10*
X74441Y-36717D02*
X69941Y-36717D01*
X69941Y-36717D02*
X69941Y-41217D01*
X70441Y-41717D02*
X74441Y-41717D01*
X74941Y-41217D02*
X74941Y-37217D01*
X69941Y-41217D02*
X69952Y-41321D01*
X69952Y-41321D02*
X69984Y-41420D01*
X69984Y-41420D02*
X70036Y-41511D01*
X70036Y-41511D02*
X70106Y-41589D01*
X70106Y-41589D02*
X70191Y-41650D01*
X70191Y-41650D02*
X70286Y-41693D01*
X70286Y-41693D02*
X70389Y-41714D01*
X70389Y-41714D02*
X70441Y-41717D01*
X74441Y-41717D02*
X74545Y-41706D01*
X74545Y-41706D02*
X74644Y-41674D01*
X74644Y-41674D02*
X74735Y-41622D01*
X74735Y-41622D02*
X74813Y-41552D01*
X74813Y-41552D02*
X74874Y-41467D01*
X74874Y-41467D02*
X74917Y-41372D01*
X74917Y-41372D02*
X74938Y-41269D01*
X74938Y-41269D02*
X74941Y-41217D01*
X74941Y-37217D02*
X74930Y-37113D01*
X74930Y-37113D02*
X74898Y-37014D01*
X74898Y-37014D02*
X74846Y-36923D01*
X74846Y-36923D02*
X74776Y-36845D01*
X74776Y-36845D02*
X74691Y-36784D01*
X74691Y-36784D02*
X74596Y-36741D01*
X74596Y-36741D02*
X74493Y-36720D01*
X74493Y-36720D02*
X74441Y-36717D01*
G54D18*
X73875Y-36021D02*
X68325Y-36021D01*
X68325Y-30121D02*
X73875Y-30121D01*
X73875Y-36021D02*
X73875Y-30121D01*
X68325Y-36021D02*
X68325Y-30121D01*
G54D17*
X77437Y-30906D02*
X77637Y-30906D01*
X80437Y-30906D02*
X80237Y-30906D01*
X80237Y-30906D02*
X80237Y-30506D01*
X80237Y-30506D02*
X77637Y-30506D01*
X77637Y-30506D02*
X77637Y-31306D01*
X77637Y-31306D02*
X80237Y-31306D01*
X80237Y-31306D02*
X80237Y-30906D01*
X77637Y-30706D02*
X77837Y-30506D01*
X77437Y-29921D02*
X77637Y-29921D01*
X80437Y-29921D02*
X80237Y-29921D01*
X80237Y-29921D02*
X80237Y-29521D01*
X80237Y-29521D02*
X77637Y-29521D01*
X77637Y-29521D02*
X77637Y-30321D01*
X77637Y-30321D02*
X80237Y-30321D01*
X80237Y-30321D02*
X80237Y-29921D01*
X77637Y-29721D02*
X77837Y-29521D01*
X77437Y-31890D02*
X77637Y-31890D01*
X80437Y-31890D02*
X80237Y-31890D01*
X80237Y-31890D02*
X80237Y-31490D01*
X80237Y-31490D02*
X77637Y-31490D01*
X77637Y-31490D02*
X77637Y-32290D01*
X77637Y-32290D02*
X80237Y-32290D01*
X80237Y-32290D02*
X80237Y-31890D01*
X77637Y-31690D02*
X77837Y-31490D01*
X77240Y-41929D02*
X77440Y-41929D01*
X80240Y-41929D02*
X80040Y-41929D01*
X80040Y-41929D02*
X80040Y-41529D01*
X80040Y-41529D02*
X77440Y-41529D01*
X77440Y-41529D02*
X77440Y-42329D01*
X77440Y-42329D02*
X80040Y-42329D01*
X80040Y-42329D02*
X80040Y-41929D01*
X77440Y-41729D02*
X77640Y-41529D01*
G54D10*
X80224Y-37992D02*
X79224Y-37992D01*
X80783Y-37992D02*
X80772Y-38100D01*
X80772Y-38100D02*
X80740Y-38205D01*
X80740Y-38205D02*
X80689Y-38301D01*
X80689Y-38301D02*
X80620Y-38385D01*
X80620Y-38385D02*
X80536Y-38455D01*
X80536Y-38455D02*
X80440Y-38507D01*
X80440Y-38507D02*
X80336Y-38539D01*
X80336Y-38539D02*
X80227Y-38550D01*
X80227Y-38550D02*
X80120Y-38541D01*
X80120Y-38541D02*
X80015Y-38510D01*
X80015Y-38510D02*
X79918Y-38459D01*
X79918Y-38459D02*
X79833Y-38391D01*
X79833Y-38391D02*
X79763Y-38307D01*
X79763Y-38307D02*
X79711Y-38212D01*
X79711Y-38212D02*
X79678Y-38108D01*
X79678Y-38108D02*
X79666Y-37999D01*
X79666Y-37999D02*
X79675Y-37892D01*
X79675Y-37892D02*
X79705Y-37787D01*
X79705Y-37787D02*
X79755Y-37690D01*
X79755Y-37690D02*
X79822Y-37604D01*
X79822Y-37604D02*
X79905Y-37533D01*
X79905Y-37533D02*
X80001Y-37480D01*
X80001Y-37480D02*
X80104Y-37447D01*
X80104Y-37447D02*
X80213Y-37434D01*
X80213Y-37434D02*
X80321Y-37442D01*
X80321Y-37442D02*
X80426Y-37471D01*
X80426Y-37471D02*
X80523Y-37521D01*
X80523Y-37521D02*
X80609Y-37588D01*
X80609Y-37588D02*
X80680Y-37670D01*
X80680Y-37670D02*
X80734Y-37765D01*
X80734Y-37765D02*
X80769Y-37869D01*
X80769Y-37869D02*
X80782Y-37977D01*
X80782Y-37977D02*
X80783Y-37992D01*
G54D17*
X85243Y-34427D02*
X85243Y-37227D01*
X85243Y-37227D02*
X84443Y-37227D01*
X84443Y-37227D02*
X84443Y-34427D01*
X84443Y-34427D02*
X85243Y-34427D01*
X85043Y-34427D02*
X85243Y-34627D01*
X77437Y-34843D02*
X77637Y-34843D01*
X80437Y-34843D02*
X80237Y-34843D01*
X80237Y-34843D02*
X80237Y-34443D01*
X80237Y-34443D02*
X77637Y-34443D01*
X77637Y-34443D02*
X77637Y-35243D01*
X77637Y-35243D02*
X80237Y-35243D01*
X80237Y-35243D02*
X80237Y-34843D01*
X77637Y-34643D02*
X77837Y-34443D01*
X75681Y-29406D02*
X76681Y-29406D01*
X76681Y-29406D02*
X76681Y-32406D01*
X76681Y-32406D02*
X75681Y-32406D01*
X75681Y-32406D02*
X75681Y-29406D01*
X76681Y-30406D02*
X75681Y-30406D01*
X76878Y-38551D02*
X76878Y-38551D01*
X75878Y-38551D02*
X76878Y-38551D01*
X76878Y-38551D02*
X76878Y-38551D01*
X76878Y-38551D02*
X76878Y-42551D01*
X76878Y-42551D02*
X75878Y-42551D01*
X75878Y-42551D02*
X75878Y-38551D01*
X75878Y-39551D02*
X76878Y-39551D01*
X89870Y-42764D02*
X88870Y-42764D01*
X88870Y-42764D02*
X88870Y-37764D01*
X88870Y-37764D02*
X89870Y-37764D01*
X89870Y-37764D02*
X89870Y-42764D01*
X89870Y-41764D02*
X88870Y-41764D01*
X89673Y-33512D02*
X88673Y-33512D01*
X88673Y-33512D02*
X88673Y-27512D01*
X88673Y-27512D02*
X89673Y-27512D01*
X89673Y-27512D02*
X89673Y-33512D01*
X89673Y-32512D02*
X88673Y-32512D01*
G54D19*
X89492Y-37024D02*
X86492Y-37024D01*
X86492Y-35024D02*
X89492Y-35024D01*
X89492Y-35024D02*
X89492Y-37024D01*
X86492Y-37024D02*
X86492Y-35024D01*
G54D10*
X71766Y-26969D02*
X71748Y-27143D01*
X71748Y-27143D02*
X71698Y-27311D01*
X71698Y-27311D02*
X71615Y-27467D01*
X71615Y-27467D02*
X71504Y-27603D01*
X71504Y-27603D02*
X71369Y-27715D01*
X71369Y-27715D02*
X71214Y-27798D01*
X71214Y-27798D02*
X71046Y-27850D01*
X71046Y-27850D02*
X70872Y-27868D01*
X70872Y-27868D02*
X70698Y-27853D01*
X70698Y-27853D02*
X70529Y-27803D01*
X70529Y-27803D02*
X70374Y-27722D01*
X70374Y-27722D02*
X70237Y-27612D01*
X70237Y-27612D02*
X70124Y-27477D01*
X70124Y-27477D02*
X70039Y-27323D01*
X70039Y-27323D02*
X69986Y-27156D01*
X69986Y-27156D02*
X69967Y-26981D01*
X69967Y-26981D02*
X69981Y-26807D01*
X69981Y-26807D02*
X70030Y-26638D01*
X70030Y-26638D02*
X70110Y-26482D01*
X70110Y-26482D02*
X70219Y-26344D01*
X70219Y-26344D02*
X70353Y-26230D01*
X70353Y-26230D02*
X70506Y-26145D01*
X70506Y-26145D02*
X70673Y-26090D01*
X70673Y-26090D02*
X70848Y-26070D01*
X70848Y-26070D02*
X71022Y-26083D01*
X71022Y-26083D02*
X71191Y-26130D01*
X71191Y-26130D02*
X71348Y-26210D01*
X71348Y-26210D02*
X71486Y-26318D01*
X71486Y-26318D02*
X71601Y-26451D01*
X71601Y-26451D02*
X71688Y-26603D01*
X71688Y-26603D02*
X71743Y-26770D01*
X71743Y-26770D02*
X71765Y-26944D01*
X71765Y-26944D02*
X71766Y-26969D01*
X89581Y-44390D02*
X89563Y-44564D01*
X89563Y-44564D02*
X89513Y-44732D01*
X89513Y-44732D02*
X89430Y-44888D01*
X89430Y-44888D02*
X89319Y-45024D01*
X89319Y-45024D02*
X89184Y-45136D01*
X89184Y-45136D02*
X89029Y-45219D01*
X89029Y-45219D02*
X88861Y-45271D01*
X88861Y-45271D02*
X88687Y-45289D01*
X88687Y-45289D02*
X88513Y-45274D01*
X88513Y-45274D02*
X88344Y-45224D01*
X88344Y-45224D02*
X88189Y-45143D01*
X88189Y-45143D02*
X88052Y-45033D01*
X88052Y-45033D02*
X87939Y-44898D01*
X87939Y-44898D02*
X87854Y-44744D01*
X87854Y-44744D02*
X87801Y-44577D01*
X87801Y-44577D02*
X87782Y-44402D01*
X87782Y-44402D02*
X87796Y-44228D01*
X87796Y-44228D02*
X87845Y-44059D01*
X87845Y-44059D02*
X87925Y-43903D01*
X87925Y-43903D02*
X88034Y-43765D01*
X88034Y-43765D02*
X88168Y-43651D01*
X88168Y-43651D02*
X88321Y-43566D01*
X88321Y-43566D02*
X88488Y-43511D01*
X88488Y-43511D02*
X88663Y-43491D01*
X88663Y-43491D02*
X88837Y-43504D01*
X88837Y-43504D02*
X89006Y-43551D01*
X89006Y-43551D02*
X89163Y-43631D01*
X89163Y-43631D02*
X89301Y-43739D01*
X89301Y-43739D02*
X89416Y-43872D01*
X89416Y-43872D02*
X89503Y-44024D01*
X89503Y-44024D02*
X89558Y-44191D01*
X89558Y-44191D02*
X89580Y-44365D01*
X89580Y-44365D02*
X89581Y-44390D01*
X84561Y-26378D02*
X84543Y-26552D01*
X84543Y-26552D02*
X84493Y-26720D01*
X84493Y-26720D02*
X84410Y-26876D01*
X84410Y-26876D02*
X84299Y-27012D01*
X84299Y-27012D02*
X84164Y-27124D01*
X84164Y-27124D02*
X84009Y-27207D01*
X84009Y-27207D02*
X83841Y-27259D01*
X83841Y-27259D02*
X83667Y-27277D01*
X83667Y-27277D02*
X83493Y-27262D01*
X83493Y-27262D02*
X83324Y-27212D01*
X83324Y-27212D02*
X83169Y-27131D01*
X83169Y-27131D02*
X83032Y-27021D01*
X83032Y-27021D02*
X82919Y-26886D01*
X82919Y-26886D02*
X82834Y-26732D01*
X82834Y-26732D02*
X82781Y-26565D01*
X82781Y-26565D02*
X82762Y-26390D01*
X82762Y-26390D02*
X82776Y-26216D01*
X82776Y-26216D02*
X82825Y-26047D01*
X82825Y-26047D02*
X82905Y-25891D01*
X82905Y-25891D02*
X83014Y-25753D01*
X83014Y-25753D02*
X83148Y-25639D01*
X83148Y-25639D02*
X83301Y-25554D01*
X83301Y-25554D02*
X83468Y-25499D01*
X83468Y-25499D02*
X83643Y-25479D01*
X83643Y-25479D02*
X83817Y-25492D01*
X83817Y-25492D02*
X83986Y-25539D01*
X83986Y-25539D02*
X84143Y-25619D01*
X84143Y-25619D02*
X84281Y-25727D01*
X84281Y-25727D02*
X84396Y-25860D01*
X84396Y-25860D02*
X84483Y-26012D01*
X84483Y-26012D02*
X84538Y-26179D01*
X84538Y-26179D02*
X84560Y-26353D01*
X84560Y-26353D02*
X84561Y-26378D01*
X72357Y-44193D02*
X72339Y-44367D01*
X72339Y-44367D02*
X72289Y-44535D01*
X72289Y-44535D02*
X72206Y-44691D01*
X72206Y-44691D02*
X72095Y-44827D01*
X72095Y-44827D02*
X71960Y-44939D01*
X71960Y-44939D02*
X71805Y-45022D01*
X71805Y-45022D02*
X71637Y-45074D01*
X71637Y-45074D02*
X71463Y-45092D01*
X71463Y-45092D02*
X71289Y-45077D01*
X71289Y-45077D02*
X71120Y-45027D01*
X71120Y-45027D02*
X70965Y-44946D01*
X70965Y-44946D02*
X70828Y-44836D01*
X70828Y-44836D02*
X70715Y-44701D01*
X70715Y-44701D02*
X70630Y-44547D01*
X70630Y-44547D02*
X70577Y-44380D01*
X70577Y-44380D02*
X70558Y-44205D01*
X70558Y-44205D02*
X70572Y-44031D01*
X70572Y-44031D02*
X70621Y-43862D01*
X70621Y-43862D02*
X70701Y-43706D01*
X70701Y-43706D02*
X70810Y-43568D01*
X70810Y-43568D02*
X70944Y-43454D01*
X70944Y-43454D02*
X71097Y-43369D01*
X71097Y-43369D02*
X71264Y-43314D01*
X71264Y-43314D02*
X71439Y-43294D01*
X71439Y-43294D02*
X71613Y-43307D01*
X71613Y-43307D02*
X71782Y-43354D01*
X71782Y-43354D02*
X71939Y-43434D01*
X71939Y-43434D02*
X72077Y-43542D01*
X72077Y-43542D02*
X72192Y-43675D01*
X72192Y-43675D02*
X72279Y-43827D01*
X72279Y-43827D02*
X72334Y-43994D01*
X72334Y-43994D02*
X72356Y-44168D01*
X72356Y-44168D02*
X72357Y-44193D01*
G54D20*
X81477Y-29933D02*
X81471Y-29991D01*
X81471Y-29991D02*
X81454Y-30047D01*
X81454Y-30047D02*
X81426Y-30099D01*
X81426Y-30099D02*
X81389Y-30144D01*
X81389Y-30144D02*
X81344Y-30181D01*
X81344Y-30181D02*
X81293Y-30209D01*
X81293Y-30209D02*
X81237Y-30226D01*
X81237Y-30226D02*
X81179Y-30232D01*
X81179Y-30232D02*
X81121Y-30227D01*
X81121Y-30227D02*
X81065Y-30211D01*
X81065Y-30211D02*
X81013Y-30184D01*
X81013Y-30184D02*
X80968Y-30147D01*
X80968Y-30147D02*
X80930Y-30102D01*
X80930Y-30102D02*
X80902Y-30051D01*
X80902Y-30051D02*
X80884Y-29995D01*
X80884Y-29995D02*
X80878Y-29937D01*
X80878Y-29937D02*
X80882Y-29879D01*
X80882Y-29879D02*
X80899Y-29823D01*
X80899Y-29823D02*
X80925Y-29771D01*
X80925Y-29771D02*
X80962Y-29725D01*
X80962Y-29725D02*
X81006Y-29687D01*
X81006Y-29687D02*
X81057Y-29659D01*
X81057Y-29659D02*
X81113Y-29640D01*
X81113Y-29640D02*
X81171Y-29634D01*
X81171Y-29634D02*
X81229Y-29638D01*
X81229Y-29638D02*
X81285Y-29654D01*
X81285Y-29654D02*
X81337Y-29680D01*
X81337Y-29680D02*
X81383Y-29716D01*
X81383Y-29716D02*
X81422Y-29761D01*
X81422Y-29761D02*
X81451Y-29811D01*
X81451Y-29811D02*
X81469Y-29867D01*
X81469Y-29867D02*
X81476Y-29925D01*
X81476Y-29925D02*
X81477Y-29933D01*
X81477Y-30933D02*
X81471Y-30991D01*
X81471Y-30991D02*
X81454Y-31047D01*
X81454Y-31047D02*
X81426Y-31099D01*
X81426Y-31099D02*
X81389Y-31144D01*
X81389Y-31144D02*
X81344Y-31181D01*
X81344Y-31181D02*
X81293Y-31209D01*
X81293Y-31209D02*
X81237Y-31226D01*
X81237Y-31226D02*
X81179Y-31232D01*
X81179Y-31232D02*
X81121Y-31227D01*
X81121Y-31227D02*
X81065Y-31211D01*
X81065Y-31211D02*
X81013Y-31184D01*
X81013Y-31184D02*
X80968Y-31147D01*
X80968Y-31147D02*
X80930Y-31102D01*
X80930Y-31102D02*
X80902Y-31051D01*
X80902Y-31051D02*
X80884Y-30995D01*
X80884Y-30995D02*
X80878Y-30937D01*
X80878Y-30937D02*
X80882Y-30879D01*
X80882Y-30879D02*
X80899Y-30823D01*
X80899Y-30823D02*
X80925Y-30771D01*
X80925Y-30771D02*
X80962Y-30725D01*
X80962Y-30725D02*
X81006Y-30687D01*
X81006Y-30687D02*
X81057Y-30659D01*
X81057Y-30659D02*
X81113Y-30640D01*
X81113Y-30640D02*
X81171Y-30634D01*
X81171Y-30634D02*
X81229Y-30638D01*
X81229Y-30638D02*
X81285Y-30654D01*
X81285Y-30654D02*
X81337Y-30680D01*
X81337Y-30680D02*
X81383Y-30716D01*
X81383Y-30716D02*
X81422Y-30761D01*
X81422Y-30761D02*
X81451Y-30811D01*
X81451Y-30811D02*
X81469Y-30867D01*
X81469Y-30867D02*
X81476Y-30925D01*
X81476Y-30925D02*
X81477Y-30933D01*
X81477Y-31933D02*
X81471Y-31991D01*
X81471Y-31991D02*
X81454Y-32047D01*
X81454Y-32047D02*
X81426Y-32099D01*
X81426Y-32099D02*
X81389Y-32144D01*
X81389Y-32144D02*
X81344Y-32181D01*
X81344Y-32181D02*
X81293Y-32209D01*
X81293Y-32209D02*
X81237Y-32226D01*
X81237Y-32226D02*
X81179Y-32232D01*
X81179Y-32232D02*
X81121Y-32227D01*
X81121Y-32227D02*
X81065Y-32211D01*
X81065Y-32211D02*
X81013Y-32184D01*
X81013Y-32184D02*
X80968Y-32147D01*
X80968Y-32147D02*
X80930Y-32102D01*
X80930Y-32102D02*
X80902Y-32051D01*
X80902Y-32051D02*
X80884Y-31995D01*
X80884Y-31995D02*
X80878Y-31937D01*
X80878Y-31937D02*
X80882Y-31879D01*
X80882Y-31879D02*
X80899Y-31823D01*
X80899Y-31823D02*
X80925Y-31771D01*
X80925Y-31771D02*
X80962Y-31725D01*
X80962Y-31725D02*
X81006Y-31687D01*
X81006Y-31687D02*
X81057Y-31659D01*
X81057Y-31659D02*
X81113Y-31640D01*
X81113Y-31640D02*
X81171Y-31634D01*
X81171Y-31634D02*
X81229Y-31638D01*
X81229Y-31638D02*
X81285Y-31654D01*
X81285Y-31654D02*
X81337Y-31680D01*
X81337Y-31680D02*
X81383Y-31716D01*
X81383Y-31716D02*
X81422Y-31761D01*
X81422Y-31761D02*
X81451Y-31811D01*
X81451Y-31811D02*
X81469Y-31867D01*
X81469Y-31867D02*
X81476Y-31925D01*
X81476Y-31925D02*
X81477Y-31933D01*
X81477Y-32933D02*
X81471Y-32991D01*
X81471Y-32991D02*
X81454Y-33047D01*
X81454Y-33047D02*
X81426Y-33099D01*
X81426Y-33099D02*
X81389Y-33144D01*
X81389Y-33144D02*
X81344Y-33181D01*
X81344Y-33181D02*
X81293Y-33209D01*
X81293Y-33209D02*
X81237Y-33226D01*
X81237Y-33226D02*
X81179Y-33232D01*
X81179Y-33232D02*
X81121Y-33227D01*
X81121Y-33227D02*
X81065Y-33211D01*
X81065Y-33211D02*
X81013Y-33184D01*
X81013Y-33184D02*
X80968Y-33147D01*
X80968Y-33147D02*
X80930Y-33102D01*
X80930Y-33102D02*
X80902Y-33051D01*
X80902Y-33051D02*
X80884Y-32995D01*
X80884Y-32995D02*
X80878Y-32937D01*
X80878Y-32937D02*
X80882Y-32879D01*
X80882Y-32879D02*
X80899Y-32823D01*
X80899Y-32823D02*
X80925Y-32771D01*
X80925Y-32771D02*
X80962Y-32725D01*
X80962Y-32725D02*
X81006Y-32687D01*
X81006Y-32687D02*
X81057Y-32659D01*
X81057Y-32659D02*
X81113Y-32640D01*
X81113Y-32640D02*
X81171Y-32634D01*
X81171Y-32634D02*
X81229Y-32638D01*
X81229Y-32638D02*
X81285Y-32654D01*
X81285Y-32654D02*
X81337Y-32680D01*
X81337Y-32680D02*
X81383Y-32716D01*
X81383Y-32716D02*
X81422Y-32761D01*
X81422Y-32761D02*
X81451Y-32811D01*
X81451Y-32811D02*
X81469Y-32867D01*
X81469Y-32867D02*
X81476Y-32925D01*
X81476Y-32925D02*
X81477Y-32933D01*
X81477Y-33933D02*
X81471Y-33991D01*
X81471Y-33991D02*
X81454Y-34047D01*
X81454Y-34047D02*
X81426Y-34099D01*
X81426Y-34099D02*
X81389Y-34144D01*
X81389Y-34144D02*
X81344Y-34181D01*
X81344Y-34181D02*
X81293Y-34209D01*
X81293Y-34209D02*
X81237Y-34226D01*
X81237Y-34226D02*
X81179Y-34232D01*
X81179Y-34232D02*
X81121Y-34227D01*
X81121Y-34227D02*
X81065Y-34211D01*
X81065Y-34211D02*
X81013Y-34184D01*
X81013Y-34184D02*
X80968Y-34147D01*
X80968Y-34147D02*
X80930Y-34102D01*
X80930Y-34102D02*
X80902Y-34051D01*
X80902Y-34051D02*
X80884Y-33995D01*
X80884Y-33995D02*
X80878Y-33937D01*
X80878Y-33937D02*
X80882Y-33879D01*
X80882Y-33879D02*
X80899Y-33823D01*
X80899Y-33823D02*
X80925Y-33771D01*
X80925Y-33771D02*
X80962Y-33725D01*
X80962Y-33725D02*
X81006Y-33687D01*
X81006Y-33687D02*
X81057Y-33659D01*
X81057Y-33659D02*
X81113Y-33640D01*
X81113Y-33640D02*
X81171Y-33634D01*
X81171Y-33634D02*
X81229Y-33638D01*
X81229Y-33638D02*
X81285Y-33654D01*
X81285Y-33654D02*
X81337Y-33680D01*
X81337Y-33680D02*
X81383Y-33716D01*
X81383Y-33716D02*
X81422Y-33761D01*
X81422Y-33761D02*
X81451Y-33811D01*
X81451Y-33811D02*
X81469Y-33867D01*
X81469Y-33867D02*
X81476Y-33925D01*
X81476Y-33925D02*
X81477Y-33933D01*
X81477Y-34933D02*
X81471Y-34991D01*
X81471Y-34991D02*
X81454Y-35047D01*
X81454Y-35047D02*
X81426Y-35099D01*
X81426Y-35099D02*
X81389Y-35144D01*
X81389Y-35144D02*
X81344Y-35181D01*
X81344Y-35181D02*
X81293Y-35209D01*
X81293Y-35209D02*
X81237Y-35226D01*
X81237Y-35226D02*
X81179Y-35232D01*
X81179Y-35232D02*
X81121Y-35227D01*
X81121Y-35227D02*
X81065Y-35211D01*
X81065Y-35211D02*
X81013Y-35184D01*
X81013Y-35184D02*
X80968Y-35147D01*
X80968Y-35147D02*
X80930Y-35102D01*
X80930Y-35102D02*
X80902Y-35051D01*
X80902Y-35051D02*
X80884Y-34995D01*
X80884Y-34995D02*
X80878Y-34937D01*
X80878Y-34937D02*
X80882Y-34879D01*
X80882Y-34879D02*
X80899Y-34823D01*
X80899Y-34823D02*
X80925Y-34771D01*
X80925Y-34771D02*
X80962Y-34725D01*
X80962Y-34725D02*
X81006Y-34687D01*
X81006Y-34687D02*
X81057Y-34659D01*
X81057Y-34659D02*
X81113Y-34640D01*
X81113Y-34640D02*
X81171Y-34634D01*
X81171Y-34634D02*
X81229Y-34638D01*
X81229Y-34638D02*
X81285Y-34654D01*
X81285Y-34654D02*
X81337Y-34680D01*
X81337Y-34680D02*
X81383Y-34716D01*
X81383Y-34716D02*
X81422Y-34761D01*
X81422Y-34761D02*
X81451Y-34811D01*
X81451Y-34811D02*
X81469Y-34867D01*
X81469Y-34867D02*
X81476Y-34925D01*
X81476Y-34925D02*
X81477Y-34933D01*
X81477Y-35933D02*
X81471Y-35991D01*
X81471Y-35991D02*
X81454Y-36047D01*
X81454Y-36047D02*
X81426Y-36099D01*
X81426Y-36099D02*
X81389Y-36144D01*
X81389Y-36144D02*
X81344Y-36181D01*
X81344Y-36181D02*
X81293Y-36209D01*
X81293Y-36209D02*
X81237Y-36226D01*
X81237Y-36226D02*
X81179Y-36232D01*
X81179Y-36232D02*
X81121Y-36227D01*
X81121Y-36227D02*
X81065Y-36211D01*
X81065Y-36211D02*
X81013Y-36184D01*
X81013Y-36184D02*
X80968Y-36147D01*
X80968Y-36147D02*
X80930Y-36102D01*
X80930Y-36102D02*
X80902Y-36051D01*
X80902Y-36051D02*
X80884Y-35995D01*
X80884Y-35995D02*
X80878Y-35937D01*
X80878Y-35937D02*
X80882Y-35879D01*
X80882Y-35879D02*
X80899Y-35823D01*
X80899Y-35823D02*
X80925Y-35771D01*
X80925Y-35771D02*
X80962Y-35725D01*
X80962Y-35725D02*
X81006Y-35687D01*
X81006Y-35687D02*
X81057Y-35659D01*
X81057Y-35659D02*
X81113Y-35640D01*
X81113Y-35640D02*
X81171Y-35634D01*
X81171Y-35634D02*
X81229Y-35638D01*
X81229Y-35638D02*
X81285Y-35654D01*
X81285Y-35654D02*
X81337Y-35680D01*
X81337Y-35680D02*
X81383Y-35716D01*
X81383Y-35716D02*
X81422Y-35761D01*
X81422Y-35761D02*
X81451Y-35811D01*
X81451Y-35811D02*
X81469Y-35867D01*
X81469Y-35867D02*
X81476Y-35925D01*
X81476Y-35925D02*
X81477Y-35933D01*
X81477Y-36933D02*
X81471Y-36991D01*
X81471Y-36991D02*
X81454Y-37047D01*
X81454Y-37047D02*
X81426Y-37099D01*
X81426Y-37099D02*
X81389Y-37144D01*
X81389Y-37144D02*
X81344Y-37181D01*
X81344Y-37181D02*
X81293Y-37209D01*
X81293Y-37209D02*
X81237Y-37226D01*
X81237Y-37226D02*
X81179Y-37232D01*
X81179Y-37232D02*
X81121Y-37227D01*
X81121Y-37227D02*
X81065Y-37211D01*
X81065Y-37211D02*
X81013Y-37184D01*
X81013Y-37184D02*
X80968Y-37147D01*
X80968Y-37147D02*
X80930Y-37102D01*
X80930Y-37102D02*
X80902Y-37051D01*
X80902Y-37051D02*
X80884Y-36995D01*
X80884Y-36995D02*
X80878Y-36937D01*
X80878Y-36937D02*
X80882Y-36879D01*
X80882Y-36879D02*
X80899Y-36823D01*
X80899Y-36823D02*
X80925Y-36771D01*
X80925Y-36771D02*
X80962Y-36725D01*
X80962Y-36725D02*
X81006Y-36687D01*
X81006Y-36687D02*
X81057Y-36659D01*
X81057Y-36659D02*
X81113Y-36640D01*
X81113Y-36640D02*
X81171Y-36634D01*
X81171Y-36634D02*
X81229Y-36638D01*
X81229Y-36638D02*
X81285Y-36654D01*
X81285Y-36654D02*
X81337Y-36680D01*
X81337Y-36680D02*
X81383Y-36716D01*
X81383Y-36716D02*
X81422Y-36761D01*
X81422Y-36761D02*
X81451Y-36811D01*
X81451Y-36811D02*
X81469Y-36867D01*
X81469Y-36867D02*
X81476Y-36925D01*
X81476Y-36925D02*
X81477Y-36933D01*
X81477Y-37933D02*
X81471Y-37991D01*
X81471Y-37991D02*
X81454Y-38047D01*
X81454Y-38047D02*
X81426Y-38099D01*
X81426Y-38099D02*
X81389Y-38144D01*
X81389Y-38144D02*
X81344Y-38181D01*
X81344Y-38181D02*
X81293Y-38209D01*
X81293Y-38209D02*
X81237Y-38226D01*
X81237Y-38226D02*
X81179Y-38232D01*
X81179Y-38232D02*
X81121Y-38227D01*
X81121Y-38227D02*
X81065Y-38211D01*
X81065Y-38211D02*
X81013Y-38184D01*
X81013Y-38184D02*
X80968Y-38147D01*
X80968Y-38147D02*
X80930Y-38102D01*
X80930Y-38102D02*
X80902Y-38051D01*
X80902Y-38051D02*
X80884Y-37995D01*
X80884Y-37995D02*
X80878Y-37937D01*
X80878Y-37937D02*
X80882Y-37879D01*
X80882Y-37879D02*
X80899Y-37823D01*
X80899Y-37823D02*
X80925Y-37771D01*
X80925Y-37771D02*
X80962Y-37725D01*
X80962Y-37725D02*
X81006Y-37687D01*
X81006Y-37687D02*
X81057Y-37659D01*
X81057Y-37659D02*
X81113Y-37640D01*
X81113Y-37640D02*
X81171Y-37634D01*
X81171Y-37634D02*
X81229Y-37638D01*
X81229Y-37638D02*
X81285Y-37654D01*
X81285Y-37654D02*
X81337Y-37680D01*
X81337Y-37680D02*
X81383Y-37716D01*
X81383Y-37716D02*
X81422Y-37761D01*
X81422Y-37761D02*
X81451Y-37811D01*
X81451Y-37811D02*
X81469Y-37867D01*
X81469Y-37867D02*
X81476Y-37925D01*
X81476Y-37925D02*
X81477Y-37933D01*
X81477Y-38933D02*
X81471Y-38991D01*
X81471Y-38991D02*
X81454Y-39047D01*
X81454Y-39047D02*
X81426Y-39099D01*
X81426Y-39099D02*
X81389Y-39144D01*
X81389Y-39144D02*
X81344Y-39181D01*
X81344Y-39181D02*
X81293Y-39209D01*
X81293Y-39209D02*
X81237Y-39226D01*
X81237Y-39226D02*
X81179Y-39232D01*
X81179Y-39232D02*
X81121Y-39227D01*
X81121Y-39227D02*
X81065Y-39211D01*
X81065Y-39211D02*
X81013Y-39184D01*
X81013Y-39184D02*
X80968Y-39147D01*
X80968Y-39147D02*
X80930Y-39102D01*
X80930Y-39102D02*
X80902Y-39051D01*
X80902Y-39051D02*
X80884Y-38995D01*
X80884Y-38995D02*
X80878Y-38937D01*
X80878Y-38937D02*
X80882Y-38879D01*
X80882Y-38879D02*
X80899Y-38823D01*
X80899Y-38823D02*
X80925Y-38771D01*
X80925Y-38771D02*
X80962Y-38725D01*
X80962Y-38725D02*
X81006Y-38687D01*
X81006Y-38687D02*
X81057Y-38659D01*
X81057Y-38659D02*
X81113Y-38640D01*
X81113Y-38640D02*
X81171Y-38634D01*
X81171Y-38634D02*
X81229Y-38638D01*
X81229Y-38638D02*
X81285Y-38654D01*
X81285Y-38654D02*
X81337Y-38680D01*
X81337Y-38680D02*
X81383Y-38716D01*
X81383Y-38716D02*
X81422Y-38761D01*
X81422Y-38761D02*
X81451Y-38811D01*
X81451Y-38811D02*
X81469Y-38867D01*
X81469Y-38867D02*
X81476Y-38925D01*
X81476Y-38925D02*
X81477Y-38933D01*
X81477Y-39933D02*
X81471Y-39991D01*
X81471Y-39991D02*
X81454Y-40047D01*
X81454Y-40047D02*
X81426Y-40099D01*
X81426Y-40099D02*
X81389Y-40144D01*
X81389Y-40144D02*
X81344Y-40181D01*
X81344Y-40181D02*
X81293Y-40209D01*
X81293Y-40209D02*
X81237Y-40226D01*
X81237Y-40226D02*
X81179Y-40232D01*
X81179Y-40232D02*
X81121Y-40227D01*
X81121Y-40227D02*
X81065Y-40211D01*
X81065Y-40211D02*
X81013Y-40184D01*
X81013Y-40184D02*
X80968Y-40147D01*
X80968Y-40147D02*
X80930Y-40102D01*
X80930Y-40102D02*
X80902Y-40051D01*
X80902Y-40051D02*
X80884Y-39995D01*
X80884Y-39995D02*
X80878Y-39937D01*
X80878Y-39937D02*
X80882Y-39879D01*
X80882Y-39879D02*
X80899Y-39823D01*
X80899Y-39823D02*
X80925Y-39771D01*
X80925Y-39771D02*
X80962Y-39725D01*
X80962Y-39725D02*
X81006Y-39687D01*
X81006Y-39687D02*
X81057Y-39659D01*
X81057Y-39659D02*
X81113Y-39640D01*
X81113Y-39640D02*
X81171Y-39634D01*
X81171Y-39634D02*
X81229Y-39638D01*
X81229Y-39638D02*
X81285Y-39654D01*
X81285Y-39654D02*
X81337Y-39680D01*
X81337Y-39680D02*
X81383Y-39716D01*
X81383Y-39716D02*
X81422Y-39761D01*
X81422Y-39761D02*
X81451Y-39811D01*
X81451Y-39811D02*
X81469Y-39867D01*
X81469Y-39867D02*
X81476Y-39925D01*
X81476Y-39925D02*
X81477Y-39933D01*
X81477Y-40933D02*
X81471Y-40991D01*
X81471Y-40991D02*
X81454Y-41047D01*
X81454Y-41047D02*
X81426Y-41099D01*
X81426Y-41099D02*
X81389Y-41144D01*
X81389Y-41144D02*
X81344Y-41181D01*
X81344Y-41181D02*
X81293Y-41209D01*
X81293Y-41209D02*
X81237Y-41226D01*
X81237Y-41226D02*
X81179Y-41232D01*
X81179Y-41232D02*
X81121Y-41227D01*
X81121Y-41227D02*
X81065Y-41211D01*
X81065Y-41211D02*
X81013Y-41184D01*
X81013Y-41184D02*
X80968Y-41147D01*
X80968Y-41147D02*
X80930Y-41102D01*
X80930Y-41102D02*
X80902Y-41051D01*
X80902Y-41051D02*
X80884Y-40995D01*
X80884Y-40995D02*
X80878Y-40937D01*
X80878Y-40937D02*
X80882Y-40879D01*
X80882Y-40879D02*
X80899Y-40823D01*
X80899Y-40823D02*
X80925Y-40771D01*
X80925Y-40771D02*
X80962Y-40725D01*
X80962Y-40725D02*
X81006Y-40687D01*
X81006Y-40687D02*
X81057Y-40659D01*
X81057Y-40659D02*
X81113Y-40640D01*
X81113Y-40640D02*
X81171Y-40634D01*
X81171Y-40634D02*
X81229Y-40638D01*
X81229Y-40638D02*
X81285Y-40654D01*
X81285Y-40654D02*
X81337Y-40680D01*
X81337Y-40680D02*
X81383Y-40716D01*
X81383Y-40716D02*
X81422Y-40761D01*
X81422Y-40761D02*
X81451Y-40811D01*
X81451Y-40811D02*
X81469Y-40867D01*
X81469Y-40867D02*
X81476Y-40925D01*
X81476Y-40925D02*
X81477Y-40933D01*
X81477Y-41933D02*
X81471Y-41991D01*
X81471Y-41991D02*
X81454Y-42047D01*
X81454Y-42047D02*
X81426Y-42099D01*
X81426Y-42099D02*
X81389Y-42144D01*
X81389Y-42144D02*
X81344Y-42181D01*
X81344Y-42181D02*
X81293Y-42209D01*
X81293Y-42209D02*
X81237Y-42226D01*
X81237Y-42226D02*
X81179Y-42232D01*
X81179Y-42232D02*
X81121Y-42227D01*
X81121Y-42227D02*
X81065Y-42211D01*
X81065Y-42211D02*
X81013Y-42184D01*
X81013Y-42184D02*
X80968Y-42147D01*
X80968Y-42147D02*
X80930Y-42102D01*
X80930Y-42102D02*
X80902Y-42051D01*
X80902Y-42051D02*
X80884Y-41995D01*
X80884Y-41995D02*
X80878Y-41937D01*
X80878Y-41937D02*
X80882Y-41879D01*
X80882Y-41879D02*
X80899Y-41823D01*
X80899Y-41823D02*
X80925Y-41771D01*
X80925Y-41771D02*
X80962Y-41725D01*
X80962Y-41725D02*
X81006Y-41687D01*
X81006Y-41687D02*
X81057Y-41659D01*
X81057Y-41659D02*
X81113Y-41640D01*
X81113Y-41640D02*
X81171Y-41634D01*
X81171Y-41634D02*
X81229Y-41638D01*
X81229Y-41638D02*
X81285Y-41654D01*
X81285Y-41654D02*
X81337Y-41680D01*
X81337Y-41680D02*
X81383Y-41716D01*
X81383Y-41716D02*
X81422Y-41761D01*
X81422Y-41761D02*
X81451Y-41811D01*
X81451Y-41811D02*
X81469Y-41867D01*
X81469Y-41867D02*
X81476Y-41925D01*
X81476Y-41925D02*
X81477Y-41933D01*
X80902Y-28658D02*
X81452Y-28658D01*
X81452Y-28658D02*
X81452Y-29208D01*
X81452Y-29208D02*
X80902Y-29208D01*
X80902Y-29208D02*
X80902Y-28658D01*
X84477Y-41933D02*
X84471Y-41991D01*
X84471Y-41991D02*
X84454Y-42047D01*
X84454Y-42047D02*
X84426Y-42099D01*
X84426Y-42099D02*
X84389Y-42144D01*
X84389Y-42144D02*
X84344Y-42181D01*
X84344Y-42181D02*
X84293Y-42209D01*
X84293Y-42209D02*
X84237Y-42226D01*
X84237Y-42226D02*
X84179Y-42232D01*
X84179Y-42232D02*
X84121Y-42227D01*
X84121Y-42227D02*
X84065Y-42211D01*
X84065Y-42211D02*
X84013Y-42184D01*
X84013Y-42184D02*
X83968Y-42147D01*
X83968Y-42147D02*
X83930Y-42102D01*
X83930Y-42102D02*
X83902Y-42051D01*
X83902Y-42051D02*
X83884Y-41995D01*
X83884Y-41995D02*
X83878Y-41937D01*
X83878Y-41937D02*
X83882Y-41879D01*
X83882Y-41879D02*
X83899Y-41823D01*
X83899Y-41823D02*
X83925Y-41771D01*
X83925Y-41771D02*
X83962Y-41725D01*
X83962Y-41725D02*
X84006Y-41687D01*
X84006Y-41687D02*
X84057Y-41659D01*
X84057Y-41659D02*
X84113Y-41640D01*
X84113Y-41640D02*
X84171Y-41634D01*
X84171Y-41634D02*
X84229Y-41638D01*
X84229Y-41638D02*
X84285Y-41654D01*
X84285Y-41654D02*
X84337Y-41680D01*
X84337Y-41680D02*
X84383Y-41716D01*
X84383Y-41716D02*
X84422Y-41761D01*
X84422Y-41761D02*
X84451Y-41811D01*
X84451Y-41811D02*
X84469Y-41867D01*
X84469Y-41867D02*
X84476Y-41925D01*
X84476Y-41925D02*
X84477Y-41933D01*
X84477Y-40933D02*
X84471Y-40991D01*
X84471Y-40991D02*
X84454Y-41047D01*
X84454Y-41047D02*
X84426Y-41099D01*
X84426Y-41099D02*
X84389Y-41144D01*
X84389Y-41144D02*
X84344Y-41181D01*
X84344Y-41181D02*
X84293Y-41209D01*
X84293Y-41209D02*
X84237Y-41226D01*
X84237Y-41226D02*
X84179Y-41232D01*
X84179Y-41232D02*
X84121Y-41227D01*
X84121Y-41227D02*
X84065Y-41211D01*
X84065Y-41211D02*
X84013Y-41184D01*
X84013Y-41184D02*
X83968Y-41147D01*
X83968Y-41147D02*
X83930Y-41102D01*
X83930Y-41102D02*
X83902Y-41051D01*
X83902Y-41051D02*
X83884Y-40995D01*
X83884Y-40995D02*
X83878Y-40937D01*
X83878Y-40937D02*
X83882Y-40879D01*
X83882Y-40879D02*
X83899Y-40823D01*
X83899Y-40823D02*
X83925Y-40771D01*
X83925Y-40771D02*
X83962Y-40725D01*
X83962Y-40725D02*
X84006Y-40687D01*
X84006Y-40687D02*
X84057Y-40659D01*
X84057Y-40659D02*
X84113Y-40640D01*
X84113Y-40640D02*
X84171Y-40634D01*
X84171Y-40634D02*
X84229Y-40638D01*
X84229Y-40638D02*
X84285Y-40654D01*
X84285Y-40654D02*
X84337Y-40680D01*
X84337Y-40680D02*
X84383Y-40716D01*
X84383Y-40716D02*
X84422Y-40761D01*
X84422Y-40761D02*
X84451Y-40811D01*
X84451Y-40811D02*
X84469Y-40867D01*
X84469Y-40867D02*
X84476Y-40925D01*
X84476Y-40925D02*
X84477Y-40933D01*
X84477Y-39933D02*
X84471Y-39991D01*
X84471Y-39991D02*
X84454Y-40047D01*
X84454Y-40047D02*
X84426Y-40099D01*
X84426Y-40099D02*
X84389Y-40144D01*
X84389Y-40144D02*
X84344Y-40181D01*
X84344Y-40181D02*
X84293Y-40209D01*
X84293Y-40209D02*
X84237Y-40226D01*
X84237Y-40226D02*
X84179Y-40232D01*
X84179Y-40232D02*
X84121Y-40227D01*
X84121Y-40227D02*
X84065Y-40211D01*
X84065Y-40211D02*
X84013Y-40184D01*
X84013Y-40184D02*
X83968Y-40147D01*
X83968Y-40147D02*
X83930Y-40102D01*
X83930Y-40102D02*
X83902Y-40051D01*
X83902Y-40051D02*
X83884Y-39995D01*
X83884Y-39995D02*
X83878Y-39937D01*
X83878Y-39937D02*
X83882Y-39879D01*
X83882Y-39879D02*
X83899Y-39823D01*
X83899Y-39823D02*
X83925Y-39771D01*
X83925Y-39771D02*
X83962Y-39725D01*
X83962Y-39725D02*
X84006Y-39687D01*
X84006Y-39687D02*
X84057Y-39659D01*
X84057Y-39659D02*
X84113Y-39640D01*
X84113Y-39640D02*
X84171Y-39634D01*
X84171Y-39634D02*
X84229Y-39638D01*
X84229Y-39638D02*
X84285Y-39654D01*
X84285Y-39654D02*
X84337Y-39680D01*
X84337Y-39680D02*
X84383Y-39716D01*
X84383Y-39716D02*
X84422Y-39761D01*
X84422Y-39761D02*
X84451Y-39811D01*
X84451Y-39811D02*
X84469Y-39867D01*
X84469Y-39867D02*
X84476Y-39925D01*
X84476Y-39925D02*
X84477Y-39933D01*
X84477Y-38933D02*
X84471Y-38991D01*
X84471Y-38991D02*
X84454Y-39047D01*
X84454Y-39047D02*
X84426Y-39099D01*
X84426Y-39099D02*
X84389Y-39144D01*
X84389Y-39144D02*
X84344Y-39181D01*
X84344Y-39181D02*
X84293Y-39209D01*
X84293Y-39209D02*
X84237Y-39226D01*
X84237Y-39226D02*
X84179Y-39232D01*
X84179Y-39232D02*
X84121Y-39227D01*
X84121Y-39227D02*
X84065Y-39211D01*
X84065Y-39211D02*
X84013Y-39184D01*
X84013Y-39184D02*
X83968Y-39147D01*
X83968Y-39147D02*
X83930Y-39102D01*
X83930Y-39102D02*
X83902Y-39051D01*
X83902Y-39051D02*
X83884Y-38995D01*
X83884Y-38995D02*
X83878Y-38937D01*
X83878Y-38937D02*
X83882Y-38879D01*
X83882Y-38879D02*
X83899Y-38823D01*
X83899Y-38823D02*
X83925Y-38771D01*
X83925Y-38771D02*
X83962Y-38725D01*
X83962Y-38725D02*
X84006Y-38687D01*
X84006Y-38687D02*
X84057Y-38659D01*
X84057Y-38659D02*
X84113Y-38640D01*
X84113Y-38640D02*
X84171Y-38634D01*
X84171Y-38634D02*
X84229Y-38638D01*
X84229Y-38638D02*
X84285Y-38654D01*
X84285Y-38654D02*
X84337Y-38680D01*
X84337Y-38680D02*
X84383Y-38716D01*
X84383Y-38716D02*
X84422Y-38761D01*
X84422Y-38761D02*
X84451Y-38811D01*
X84451Y-38811D02*
X84469Y-38867D01*
X84469Y-38867D02*
X84476Y-38925D01*
X84476Y-38925D02*
X84477Y-38933D01*
X84477Y-37933D02*
X84471Y-37991D01*
X84471Y-37991D02*
X84454Y-38047D01*
X84454Y-38047D02*
X84426Y-38099D01*
X84426Y-38099D02*
X84389Y-38144D01*
X84389Y-38144D02*
X84344Y-38181D01*
X84344Y-38181D02*
X84293Y-38209D01*
X84293Y-38209D02*
X84237Y-38226D01*
X84237Y-38226D02*
X84179Y-38232D01*
X84179Y-38232D02*
X84121Y-38227D01*
X84121Y-38227D02*
X84065Y-38211D01*
X84065Y-38211D02*
X84013Y-38184D01*
X84013Y-38184D02*
X83968Y-38147D01*
X83968Y-38147D02*
X83930Y-38102D01*
X83930Y-38102D02*
X83902Y-38051D01*
X83902Y-38051D02*
X83884Y-37995D01*
X83884Y-37995D02*
X83878Y-37937D01*
X83878Y-37937D02*
X83882Y-37879D01*
X83882Y-37879D02*
X83899Y-37823D01*
X83899Y-37823D02*
X83925Y-37771D01*
X83925Y-37771D02*
X83962Y-37725D01*
X83962Y-37725D02*
X84006Y-37687D01*
X84006Y-37687D02*
X84057Y-37659D01*
X84057Y-37659D02*
X84113Y-37640D01*
X84113Y-37640D02*
X84171Y-37634D01*
X84171Y-37634D02*
X84229Y-37638D01*
X84229Y-37638D02*
X84285Y-37654D01*
X84285Y-37654D02*
X84337Y-37680D01*
X84337Y-37680D02*
X84383Y-37716D01*
X84383Y-37716D02*
X84422Y-37761D01*
X84422Y-37761D02*
X84451Y-37811D01*
X84451Y-37811D02*
X84469Y-37867D01*
X84469Y-37867D02*
X84476Y-37925D01*
X84476Y-37925D02*
X84477Y-37933D01*
X84477Y-36933D02*
X84471Y-36991D01*
X84471Y-36991D02*
X84454Y-37047D01*
X84454Y-37047D02*
X84426Y-37099D01*
X84426Y-37099D02*
X84389Y-37144D01*
X84389Y-37144D02*
X84344Y-37181D01*
X84344Y-37181D02*
X84293Y-37209D01*
X84293Y-37209D02*
X84237Y-37226D01*
X84237Y-37226D02*
X84179Y-37232D01*
X84179Y-37232D02*
X84121Y-37227D01*
X84121Y-37227D02*
X84065Y-37211D01*
X84065Y-37211D02*
X84013Y-37184D01*
X84013Y-37184D02*
X83968Y-37147D01*
X83968Y-37147D02*
X83930Y-37102D01*
X83930Y-37102D02*
X83902Y-37051D01*
X83902Y-37051D02*
X83884Y-36995D01*
X83884Y-36995D02*
X83878Y-36937D01*
X83878Y-36937D02*
X83882Y-36879D01*
X83882Y-36879D02*
X83899Y-36823D01*
X83899Y-36823D02*
X83925Y-36771D01*
X83925Y-36771D02*
X83962Y-36725D01*
X83962Y-36725D02*
X84006Y-36687D01*
X84006Y-36687D02*
X84057Y-36659D01*
X84057Y-36659D02*
X84113Y-36640D01*
X84113Y-36640D02*
X84171Y-36634D01*
X84171Y-36634D02*
X84229Y-36638D01*
X84229Y-36638D02*
X84285Y-36654D01*
X84285Y-36654D02*
X84337Y-36680D01*
X84337Y-36680D02*
X84383Y-36716D01*
X84383Y-36716D02*
X84422Y-36761D01*
X84422Y-36761D02*
X84451Y-36811D01*
X84451Y-36811D02*
X84469Y-36867D01*
X84469Y-36867D02*
X84476Y-36925D01*
X84476Y-36925D02*
X84477Y-36933D01*
X84477Y-35933D02*
X84471Y-35991D01*
X84471Y-35991D02*
X84454Y-36047D01*
X84454Y-36047D02*
X84426Y-36099D01*
X84426Y-36099D02*
X84389Y-36144D01*
X84389Y-36144D02*
X84344Y-36181D01*
X84344Y-36181D02*
X84293Y-36209D01*
X84293Y-36209D02*
X84237Y-36226D01*
X84237Y-36226D02*
X84179Y-36232D01*
X84179Y-36232D02*
X84121Y-36227D01*
X84121Y-36227D02*
X84065Y-36211D01*
X84065Y-36211D02*
X84013Y-36184D01*
X84013Y-36184D02*
X83968Y-36147D01*
X83968Y-36147D02*
X83930Y-36102D01*
X83930Y-36102D02*
X83902Y-36051D01*
X83902Y-36051D02*
X83884Y-35995D01*
X83884Y-35995D02*
X83878Y-35937D01*
X83878Y-35937D02*
X83882Y-35879D01*
X83882Y-35879D02*
X83899Y-35823D01*
X83899Y-35823D02*
X83925Y-35771D01*
X83925Y-35771D02*
X83962Y-35725D01*
X83962Y-35725D02*
X84006Y-35687D01*
X84006Y-35687D02*
X84057Y-35659D01*
X84057Y-35659D02*
X84113Y-35640D01*
X84113Y-35640D02*
X84171Y-35634D01*
X84171Y-35634D02*
X84229Y-35638D01*
X84229Y-35638D02*
X84285Y-35654D01*
X84285Y-35654D02*
X84337Y-35680D01*
X84337Y-35680D02*
X84383Y-35716D01*
X84383Y-35716D02*
X84422Y-35761D01*
X84422Y-35761D02*
X84451Y-35811D01*
X84451Y-35811D02*
X84469Y-35867D01*
X84469Y-35867D02*
X84476Y-35925D01*
X84476Y-35925D02*
X84477Y-35933D01*
X84477Y-34933D02*
X84471Y-34991D01*
X84471Y-34991D02*
X84454Y-35047D01*
X84454Y-35047D02*
X84426Y-35099D01*
X84426Y-35099D02*
X84389Y-35144D01*
X84389Y-35144D02*
X84344Y-35181D01*
X84344Y-35181D02*
X84293Y-35209D01*
X84293Y-35209D02*
X84237Y-35226D01*
X84237Y-35226D02*
X84179Y-35232D01*
X84179Y-35232D02*
X84121Y-35227D01*
X84121Y-35227D02*
X84065Y-35211D01*
X84065Y-35211D02*
X84013Y-35184D01*
X84013Y-35184D02*
X83968Y-35147D01*
X83968Y-35147D02*
X83930Y-35102D01*
X83930Y-35102D02*
X83902Y-35051D01*
X83902Y-35051D02*
X83884Y-34995D01*
X83884Y-34995D02*
X83878Y-34937D01*
X83878Y-34937D02*
X83882Y-34879D01*
X83882Y-34879D02*
X83899Y-34823D01*
X83899Y-34823D02*
X83925Y-34771D01*
X83925Y-34771D02*
X83962Y-34725D01*
X83962Y-34725D02*
X84006Y-34687D01*
X84006Y-34687D02*
X84057Y-34659D01*
X84057Y-34659D02*
X84113Y-34640D01*
X84113Y-34640D02*
X84171Y-34634D01*
X84171Y-34634D02*
X84229Y-34638D01*
X84229Y-34638D02*
X84285Y-34654D01*
X84285Y-34654D02*
X84337Y-34680D01*
X84337Y-34680D02*
X84383Y-34716D01*
X84383Y-34716D02*
X84422Y-34761D01*
X84422Y-34761D02*
X84451Y-34811D01*
X84451Y-34811D02*
X84469Y-34867D01*
X84469Y-34867D02*
X84476Y-34925D01*
X84476Y-34925D02*
X84477Y-34933D01*
X84477Y-33933D02*
X84471Y-33991D01*
X84471Y-33991D02*
X84454Y-34047D01*
X84454Y-34047D02*
X84426Y-34099D01*
X84426Y-34099D02*
X84389Y-34144D01*
X84389Y-34144D02*
X84344Y-34181D01*
X84344Y-34181D02*
X84293Y-34209D01*
X84293Y-34209D02*
X84237Y-34226D01*
X84237Y-34226D02*
X84179Y-34232D01*
X84179Y-34232D02*
X84121Y-34227D01*
X84121Y-34227D02*
X84065Y-34211D01*
X84065Y-34211D02*
X84013Y-34184D01*
X84013Y-34184D02*
X83968Y-34147D01*
X83968Y-34147D02*
X83930Y-34102D01*
X83930Y-34102D02*
X83902Y-34051D01*
X83902Y-34051D02*
X83884Y-33995D01*
X83884Y-33995D02*
X83878Y-33937D01*
X83878Y-33937D02*
X83882Y-33879D01*
X83882Y-33879D02*
X83899Y-33823D01*
X83899Y-33823D02*
X83925Y-33771D01*
X83925Y-33771D02*
X83962Y-33725D01*
X83962Y-33725D02*
X84006Y-33687D01*
X84006Y-33687D02*
X84057Y-33659D01*
X84057Y-33659D02*
X84113Y-33640D01*
X84113Y-33640D02*
X84171Y-33634D01*
X84171Y-33634D02*
X84229Y-33638D01*
X84229Y-33638D02*
X84285Y-33654D01*
X84285Y-33654D02*
X84337Y-33680D01*
X84337Y-33680D02*
X84383Y-33716D01*
X84383Y-33716D02*
X84422Y-33761D01*
X84422Y-33761D02*
X84451Y-33811D01*
X84451Y-33811D02*
X84469Y-33867D01*
X84469Y-33867D02*
X84476Y-33925D01*
X84476Y-33925D02*
X84477Y-33933D01*
X84477Y-32933D02*
X84471Y-32991D01*
X84471Y-32991D02*
X84454Y-33047D01*
X84454Y-33047D02*
X84426Y-33099D01*
X84426Y-33099D02*
X84389Y-33144D01*
X84389Y-33144D02*
X84344Y-33181D01*
X84344Y-33181D02*
X84293Y-33209D01*
X84293Y-33209D02*
X84237Y-33226D01*
X84237Y-33226D02*
X84179Y-33232D01*
X84179Y-33232D02*
X84121Y-33227D01*
X84121Y-33227D02*
X84065Y-33211D01*
X84065Y-33211D02*
X84013Y-33184D01*
X84013Y-33184D02*
X83968Y-33147D01*
X83968Y-33147D02*
X83930Y-33102D01*
X83930Y-33102D02*
X83902Y-33051D01*
X83902Y-33051D02*
X83884Y-32995D01*
X83884Y-32995D02*
X83878Y-32937D01*
X83878Y-32937D02*
X83882Y-32879D01*
X83882Y-32879D02*
X83899Y-32823D01*
X83899Y-32823D02*
X83925Y-32771D01*
X83925Y-32771D02*
X83962Y-32725D01*
X83962Y-32725D02*
X84006Y-32687D01*
X84006Y-32687D02*
X84057Y-32659D01*
X84057Y-32659D02*
X84113Y-32640D01*
X84113Y-32640D02*
X84171Y-32634D01*
X84171Y-32634D02*
X84229Y-32638D01*
X84229Y-32638D02*
X84285Y-32654D01*
X84285Y-32654D02*
X84337Y-32680D01*
X84337Y-32680D02*
X84383Y-32716D01*
X84383Y-32716D02*
X84422Y-32761D01*
X84422Y-32761D02*
X84451Y-32811D01*
X84451Y-32811D02*
X84469Y-32867D01*
X84469Y-32867D02*
X84476Y-32925D01*
X84476Y-32925D02*
X84477Y-32933D01*
X84477Y-31933D02*
X84471Y-31991D01*
X84471Y-31991D02*
X84454Y-32047D01*
X84454Y-32047D02*
X84426Y-32099D01*
X84426Y-32099D02*
X84389Y-32144D01*
X84389Y-32144D02*
X84344Y-32181D01*
X84344Y-32181D02*
X84293Y-32209D01*
X84293Y-32209D02*
X84237Y-32226D01*
X84237Y-32226D02*
X84179Y-32232D01*
X84179Y-32232D02*
X84121Y-32227D01*
X84121Y-32227D02*
X84065Y-32211D01*
X84065Y-32211D02*
X84013Y-32184D01*
X84013Y-32184D02*
X83968Y-32147D01*
X83968Y-32147D02*
X83930Y-32102D01*
X83930Y-32102D02*
X83902Y-32051D01*
X83902Y-32051D02*
X83884Y-31995D01*
X83884Y-31995D02*
X83878Y-31937D01*
X83878Y-31937D02*
X83882Y-31879D01*
X83882Y-31879D02*
X83899Y-31823D01*
X83899Y-31823D02*
X83925Y-31771D01*
X83925Y-31771D02*
X83962Y-31725D01*
X83962Y-31725D02*
X84006Y-31687D01*
X84006Y-31687D02*
X84057Y-31659D01*
X84057Y-31659D02*
X84113Y-31640D01*
X84113Y-31640D02*
X84171Y-31634D01*
X84171Y-31634D02*
X84229Y-31638D01*
X84229Y-31638D02*
X84285Y-31654D01*
X84285Y-31654D02*
X84337Y-31680D01*
X84337Y-31680D02*
X84383Y-31716D01*
X84383Y-31716D02*
X84422Y-31761D01*
X84422Y-31761D02*
X84451Y-31811D01*
X84451Y-31811D02*
X84469Y-31867D01*
X84469Y-31867D02*
X84476Y-31925D01*
X84476Y-31925D02*
X84477Y-31933D01*
X84477Y-30933D02*
X84471Y-30991D01*
X84471Y-30991D02*
X84454Y-31047D01*
X84454Y-31047D02*
X84426Y-31099D01*
X84426Y-31099D02*
X84389Y-31144D01*
X84389Y-31144D02*
X84344Y-31181D01*
X84344Y-31181D02*
X84293Y-31209D01*
X84293Y-31209D02*
X84237Y-31226D01*
X84237Y-31226D02*
X84179Y-31232D01*
X84179Y-31232D02*
X84121Y-31227D01*
X84121Y-31227D02*
X84065Y-31211D01*
X84065Y-31211D02*
X84013Y-31184D01*
X84013Y-31184D02*
X83968Y-31147D01*
X83968Y-31147D02*
X83930Y-31102D01*
X83930Y-31102D02*
X83902Y-31051D01*
X83902Y-31051D02*
X83884Y-30995D01*
X83884Y-30995D02*
X83878Y-30937D01*
X83878Y-30937D02*
X83882Y-30879D01*
X83882Y-30879D02*
X83899Y-30823D01*
X83899Y-30823D02*
X83925Y-30771D01*
X83925Y-30771D02*
X83962Y-30725D01*
X83962Y-30725D02*
X84006Y-30687D01*
X84006Y-30687D02*
X84057Y-30659D01*
X84057Y-30659D02*
X84113Y-30640D01*
X84113Y-30640D02*
X84171Y-30634D01*
X84171Y-30634D02*
X84229Y-30638D01*
X84229Y-30638D02*
X84285Y-30654D01*
X84285Y-30654D02*
X84337Y-30680D01*
X84337Y-30680D02*
X84383Y-30716D01*
X84383Y-30716D02*
X84422Y-30761D01*
X84422Y-30761D02*
X84451Y-30811D01*
X84451Y-30811D02*
X84469Y-30867D01*
X84469Y-30867D02*
X84476Y-30925D01*
X84476Y-30925D02*
X84477Y-30933D01*
X84477Y-29933D02*
X84471Y-29991D01*
X84471Y-29991D02*
X84454Y-30047D01*
X84454Y-30047D02*
X84426Y-30099D01*
X84426Y-30099D02*
X84389Y-30144D01*
X84389Y-30144D02*
X84344Y-30181D01*
X84344Y-30181D02*
X84293Y-30209D01*
X84293Y-30209D02*
X84237Y-30226D01*
X84237Y-30226D02*
X84179Y-30232D01*
X84179Y-30232D02*
X84121Y-30227D01*
X84121Y-30227D02*
X84065Y-30211D01*
X84065Y-30211D02*
X84013Y-30184D01*
X84013Y-30184D02*
X83968Y-30147D01*
X83968Y-30147D02*
X83930Y-30102D01*
X83930Y-30102D02*
X83902Y-30051D01*
X83902Y-30051D02*
X83884Y-29995D01*
X83884Y-29995D02*
X83878Y-29937D01*
X83878Y-29937D02*
X83882Y-29879D01*
X83882Y-29879D02*
X83899Y-29823D01*
X83899Y-29823D02*
X83925Y-29771D01*
X83925Y-29771D02*
X83962Y-29725D01*
X83962Y-29725D02*
X84006Y-29687D01*
X84006Y-29687D02*
X84057Y-29659D01*
X84057Y-29659D02*
X84113Y-29640D01*
X84113Y-29640D02*
X84171Y-29634D01*
X84171Y-29634D02*
X84229Y-29638D01*
X84229Y-29638D02*
X84285Y-29654D01*
X84285Y-29654D02*
X84337Y-29680D01*
X84337Y-29680D02*
X84383Y-29716D01*
X84383Y-29716D02*
X84422Y-29761D01*
X84422Y-29761D02*
X84451Y-29811D01*
X84451Y-29811D02*
X84469Y-29867D01*
X84469Y-29867D02*
X84476Y-29925D01*
X84476Y-29925D02*
X84477Y-29933D01*
X84477Y-28933D02*
X84471Y-28991D01*
X84471Y-28991D02*
X84454Y-29047D01*
X84454Y-29047D02*
X84426Y-29099D01*
X84426Y-29099D02*
X84389Y-29144D01*
X84389Y-29144D02*
X84344Y-29181D01*
X84344Y-29181D02*
X84293Y-29209D01*
X84293Y-29209D02*
X84237Y-29226D01*
X84237Y-29226D02*
X84179Y-29232D01*
X84179Y-29232D02*
X84121Y-29227D01*
X84121Y-29227D02*
X84065Y-29211D01*
X84065Y-29211D02*
X84013Y-29184D01*
X84013Y-29184D02*
X83968Y-29147D01*
X83968Y-29147D02*
X83930Y-29102D01*
X83930Y-29102D02*
X83902Y-29051D01*
X83902Y-29051D02*
X83884Y-28995D01*
X83884Y-28995D02*
X83878Y-28937D01*
X83878Y-28937D02*
X83882Y-28879D01*
X83882Y-28879D02*
X83899Y-28823D01*
X83899Y-28823D02*
X83925Y-28771D01*
X83925Y-28771D02*
X83962Y-28725D01*
X83962Y-28725D02*
X84006Y-28687D01*
X84006Y-28687D02*
X84057Y-28659D01*
X84057Y-28659D02*
X84113Y-28640D01*
X84113Y-28640D02*
X84171Y-28634D01*
X84171Y-28634D02*
X84229Y-28638D01*
X84229Y-28638D02*
X84285Y-28654D01*
X84285Y-28654D02*
X84337Y-28680D01*
X84337Y-28680D02*
X84383Y-28716D01*
X84383Y-28716D02*
X84422Y-28761D01*
X84422Y-28761D02*
X84451Y-28811D01*
X84451Y-28811D02*
X84469Y-28867D01*
X84469Y-28867D02*
X84476Y-28925D01*
X84476Y-28925D02*
X84477Y-28933D01*
X85192Y-32402D02*
X85192Y-32952D01*
X85192Y-32952D02*
X84642Y-32952D01*
X84642Y-32952D02*
X84642Y-32402D01*
X84642Y-32402D02*
X85192Y-32402D01*
X88217Y-32677D02*
X88211Y-32735D01*
X88211Y-32735D02*
X88194Y-32791D01*
X88194Y-32791D02*
X88166Y-32843D01*
X88166Y-32843D02*
X88129Y-32888D01*
X88129Y-32888D02*
X88084Y-32925D01*
X88084Y-32925D02*
X88033Y-32953D01*
X88033Y-32953D02*
X87977Y-32970D01*
X87977Y-32970D02*
X87919Y-32976D01*
X87919Y-32976D02*
X87861Y-32971D01*
X87861Y-32971D02*
X87805Y-32955D01*
X87805Y-32955D02*
X87753Y-32928D01*
X87753Y-32928D02*
X87708Y-32891D01*
X87708Y-32891D02*
X87670Y-32846D01*
X87670Y-32846D02*
X87642Y-32795D01*
X87642Y-32795D02*
X87624Y-32739D01*
X87624Y-32739D02*
X87618Y-32681D01*
X87618Y-32681D02*
X87622Y-32623D01*
X87622Y-32623D02*
X87639Y-32567D01*
X87639Y-32567D02*
X87665Y-32515D01*
X87665Y-32515D02*
X87702Y-32469D01*
X87702Y-32469D02*
X87746Y-32431D01*
X87746Y-32431D02*
X87797Y-32403D01*
X87797Y-32403D02*
X87853Y-32384D01*
X87853Y-32384D02*
X87911Y-32378D01*
X87911Y-32378D02*
X87969Y-32382D01*
X87969Y-32382D02*
X88025Y-32398D01*
X88025Y-32398D02*
X88077Y-32424D01*
X88077Y-32424D02*
X88123Y-32460D01*
X88123Y-32460D02*
X88162Y-32505D01*
X88162Y-32505D02*
X88191Y-32555D01*
X88191Y-32555D02*
X88209Y-32611D01*
X88209Y-32611D02*
X88216Y-32669D01*
X88216Y-32669D02*
X88217Y-32677D01*
X85192Y-30040D02*
X85192Y-30590D01*
X85192Y-30590D02*
X84642Y-30590D01*
X84642Y-30590D02*
X84642Y-30040D01*
X84642Y-30040D02*
X85192Y-30040D01*
X88217Y-30315D02*
X88211Y-30373D01*
X88211Y-30373D02*
X88194Y-30429D01*
X88194Y-30429D02*
X88166Y-30481D01*
X88166Y-30481D02*
X88129Y-30526D01*
X88129Y-30526D02*
X88084Y-30563D01*
X88084Y-30563D02*
X88033Y-30591D01*
X88033Y-30591D02*
X87977Y-30608D01*
X87977Y-30608D02*
X87919Y-30614D01*
X87919Y-30614D02*
X87861Y-30609D01*
X87861Y-30609D02*
X87805Y-30593D01*
X87805Y-30593D02*
X87753Y-30566D01*
X87753Y-30566D02*
X87708Y-30529D01*
X87708Y-30529D02*
X87670Y-30484D01*
X87670Y-30484D02*
X87642Y-30433D01*
X87642Y-30433D02*
X87624Y-30377D01*
X87624Y-30377D02*
X87618Y-30319D01*
X87618Y-30319D02*
X87622Y-30261D01*
X87622Y-30261D02*
X87639Y-30205D01*
X87639Y-30205D02*
X87665Y-30153D01*
X87665Y-30153D02*
X87702Y-30107D01*
X87702Y-30107D02*
X87746Y-30069D01*
X87746Y-30069D02*
X87797Y-30041D01*
X87797Y-30041D02*
X87853Y-30022D01*
X87853Y-30022D02*
X87911Y-30016D01*
X87911Y-30016D02*
X87969Y-30020D01*
X87969Y-30020D02*
X88025Y-30036D01*
X88025Y-30036D02*
X88077Y-30062D01*
X88077Y-30062D02*
X88123Y-30098D01*
X88123Y-30098D02*
X88162Y-30143D01*
X88162Y-30143D02*
X88191Y-30193D01*
X88191Y-30193D02*
X88209Y-30249D01*
X88209Y-30249D02*
X88216Y-30307D01*
X88216Y-30307D02*
X88217Y-30315D01*
X85192Y-27678D02*
X85192Y-28228D01*
X85192Y-28228D02*
X84642Y-28228D01*
X84642Y-28228D02*
X84642Y-27678D01*
X84642Y-27678D02*
X85192Y-27678D01*
X88217Y-27953D02*
X88211Y-28011D01*
X88211Y-28011D02*
X88194Y-28067D01*
X88194Y-28067D02*
X88166Y-28119D01*
X88166Y-28119D02*
X88129Y-28164D01*
X88129Y-28164D02*
X88084Y-28201D01*
X88084Y-28201D02*
X88033Y-28229D01*
X88033Y-28229D02*
X87977Y-28246D01*
X87977Y-28246D02*
X87919Y-28252D01*
X87919Y-28252D02*
X87861Y-28247D01*
X87861Y-28247D02*
X87805Y-28231D01*
X87805Y-28231D02*
X87753Y-28204D01*
X87753Y-28204D02*
X87708Y-28167D01*
X87708Y-28167D02*
X87670Y-28122D01*
X87670Y-28122D02*
X87642Y-28071D01*
X87642Y-28071D02*
X87624Y-28015D01*
X87624Y-28015D02*
X87618Y-27957D01*
X87618Y-27957D02*
X87622Y-27899D01*
X87622Y-27899D02*
X87639Y-27843D01*
X87639Y-27843D02*
X87665Y-27791D01*
X87665Y-27791D02*
X87702Y-27745D01*
X87702Y-27745D02*
X87746Y-27707D01*
X87746Y-27707D02*
X87797Y-27679D01*
X87797Y-27679D02*
X87853Y-27660D01*
X87853Y-27660D02*
X87911Y-27654D01*
X87911Y-27654D02*
X87969Y-27658D01*
X87969Y-27658D02*
X88025Y-27674D01*
X88025Y-27674D02*
X88077Y-27700D01*
X88077Y-27700D02*
X88123Y-27736D01*
X88123Y-27736D02*
X88162Y-27781D01*
X88162Y-27781D02*
X88191Y-27831D01*
X88191Y-27831D02*
X88209Y-27887D01*
X88209Y-27887D02*
X88216Y-27945D01*
X88216Y-27945D02*
X88217Y-27953D01*
X85192Y-33583D02*
X85192Y-34133D01*
X85192Y-34133D02*
X84642Y-34133D01*
X84642Y-34133D02*
X84642Y-33583D01*
X84642Y-33583D02*
X85192Y-33583D01*
X88217Y-33858D02*
X88211Y-33916D01*
X88211Y-33916D02*
X88194Y-33972D01*
X88194Y-33972D02*
X88166Y-34024D01*
X88166Y-34024D02*
X88129Y-34069D01*
X88129Y-34069D02*
X88084Y-34106D01*
X88084Y-34106D02*
X88033Y-34134D01*
X88033Y-34134D02*
X87977Y-34151D01*
X87977Y-34151D02*
X87919Y-34157D01*
X87919Y-34157D02*
X87861Y-34152D01*
X87861Y-34152D02*
X87805Y-34136D01*
X87805Y-34136D02*
X87753Y-34109D01*
X87753Y-34109D02*
X87708Y-34072D01*
X87708Y-34072D02*
X87670Y-34027D01*
X87670Y-34027D02*
X87642Y-33976D01*
X87642Y-33976D02*
X87624Y-33920D01*
X87624Y-33920D02*
X87618Y-33862D01*
X87618Y-33862D02*
X87622Y-33804D01*
X87622Y-33804D02*
X87639Y-33748D01*
X87639Y-33748D02*
X87665Y-33696D01*
X87665Y-33696D02*
X87702Y-33650D01*
X87702Y-33650D02*
X87746Y-33612D01*
X87746Y-33612D02*
X87797Y-33584D01*
X87797Y-33584D02*
X87853Y-33565D01*
X87853Y-33565D02*
X87911Y-33559D01*
X87911Y-33559D02*
X87969Y-33563D01*
X87969Y-33563D02*
X88025Y-33579D01*
X88025Y-33579D02*
X88077Y-33605D01*
X88077Y-33605D02*
X88123Y-33641D01*
X88123Y-33641D02*
X88162Y-33686D01*
X88162Y-33686D02*
X88191Y-33736D01*
X88191Y-33736D02*
X88209Y-33792D01*
X88209Y-33792D02*
X88216Y-33850D01*
X88216Y-33850D02*
X88217Y-33858D01*
X85192Y-31221D02*
X85192Y-31771D01*
X85192Y-31771D02*
X84642Y-31771D01*
X84642Y-31771D02*
X84642Y-31221D01*
X84642Y-31221D02*
X85192Y-31221D01*
X88217Y-31496D02*
X88211Y-31554D01*
X88211Y-31554D02*
X88194Y-31610D01*
X88194Y-31610D02*
X88166Y-31662D01*
X88166Y-31662D02*
X88129Y-31707D01*
X88129Y-31707D02*
X88084Y-31744D01*
X88084Y-31744D02*
X88033Y-31772D01*
X88033Y-31772D02*
X87977Y-31789D01*
X87977Y-31789D02*
X87919Y-31795D01*
X87919Y-31795D02*
X87861Y-31790D01*
X87861Y-31790D02*
X87805Y-31774D01*
X87805Y-31774D02*
X87753Y-31747D01*
X87753Y-31747D02*
X87708Y-31710D01*
X87708Y-31710D02*
X87670Y-31665D01*
X87670Y-31665D02*
X87642Y-31614D01*
X87642Y-31614D02*
X87624Y-31558D01*
X87624Y-31558D02*
X87618Y-31500D01*
X87618Y-31500D02*
X87622Y-31442D01*
X87622Y-31442D02*
X87639Y-31386D01*
X87639Y-31386D02*
X87665Y-31334D01*
X87665Y-31334D02*
X87702Y-31288D01*
X87702Y-31288D02*
X87746Y-31250D01*
X87746Y-31250D02*
X87797Y-31222D01*
X87797Y-31222D02*
X87853Y-31203D01*
X87853Y-31203D02*
X87911Y-31197D01*
X87911Y-31197D02*
X87969Y-31201D01*
X87969Y-31201D02*
X88025Y-31217D01*
X88025Y-31217D02*
X88077Y-31243D01*
X88077Y-31243D02*
X88123Y-31279D01*
X88123Y-31279D02*
X88162Y-31324D01*
X88162Y-31324D02*
X88191Y-31374D01*
X88191Y-31374D02*
X88209Y-31430D01*
X88209Y-31430D02*
X88216Y-31488D01*
X88216Y-31488D02*
X88217Y-31496D01*
X85192Y-28859D02*
X85192Y-29409D01*
X85192Y-29409D02*
X84642Y-29409D01*
X84642Y-29409D02*
X84642Y-28859D01*
X84642Y-28859D02*
X85192Y-28859D01*
X88217Y-29134D02*
X88211Y-29192D01*
X88211Y-29192D02*
X88194Y-29248D01*
X88194Y-29248D02*
X88166Y-29300D01*
X88166Y-29300D02*
X88129Y-29345D01*
X88129Y-29345D02*
X88084Y-29382D01*
X88084Y-29382D02*
X88033Y-29410D01*
X88033Y-29410D02*
X87977Y-29427D01*
X87977Y-29427D02*
X87919Y-29433D01*
X87919Y-29433D02*
X87861Y-29428D01*
X87861Y-29428D02*
X87805Y-29412D01*
X87805Y-29412D02*
X87753Y-29385D01*
X87753Y-29385D02*
X87708Y-29348D01*
X87708Y-29348D02*
X87670Y-29303D01*
X87670Y-29303D02*
X87642Y-29252D01*
X87642Y-29252D02*
X87624Y-29196D01*
X87624Y-29196D02*
X87618Y-29138D01*
X87618Y-29138D02*
X87622Y-29080D01*
X87622Y-29080D02*
X87639Y-29024D01*
X87639Y-29024D02*
X87665Y-28972D01*
X87665Y-28972D02*
X87702Y-28926D01*
X87702Y-28926D02*
X87746Y-28888D01*
X87746Y-28888D02*
X87797Y-28860D01*
X87797Y-28860D02*
X87853Y-28841D01*
X87853Y-28841D02*
X87911Y-28835D01*
X87911Y-28835D02*
X87969Y-28839D01*
X87969Y-28839D02*
X88025Y-28855D01*
X88025Y-28855D02*
X88077Y-28881D01*
X88077Y-28881D02*
X88123Y-28917D01*
X88123Y-28917D02*
X88162Y-28962D01*
X88162Y-28962D02*
X88191Y-29012D01*
X88191Y-29012D02*
X88209Y-29068D01*
X88209Y-29068D02*
X88216Y-29126D01*
X88216Y-29126D02*
X88217Y-29134D01*
X75866Y-33224D02*
X75316Y-33224D01*
X75316Y-33224D02*
X75316Y-32674D01*
X75316Y-32674D02*
X75866Y-32674D01*
X75866Y-32674D02*
X75866Y-33224D01*
X75891Y-35949D02*
X75885Y-36007D01*
X75885Y-36007D02*
X75868Y-36063D01*
X75868Y-36063D02*
X75840Y-36115D01*
X75840Y-36115D02*
X75803Y-36160D01*
X75803Y-36160D02*
X75758Y-36197D01*
X75758Y-36197D02*
X75707Y-36225D01*
X75707Y-36225D02*
X75651Y-36242D01*
X75651Y-36242D02*
X75593Y-36248D01*
X75593Y-36248D02*
X75535Y-36243D01*
X75535Y-36243D02*
X75479Y-36227D01*
X75479Y-36227D02*
X75427Y-36200D01*
X75427Y-36200D02*
X75382Y-36163D01*
X75382Y-36163D02*
X75344Y-36118D01*
X75344Y-36118D02*
X75316Y-36067D01*
X75316Y-36067D02*
X75298Y-36011D01*
X75298Y-36011D02*
X75292Y-35953D01*
X75292Y-35953D02*
X75296Y-35895D01*
X75296Y-35895D02*
X75313Y-35839D01*
X75313Y-35839D02*
X75339Y-35787D01*
X75339Y-35787D02*
X75376Y-35741D01*
X75376Y-35741D02*
X75420Y-35703D01*
X75420Y-35703D02*
X75471Y-35675D01*
X75471Y-35675D02*
X75527Y-35656D01*
X75527Y-35656D02*
X75585Y-35650D01*
X75585Y-35650D02*
X75643Y-35654D01*
X75643Y-35654D02*
X75699Y-35670D01*
X75699Y-35670D02*
X75751Y-35696D01*
X75751Y-35696D02*
X75797Y-35732D01*
X75797Y-35732D02*
X75836Y-35777D01*
X75836Y-35777D02*
X75865Y-35827D01*
X75865Y-35827D02*
X75883Y-35883D01*
X75883Y-35883D02*
X75890Y-35941D01*
X75890Y-35941D02*
X75891Y-35949D01*
X76850Y-33224D02*
X76300Y-33224D01*
X76300Y-33224D02*
X76300Y-32674D01*
X76300Y-32674D02*
X76850Y-32674D01*
X76850Y-32674D02*
X76850Y-33224D01*
X76875Y-35949D02*
X76869Y-36007D01*
X76869Y-36007D02*
X76852Y-36063D01*
X76852Y-36063D02*
X76824Y-36115D01*
X76824Y-36115D02*
X76787Y-36160D01*
X76787Y-36160D02*
X76742Y-36197D01*
X76742Y-36197D02*
X76691Y-36225D01*
X76691Y-36225D02*
X76635Y-36242D01*
X76635Y-36242D02*
X76577Y-36248D01*
X76577Y-36248D02*
X76519Y-36243D01*
X76519Y-36243D02*
X76463Y-36227D01*
X76463Y-36227D02*
X76411Y-36200D01*
X76411Y-36200D02*
X76366Y-36163D01*
X76366Y-36163D02*
X76328Y-36118D01*
X76328Y-36118D02*
X76300Y-36067D01*
X76300Y-36067D02*
X76282Y-36011D01*
X76282Y-36011D02*
X76276Y-35953D01*
X76276Y-35953D02*
X76280Y-35895D01*
X76280Y-35895D02*
X76297Y-35839D01*
X76297Y-35839D02*
X76323Y-35787D01*
X76323Y-35787D02*
X76360Y-35741D01*
X76360Y-35741D02*
X76404Y-35703D01*
X76404Y-35703D02*
X76455Y-35675D01*
X76455Y-35675D02*
X76511Y-35656D01*
X76511Y-35656D02*
X76569Y-35650D01*
X76569Y-35650D02*
X76627Y-35654D01*
X76627Y-35654D02*
X76683Y-35670D01*
X76683Y-35670D02*
X76735Y-35696D01*
X76735Y-35696D02*
X76781Y-35732D01*
X76781Y-35732D02*
X76820Y-35777D01*
X76820Y-35777D02*
X76849Y-35827D01*
X76849Y-35827D02*
X76867Y-35883D01*
X76867Y-35883D02*
X76874Y-35941D01*
X76874Y-35941D02*
X76875Y-35949D01*
X80737Y-28937D02*
X80731Y-28995D01*
X80731Y-28995D02*
X80714Y-29051D01*
X80714Y-29051D02*
X80686Y-29103D01*
X80686Y-29103D02*
X80649Y-29148D01*
X80649Y-29148D02*
X80604Y-29185D01*
X80604Y-29185D02*
X80553Y-29213D01*
X80553Y-29213D02*
X80497Y-29230D01*
X80497Y-29230D02*
X80439Y-29236D01*
X80439Y-29236D02*
X80381Y-29231D01*
X80381Y-29231D02*
X80325Y-29215D01*
X80325Y-29215D02*
X80273Y-29188D01*
X80273Y-29188D02*
X80228Y-29151D01*
X80228Y-29151D02*
X80190Y-29106D01*
X80190Y-29106D02*
X80162Y-29055D01*
X80162Y-29055D02*
X80144Y-28999D01*
X80144Y-28999D02*
X80138Y-28941D01*
X80138Y-28941D02*
X80142Y-28883D01*
X80142Y-28883D02*
X80159Y-28827D01*
X80159Y-28827D02*
X80185Y-28775D01*
X80185Y-28775D02*
X80222Y-28729D01*
X80222Y-28729D02*
X80266Y-28691D01*
X80266Y-28691D02*
X80317Y-28663D01*
X80317Y-28663D02*
X80373Y-28644D01*
X80373Y-28644D02*
X80431Y-28638D01*
X80431Y-28638D02*
X80489Y-28642D01*
X80489Y-28642D02*
X80545Y-28658D01*
X80545Y-28658D02*
X80597Y-28684D01*
X80597Y-28684D02*
X80643Y-28720D01*
X80643Y-28720D02*
X80682Y-28765D01*
X80682Y-28765D02*
X80711Y-28815D01*
X80711Y-28815D02*
X80729Y-28871D01*
X80729Y-28871D02*
X80736Y-28929D01*
X80736Y-28929D02*
X80737Y-28937D01*
X77737Y-28937D02*
X77731Y-28995D01*
X77731Y-28995D02*
X77714Y-29051D01*
X77714Y-29051D02*
X77686Y-29103D01*
X77686Y-29103D02*
X77649Y-29148D01*
X77649Y-29148D02*
X77604Y-29185D01*
X77604Y-29185D02*
X77553Y-29213D01*
X77553Y-29213D02*
X77497Y-29230D01*
X77497Y-29230D02*
X77439Y-29236D01*
X77439Y-29236D02*
X77381Y-29231D01*
X77381Y-29231D02*
X77325Y-29215D01*
X77325Y-29215D02*
X77273Y-29188D01*
X77273Y-29188D02*
X77228Y-29151D01*
X77228Y-29151D02*
X77190Y-29106D01*
X77190Y-29106D02*
X77162Y-29055D01*
X77162Y-29055D02*
X77144Y-28999D01*
X77144Y-28999D02*
X77138Y-28941D01*
X77138Y-28941D02*
X77142Y-28883D01*
X77142Y-28883D02*
X77159Y-28827D01*
X77159Y-28827D02*
X77185Y-28775D01*
X77185Y-28775D02*
X77222Y-28729D01*
X77222Y-28729D02*
X77266Y-28691D01*
X77266Y-28691D02*
X77317Y-28663D01*
X77317Y-28663D02*
X77373Y-28644D01*
X77373Y-28644D02*
X77431Y-28638D01*
X77431Y-28638D02*
X77489Y-28642D01*
X77489Y-28642D02*
X77545Y-28658D01*
X77545Y-28658D02*
X77597Y-28684D01*
X77597Y-28684D02*
X77643Y-28720D01*
X77643Y-28720D02*
X77682Y-28765D01*
X77682Y-28765D02*
X77711Y-28815D01*
X77711Y-28815D02*
X77729Y-28871D01*
X77729Y-28871D02*
X77736Y-28929D01*
X77736Y-28929D02*
X77737Y-28937D01*
X77540Y-38976D02*
X77534Y-39034D01*
X77534Y-39034D02*
X77517Y-39090D01*
X77517Y-39090D02*
X77489Y-39142D01*
X77489Y-39142D02*
X77452Y-39187D01*
X77452Y-39187D02*
X77407Y-39224D01*
X77407Y-39224D02*
X77356Y-39252D01*
X77356Y-39252D02*
X77300Y-39269D01*
X77300Y-39269D02*
X77242Y-39275D01*
X77242Y-39275D02*
X77184Y-39270D01*
X77184Y-39270D02*
X77128Y-39254D01*
X77128Y-39254D02*
X77076Y-39227D01*
X77076Y-39227D02*
X77031Y-39190D01*
X77031Y-39190D02*
X76993Y-39145D01*
X76993Y-39145D02*
X76965Y-39094D01*
X76965Y-39094D02*
X76947Y-39038D01*
X76947Y-39038D02*
X76941Y-38980D01*
X76941Y-38980D02*
X76945Y-38922D01*
X76945Y-38922D02*
X76962Y-38866D01*
X76962Y-38866D02*
X76988Y-38814D01*
X76988Y-38814D02*
X77025Y-38768D01*
X77025Y-38768D02*
X77069Y-38730D01*
X77069Y-38730D02*
X77120Y-38702D01*
X77120Y-38702D02*
X77176Y-38683D01*
X77176Y-38683D02*
X77234Y-38677D01*
X77234Y-38677D02*
X77292Y-38681D01*
X77292Y-38681D02*
X77348Y-38697D01*
X77348Y-38697D02*
X77400Y-38723D01*
X77400Y-38723D02*
X77446Y-38759D01*
X77446Y-38759D02*
X77485Y-38804D01*
X77485Y-38804D02*
X77514Y-38854D01*
X77514Y-38854D02*
X77532Y-38910D01*
X77532Y-38910D02*
X77539Y-38968D01*
X77539Y-38968D02*
X77540Y-38976D01*
X80540Y-38976D02*
X80534Y-39034D01*
X80534Y-39034D02*
X80517Y-39090D01*
X80517Y-39090D02*
X80489Y-39142D01*
X80489Y-39142D02*
X80452Y-39187D01*
X80452Y-39187D02*
X80407Y-39224D01*
X80407Y-39224D02*
X80356Y-39252D01*
X80356Y-39252D02*
X80300Y-39269D01*
X80300Y-39269D02*
X80242Y-39275D01*
X80242Y-39275D02*
X80184Y-39270D01*
X80184Y-39270D02*
X80128Y-39254D01*
X80128Y-39254D02*
X80076Y-39227D01*
X80076Y-39227D02*
X80031Y-39190D01*
X80031Y-39190D02*
X79993Y-39145D01*
X79993Y-39145D02*
X79965Y-39094D01*
X79965Y-39094D02*
X79947Y-39038D01*
X79947Y-39038D02*
X79941Y-38980D01*
X79941Y-38980D02*
X79945Y-38922D01*
X79945Y-38922D02*
X79962Y-38866D01*
X79962Y-38866D02*
X79988Y-38814D01*
X79988Y-38814D02*
X80025Y-38768D01*
X80025Y-38768D02*
X80069Y-38730D01*
X80069Y-38730D02*
X80120Y-38702D01*
X80120Y-38702D02*
X80176Y-38683D01*
X80176Y-38683D02*
X80234Y-38677D01*
X80234Y-38677D02*
X80292Y-38681D01*
X80292Y-38681D02*
X80348Y-38697D01*
X80348Y-38697D02*
X80400Y-38723D01*
X80400Y-38723D02*
X80446Y-38759D01*
X80446Y-38759D02*
X80485Y-38804D01*
X80485Y-38804D02*
X80514Y-38854D01*
X80514Y-38854D02*
X80532Y-38910D01*
X80532Y-38910D02*
X80539Y-38968D01*
X80539Y-38968D02*
X80540Y-38976D01*
X77540Y-39961D02*
X77534Y-40019D01*
X77534Y-40019D02*
X77517Y-40075D01*
X77517Y-40075D02*
X77489Y-40127D01*
X77489Y-40127D02*
X77452Y-40172D01*
X77452Y-40172D02*
X77407Y-40209D01*
X77407Y-40209D02*
X77356Y-40237D01*
X77356Y-40237D02*
X77300Y-40254D01*
X77300Y-40254D02*
X77242Y-40260D01*
X77242Y-40260D02*
X77184Y-40255D01*
X77184Y-40255D02*
X77128Y-40239D01*
X77128Y-40239D02*
X77076Y-40212D01*
X77076Y-40212D02*
X77031Y-40175D01*
X77031Y-40175D02*
X76993Y-40130D01*
X76993Y-40130D02*
X76965Y-40079D01*
X76965Y-40079D02*
X76947Y-40023D01*
X76947Y-40023D02*
X76941Y-39965D01*
X76941Y-39965D02*
X76945Y-39907D01*
X76945Y-39907D02*
X76962Y-39851D01*
X76962Y-39851D02*
X76988Y-39799D01*
X76988Y-39799D02*
X77025Y-39753D01*
X77025Y-39753D02*
X77069Y-39715D01*
X77069Y-39715D02*
X77120Y-39687D01*
X77120Y-39687D02*
X77176Y-39668D01*
X77176Y-39668D02*
X77234Y-39662D01*
X77234Y-39662D02*
X77292Y-39666D01*
X77292Y-39666D02*
X77348Y-39682D01*
X77348Y-39682D02*
X77400Y-39708D01*
X77400Y-39708D02*
X77446Y-39744D01*
X77446Y-39744D02*
X77485Y-39789D01*
X77485Y-39789D02*
X77514Y-39839D01*
X77514Y-39839D02*
X77532Y-39895D01*
X77532Y-39895D02*
X77539Y-39953D01*
X77539Y-39953D02*
X77540Y-39961D01*
X80540Y-39961D02*
X80534Y-40019D01*
X80534Y-40019D02*
X80517Y-40075D01*
X80517Y-40075D02*
X80489Y-40127D01*
X80489Y-40127D02*
X80452Y-40172D01*
X80452Y-40172D02*
X80407Y-40209D01*
X80407Y-40209D02*
X80356Y-40237D01*
X80356Y-40237D02*
X80300Y-40254D01*
X80300Y-40254D02*
X80242Y-40260D01*
X80242Y-40260D02*
X80184Y-40255D01*
X80184Y-40255D02*
X80128Y-40239D01*
X80128Y-40239D02*
X80076Y-40212D01*
X80076Y-40212D02*
X80031Y-40175D01*
X80031Y-40175D02*
X79993Y-40130D01*
X79993Y-40130D02*
X79965Y-40079D01*
X79965Y-40079D02*
X79947Y-40023D01*
X79947Y-40023D02*
X79941Y-39965D01*
X79941Y-39965D02*
X79945Y-39907D01*
X79945Y-39907D02*
X79962Y-39851D01*
X79962Y-39851D02*
X79988Y-39799D01*
X79988Y-39799D02*
X80025Y-39753D01*
X80025Y-39753D02*
X80069Y-39715D01*
X80069Y-39715D02*
X80120Y-39687D01*
X80120Y-39687D02*
X80176Y-39668D01*
X80176Y-39668D02*
X80234Y-39662D01*
X80234Y-39662D02*
X80292Y-39666D01*
X80292Y-39666D02*
X80348Y-39682D01*
X80348Y-39682D02*
X80400Y-39708D01*
X80400Y-39708D02*
X80446Y-39744D01*
X80446Y-39744D02*
X80485Y-39789D01*
X80485Y-39789D02*
X80514Y-39839D01*
X80514Y-39839D02*
X80532Y-39895D01*
X80532Y-39895D02*
X80539Y-39953D01*
X80539Y-39953D02*
X80540Y-39961D01*
X77540Y-40945D02*
X77534Y-41003D01*
X77534Y-41003D02*
X77517Y-41059D01*
X77517Y-41059D02*
X77489Y-41111D01*
X77489Y-41111D02*
X77452Y-41156D01*
X77452Y-41156D02*
X77407Y-41193D01*
X77407Y-41193D02*
X77356Y-41221D01*
X77356Y-41221D02*
X77300Y-41238D01*
X77300Y-41238D02*
X77242Y-41244D01*
X77242Y-41244D02*
X77184Y-41239D01*
X77184Y-41239D02*
X77128Y-41223D01*
X77128Y-41223D02*
X77076Y-41196D01*
X77076Y-41196D02*
X77031Y-41159D01*
X77031Y-41159D02*
X76993Y-41114D01*
X76993Y-41114D02*
X76965Y-41063D01*
X76965Y-41063D02*
X76947Y-41007D01*
X76947Y-41007D02*
X76941Y-40949D01*
X76941Y-40949D02*
X76945Y-40891D01*
X76945Y-40891D02*
X76962Y-40835D01*
X76962Y-40835D02*
X76988Y-40783D01*
X76988Y-40783D02*
X77025Y-40737D01*
X77025Y-40737D02*
X77069Y-40699D01*
X77069Y-40699D02*
X77120Y-40671D01*
X77120Y-40671D02*
X77176Y-40652D01*
X77176Y-40652D02*
X77234Y-40646D01*
X77234Y-40646D02*
X77292Y-40650D01*
X77292Y-40650D02*
X77348Y-40666D01*
X77348Y-40666D02*
X77400Y-40692D01*
X77400Y-40692D02*
X77446Y-40728D01*
X77446Y-40728D02*
X77485Y-40773D01*
X77485Y-40773D02*
X77514Y-40823D01*
X77514Y-40823D02*
X77532Y-40879D01*
X77532Y-40879D02*
X77539Y-40937D01*
X77539Y-40937D02*
X77540Y-40945D01*
X80540Y-40945D02*
X80534Y-41003D01*
X80534Y-41003D02*
X80517Y-41059D01*
X80517Y-41059D02*
X80489Y-41111D01*
X80489Y-41111D02*
X80452Y-41156D01*
X80452Y-41156D02*
X80407Y-41193D01*
X80407Y-41193D02*
X80356Y-41221D01*
X80356Y-41221D02*
X80300Y-41238D01*
X80300Y-41238D02*
X80242Y-41244D01*
X80242Y-41244D02*
X80184Y-41239D01*
X80184Y-41239D02*
X80128Y-41223D01*
X80128Y-41223D02*
X80076Y-41196D01*
X80076Y-41196D02*
X80031Y-41159D01*
X80031Y-41159D02*
X79993Y-41114D01*
X79993Y-41114D02*
X79965Y-41063D01*
X79965Y-41063D02*
X79947Y-41007D01*
X79947Y-41007D02*
X79941Y-40949D01*
X79941Y-40949D02*
X79945Y-40891D01*
X79945Y-40891D02*
X79962Y-40835D01*
X79962Y-40835D02*
X79988Y-40783D01*
X79988Y-40783D02*
X80025Y-40737D01*
X80025Y-40737D02*
X80069Y-40699D01*
X80069Y-40699D02*
X80120Y-40671D01*
X80120Y-40671D02*
X80176Y-40652D01*
X80176Y-40652D02*
X80234Y-40646D01*
X80234Y-40646D02*
X80292Y-40650D01*
X80292Y-40650D02*
X80348Y-40666D01*
X80348Y-40666D02*
X80400Y-40692D01*
X80400Y-40692D02*
X80446Y-40728D01*
X80446Y-40728D02*
X80485Y-40773D01*
X80485Y-40773D02*
X80514Y-40823D01*
X80514Y-40823D02*
X80532Y-40879D01*
X80532Y-40879D02*
X80539Y-40937D01*
X80539Y-40937D02*
X80540Y-40945D01*
X88414Y-37992D02*
X88408Y-38050D01*
X88408Y-38050D02*
X88391Y-38106D01*
X88391Y-38106D02*
X88363Y-38158D01*
X88363Y-38158D02*
X88326Y-38203D01*
X88326Y-38203D02*
X88281Y-38240D01*
X88281Y-38240D02*
X88230Y-38268D01*
X88230Y-38268D02*
X88174Y-38285D01*
X88174Y-38285D02*
X88116Y-38291D01*
X88116Y-38291D02*
X88058Y-38286D01*
X88058Y-38286D02*
X88002Y-38270D01*
X88002Y-38270D02*
X87950Y-38243D01*
X87950Y-38243D02*
X87905Y-38206D01*
X87905Y-38206D02*
X87867Y-38161D01*
X87867Y-38161D02*
X87839Y-38110D01*
X87839Y-38110D02*
X87821Y-38054D01*
X87821Y-38054D02*
X87815Y-37996D01*
X87815Y-37996D02*
X87819Y-37938D01*
X87819Y-37938D02*
X87836Y-37882D01*
X87836Y-37882D02*
X87862Y-37830D01*
X87862Y-37830D02*
X87899Y-37784D01*
X87899Y-37784D02*
X87943Y-37746D01*
X87943Y-37746D02*
X87994Y-37718D01*
X87994Y-37718D02*
X88050Y-37699D01*
X88050Y-37699D02*
X88108Y-37693D01*
X88108Y-37693D02*
X88166Y-37697D01*
X88166Y-37697D02*
X88222Y-37713D01*
X88222Y-37713D02*
X88274Y-37739D01*
X88274Y-37739D02*
X88320Y-37775D01*
X88320Y-37775D02*
X88359Y-37820D01*
X88359Y-37820D02*
X88388Y-37870D01*
X88388Y-37870D02*
X88406Y-37926D01*
X88406Y-37926D02*
X88413Y-37984D01*
X88413Y-37984D02*
X88414Y-37992D01*
X85414Y-37992D02*
X85408Y-38050D01*
X85408Y-38050D02*
X85391Y-38106D01*
X85391Y-38106D02*
X85363Y-38158D01*
X85363Y-38158D02*
X85326Y-38203D01*
X85326Y-38203D02*
X85281Y-38240D01*
X85281Y-38240D02*
X85230Y-38268D01*
X85230Y-38268D02*
X85174Y-38285D01*
X85174Y-38285D02*
X85116Y-38291D01*
X85116Y-38291D02*
X85058Y-38286D01*
X85058Y-38286D02*
X85002Y-38270D01*
X85002Y-38270D02*
X84950Y-38243D01*
X84950Y-38243D02*
X84905Y-38206D01*
X84905Y-38206D02*
X84867Y-38161D01*
X84867Y-38161D02*
X84839Y-38110D01*
X84839Y-38110D02*
X84821Y-38054D01*
X84821Y-38054D02*
X84815Y-37996D01*
X84815Y-37996D02*
X84819Y-37938D01*
X84819Y-37938D02*
X84836Y-37882D01*
X84836Y-37882D02*
X84862Y-37830D01*
X84862Y-37830D02*
X84899Y-37784D01*
X84899Y-37784D02*
X84943Y-37746D01*
X84943Y-37746D02*
X84994Y-37718D01*
X84994Y-37718D02*
X85050Y-37699D01*
X85050Y-37699D02*
X85108Y-37693D01*
X85108Y-37693D02*
X85166Y-37697D01*
X85166Y-37697D02*
X85222Y-37713D01*
X85222Y-37713D02*
X85274Y-37739D01*
X85274Y-37739D02*
X85320Y-37775D01*
X85320Y-37775D02*
X85359Y-37820D01*
X85359Y-37820D02*
X85388Y-37870D01*
X85388Y-37870D02*
X85406Y-37926D01*
X85406Y-37926D02*
X85413Y-37984D01*
X85413Y-37984D02*
X85414Y-37992D01*
X88414Y-42717D02*
X88408Y-42775D01*
X88408Y-42775D02*
X88391Y-42831D01*
X88391Y-42831D02*
X88363Y-42883D01*
X88363Y-42883D02*
X88326Y-42928D01*
X88326Y-42928D02*
X88281Y-42965D01*
X88281Y-42965D02*
X88230Y-42993D01*
X88230Y-42993D02*
X88174Y-43010D01*
X88174Y-43010D02*
X88116Y-43016D01*
X88116Y-43016D02*
X88058Y-43011D01*
X88058Y-43011D02*
X88002Y-42995D01*
X88002Y-42995D02*
X87950Y-42968D01*
X87950Y-42968D02*
X87905Y-42931D01*
X87905Y-42931D02*
X87867Y-42886D01*
X87867Y-42886D02*
X87839Y-42835D01*
X87839Y-42835D02*
X87821Y-42779D01*
X87821Y-42779D02*
X87815Y-42721D01*
X87815Y-42721D02*
X87819Y-42663D01*
X87819Y-42663D02*
X87836Y-42607D01*
X87836Y-42607D02*
X87862Y-42555D01*
X87862Y-42555D02*
X87899Y-42509D01*
X87899Y-42509D02*
X87943Y-42471D01*
X87943Y-42471D02*
X87994Y-42443D01*
X87994Y-42443D02*
X88050Y-42424D01*
X88050Y-42424D02*
X88108Y-42418D01*
X88108Y-42418D02*
X88166Y-42422D01*
X88166Y-42422D02*
X88222Y-42438D01*
X88222Y-42438D02*
X88274Y-42464D01*
X88274Y-42464D02*
X88320Y-42500D01*
X88320Y-42500D02*
X88359Y-42545D01*
X88359Y-42545D02*
X88388Y-42595D01*
X88388Y-42595D02*
X88406Y-42651D01*
X88406Y-42651D02*
X88413Y-42709D01*
X88413Y-42709D02*
X88414Y-42717D01*
X85414Y-42717D02*
X85408Y-42775D01*
X85408Y-42775D02*
X85391Y-42831D01*
X85391Y-42831D02*
X85363Y-42883D01*
X85363Y-42883D02*
X85326Y-42928D01*
X85326Y-42928D02*
X85281Y-42965D01*
X85281Y-42965D02*
X85230Y-42993D01*
X85230Y-42993D02*
X85174Y-43010D01*
X85174Y-43010D02*
X85116Y-43016D01*
X85116Y-43016D02*
X85058Y-43011D01*
X85058Y-43011D02*
X85002Y-42995D01*
X85002Y-42995D02*
X84950Y-42968D01*
X84950Y-42968D02*
X84905Y-42931D01*
X84905Y-42931D02*
X84867Y-42886D01*
X84867Y-42886D02*
X84839Y-42835D01*
X84839Y-42835D02*
X84821Y-42779D01*
X84821Y-42779D02*
X84815Y-42721D01*
X84815Y-42721D02*
X84819Y-42663D01*
X84819Y-42663D02*
X84836Y-42607D01*
X84836Y-42607D02*
X84862Y-42555D01*
X84862Y-42555D02*
X84899Y-42509D01*
X84899Y-42509D02*
X84943Y-42471D01*
X84943Y-42471D02*
X84994Y-42443D01*
X84994Y-42443D02*
X85050Y-42424D01*
X85050Y-42424D02*
X85108Y-42418D01*
X85108Y-42418D02*
X85166Y-42422D01*
X85166Y-42422D02*
X85222Y-42438D01*
X85222Y-42438D02*
X85274Y-42464D01*
X85274Y-42464D02*
X85320Y-42500D01*
X85320Y-42500D02*
X85359Y-42545D01*
X85359Y-42545D02*
X85388Y-42595D01*
X85388Y-42595D02*
X85406Y-42651D01*
X85406Y-42651D02*
X85413Y-42709D01*
X85413Y-42709D02*
X85414Y-42717D01*
X88414Y-41535D02*
X88408Y-41593D01*
X88408Y-41593D02*
X88391Y-41649D01*
X88391Y-41649D02*
X88363Y-41701D01*
X88363Y-41701D02*
X88326Y-41746D01*
X88326Y-41746D02*
X88281Y-41783D01*
X88281Y-41783D02*
X88230Y-41811D01*
X88230Y-41811D02*
X88174Y-41828D01*
X88174Y-41828D02*
X88116Y-41834D01*
X88116Y-41834D02*
X88058Y-41829D01*
X88058Y-41829D02*
X88002Y-41813D01*
X88002Y-41813D02*
X87950Y-41786D01*
X87950Y-41786D02*
X87905Y-41749D01*
X87905Y-41749D02*
X87867Y-41704D01*
X87867Y-41704D02*
X87839Y-41653D01*
X87839Y-41653D02*
X87821Y-41597D01*
X87821Y-41597D02*
X87815Y-41539D01*
X87815Y-41539D02*
X87819Y-41481D01*
X87819Y-41481D02*
X87836Y-41425D01*
X87836Y-41425D02*
X87862Y-41373D01*
X87862Y-41373D02*
X87899Y-41327D01*
X87899Y-41327D02*
X87943Y-41289D01*
X87943Y-41289D02*
X87994Y-41261D01*
X87994Y-41261D02*
X88050Y-41242D01*
X88050Y-41242D02*
X88108Y-41236D01*
X88108Y-41236D02*
X88166Y-41240D01*
X88166Y-41240D02*
X88222Y-41256D01*
X88222Y-41256D02*
X88274Y-41282D01*
X88274Y-41282D02*
X88320Y-41318D01*
X88320Y-41318D02*
X88359Y-41363D01*
X88359Y-41363D02*
X88388Y-41413D01*
X88388Y-41413D02*
X88406Y-41469D01*
X88406Y-41469D02*
X88413Y-41527D01*
X88413Y-41527D02*
X88414Y-41535D01*
X85414Y-41535D02*
X85408Y-41593D01*
X85408Y-41593D02*
X85391Y-41649D01*
X85391Y-41649D02*
X85363Y-41701D01*
X85363Y-41701D02*
X85326Y-41746D01*
X85326Y-41746D02*
X85281Y-41783D01*
X85281Y-41783D02*
X85230Y-41811D01*
X85230Y-41811D02*
X85174Y-41828D01*
X85174Y-41828D02*
X85116Y-41834D01*
X85116Y-41834D02*
X85058Y-41829D01*
X85058Y-41829D02*
X85002Y-41813D01*
X85002Y-41813D02*
X84950Y-41786D01*
X84950Y-41786D02*
X84905Y-41749D01*
X84905Y-41749D02*
X84867Y-41704D01*
X84867Y-41704D02*
X84839Y-41653D01*
X84839Y-41653D02*
X84821Y-41597D01*
X84821Y-41597D02*
X84815Y-41539D01*
X84815Y-41539D02*
X84819Y-41481D01*
X84819Y-41481D02*
X84836Y-41425D01*
X84836Y-41425D02*
X84862Y-41373D01*
X84862Y-41373D02*
X84899Y-41327D01*
X84899Y-41327D02*
X84943Y-41289D01*
X84943Y-41289D02*
X84994Y-41261D01*
X84994Y-41261D02*
X85050Y-41242D01*
X85050Y-41242D02*
X85108Y-41236D01*
X85108Y-41236D02*
X85166Y-41240D01*
X85166Y-41240D02*
X85222Y-41256D01*
X85222Y-41256D02*
X85274Y-41282D01*
X85274Y-41282D02*
X85320Y-41318D01*
X85320Y-41318D02*
X85359Y-41363D01*
X85359Y-41363D02*
X85388Y-41413D01*
X85388Y-41413D02*
X85406Y-41469D01*
X85406Y-41469D02*
X85413Y-41527D01*
X85413Y-41527D02*
X85414Y-41535D01*
X88414Y-40354D02*
X88408Y-40412D01*
X88408Y-40412D02*
X88391Y-40468D01*
X88391Y-40468D02*
X88363Y-40520D01*
X88363Y-40520D02*
X88326Y-40565D01*
X88326Y-40565D02*
X88281Y-40602D01*
X88281Y-40602D02*
X88230Y-40630D01*
X88230Y-40630D02*
X88174Y-40647D01*
X88174Y-40647D02*
X88116Y-40653D01*
X88116Y-40653D02*
X88058Y-40648D01*
X88058Y-40648D02*
X88002Y-40632D01*
X88002Y-40632D02*
X87950Y-40605D01*
X87950Y-40605D02*
X87905Y-40568D01*
X87905Y-40568D02*
X87867Y-40523D01*
X87867Y-40523D02*
X87839Y-40472D01*
X87839Y-40472D02*
X87821Y-40416D01*
X87821Y-40416D02*
X87815Y-40358D01*
X87815Y-40358D02*
X87819Y-40300D01*
X87819Y-40300D02*
X87836Y-40244D01*
X87836Y-40244D02*
X87862Y-40192D01*
X87862Y-40192D02*
X87899Y-40146D01*
X87899Y-40146D02*
X87943Y-40108D01*
X87943Y-40108D02*
X87994Y-40080D01*
X87994Y-40080D02*
X88050Y-40061D01*
X88050Y-40061D02*
X88108Y-40055D01*
X88108Y-40055D02*
X88166Y-40059D01*
X88166Y-40059D02*
X88222Y-40075D01*
X88222Y-40075D02*
X88274Y-40101D01*
X88274Y-40101D02*
X88320Y-40137D01*
X88320Y-40137D02*
X88359Y-40182D01*
X88359Y-40182D02*
X88388Y-40232D01*
X88388Y-40232D02*
X88406Y-40288D01*
X88406Y-40288D02*
X88413Y-40346D01*
X88413Y-40346D02*
X88414Y-40354D01*
X85414Y-40354D02*
X85408Y-40412D01*
X85408Y-40412D02*
X85391Y-40468D01*
X85391Y-40468D02*
X85363Y-40520D01*
X85363Y-40520D02*
X85326Y-40565D01*
X85326Y-40565D02*
X85281Y-40602D01*
X85281Y-40602D02*
X85230Y-40630D01*
X85230Y-40630D02*
X85174Y-40647D01*
X85174Y-40647D02*
X85116Y-40653D01*
X85116Y-40653D02*
X85058Y-40648D01*
X85058Y-40648D02*
X85002Y-40632D01*
X85002Y-40632D02*
X84950Y-40605D01*
X84950Y-40605D02*
X84905Y-40568D01*
X84905Y-40568D02*
X84867Y-40523D01*
X84867Y-40523D02*
X84839Y-40472D01*
X84839Y-40472D02*
X84821Y-40416D01*
X84821Y-40416D02*
X84815Y-40358D01*
X84815Y-40358D02*
X84819Y-40300D01*
X84819Y-40300D02*
X84836Y-40244D01*
X84836Y-40244D02*
X84862Y-40192D01*
X84862Y-40192D02*
X84899Y-40146D01*
X84899Y-40146D02*
X84943Y-40108D01*
X84943Y-40108D02*
X84994Y-40080D01*
X84994Y-40080D02*
X85050Y-40061D01*
X85050Y-40061D02*
X85108Y-40055D01*
X85108Y-40055D02*
X85166Y-40059D01*
X85166Y-40059D02*
X85222Y-40075D01*
X85222Y-40075D02*
X85274Y-40101D01*
X85274Y-40101D02*
X85320Y-40137D01*
X85320Y-40137D02*
X85359Y-40182D01*
X85359Y-40182D02*
X85388Y-40232D01*
X85388Y-40232D02*
X85406Y-40288D01*
X85406Y-40288D02*
X85413Y-40346D01*
X85413Y-40346D02*
X85414Y-40354D01*
X88414Y-39173D02*
X88408Y-39231D01*
X88408Y-39231D02*
X88391Y-39287D01*
X88391Y-39287D02*
X88363Y-39339D01*
X88363Y-39339D02*
X88326Y-39384D01*
X88326Y-39384D02*
X88281Y-39421D01*
X88281Y-39421D02*
X88230Y-39449D01*
X88230Y-39449D02*
X88174Y-39466D01*
X88174Y-39466D02*
X88116Y-39472D01*
X88116Y-39472D02*
X88058Y-39467D01*
X88058Y-39467D02*
X88002Y-39451D01*
X88002Y-39451D02*
X87950Y-39424D01*
X87950Y-39424D02*
X87905Y-39387D01*
X87905Y-39387D02*
X87867Y-39342D01*
X87867Y-39342D02*
X87839Y-39291D01*
X87839Y-39291D02*
X87821Y-39235D01*
X87821Y-39235D02*
X87815Y-39177D01*
X87815Y-39177D02*
X87819Y-39119D01*
X87819Y-39119D02*
X87836Y-39063D01*
X87836Y-39063D02*
X87862Y-39011D01*
X87862Y-39011D02*
X87899Y-38965D01*
X87899Y-38965D02*
X87943Y-38927D01*
X87943Y-38927D02*
X87994Y-38899D01*
X87994Y-38899D02*
X88050Y-38880D01*
X88050Y-38880D02*
X88108Y-38874D01*
X88108Y-38874D02*
X88166Y-38878D01*
X88166Y-38878D02*
X88222Y-38894D01*
X88222Y-38894D02*
X88274Y-38920D01*
X88274Y-38920D02*
X88320Y-38956D01*
X88320Y-38956D02*
X88359Y-39001D01*
X88359Y-39001D02*
X88388Y-39051D01*
X88388Y-39051D02*
X88406Y-39107D01*
X88406Y-39107D02*
X88413Y-39165D01*
X88413Y-39165D02*
X88414Y-39173D01*
X85414Y-39173D02*
X85408Y-39231D01*
X85408Y-39231D02*
X85391Y-39287D01*
X85391Y-39287D02*
X85363Y-39339D01*
X85363Y-39339D02*
X85326Y-39384D01*
X85326Y-39384D02*
X85281Y-39421D01*
X85281Y-39421D02*
X85230Y-39449D01*
X85230Y-39449D02*
X85174Y-39466D01*
X85174Y-39466D02*
X85116Y-39472D01*
X85116Y-39472D02*
X85058Y-39467D01*
X85058Y-39467D02*
X85002Y-39451D01*
X85002Y-39451D02*
X84950Y-39424D01*
X84950Y-39424D02*
X84905Y-39387D01*
X84905Y-39387D02*
X84867Y-39342D01*
X84867Y-39342D02*
X84839Y-39291D01*
X84839Y-39291D02*
X84821Y-39235D01*
X84821Y-39235D02*
X84815Y-39177D01*
X84815Y-39177D02*
X84819Y-39119D01*
X84819Y-39119D02*
X84836Y-39063D01*
X84836Y-39063D02*
X84862Y-39011D01*
X84862Y-39011D02*
X84899Y-38965D01*
X84899Y-38965D02*
X84943Y-38927D01*
X84943Y-38927D02*
X84994Y-38899D01*
X84994Y-38899D02*
X85050Y-38880D01*
X85050Y-38880D02*
X85108Y-38874D01*
X85108Y-38874D02*
X85166Y-38878D01*
X85166Y-38878D02*
X85222Y-38894D01*
X85222Y-38894D02*
X85274Y-38920D01*
X85274Y-38920D02*
X85320Y-38956D01*
X85320Y-38956D02*
X85359Y-39001D01*
X85359Y-39001D02*
X85388Y-39051D01*
X85388Y-39051D02*
X85406Y-39107D01*
X85406Y-39107D02*
X85413Y-39165D01*
X85413Y-39165D02*
X85414Y-39173D01*
X77737Y-32874D02*
X77731Y-32932D01*
X77731Y-32932D02*
X77714Y-32988D01*
X77714Y-32988D02*
X77686Y-33040D01*
X77686Y-33040D02*
X77649Y-33085D01*
X77649Y-33085D02*
X77604Y-33122D01*
X77604Y-33122D02*
X77553Y-33150D01*
X77553Y-33150D02*
X77497Y-33167D01*
X77497Y-33167D02*
X77439Y-33173D01*
X77439Y-33173D02*
X77381Y-33168D01*
X77381Y-33168D02*
X77325Y-33152D01*
X77325Y-33152D02*
X77273Y-33125D01*
X77273Y-33125D02*
X77228Y-33088D01*
X77228Y-33088D02*
X77190Y-33043D01*
X77190Y-33043D02*
X77162Y-32992D01*
X77162Y-32992D02*
X77144Y-32936D01*
X77144Y-32936D02*
X77138Y-32878D01*
X77138Y-32878D02*
X77142Y-32820D01*
X77142Y-32820D02*
X77159Y-32764D01*
X77159Y-32764D02*
X77185Y-32712D01*
X77185Y-32712D02*
X77222Y-32666D01*
X77222Y-32666D02*
X77266Y-32628D01*
X77266Y-32628D02*
X77317Y-32600D01*
X77317Y-32600D02*
X77373Y-32581D01*
X77373Y-32581D02*
X77431Y-32575D01*
X77431Y-32575D02*
X77489Y-32579D01*
X77489Y-32579D02*
X77545Y-32595D01*
X77545Y-32595D02*
X77597Y-32621D01*
X77597Y-32621D02*
X77643Y-32657D01*
X77643Y-32657D02*
X77682Y-32702D01*
X77682Y-32702D02*
X77711Y-32752D01*
X77711Y-32752D02*
X77729Y-32808D01*
X77729Y-32808D02*
X77736Y-32866D01*
X77736Y-32866D02*
X77737Y-32874D01*
X80737Y-32874D02*
X80731Y-32932D01*
X80731Y-32932D02*
X80714Y-32988D01*
X80714Y-32988D02*
X80686Y-33040D01*
X80686Y-33040D02*
X80649Y-33085D01*
X80649Y-33085D02*
X80604Y-33122D01*
X80604Y-33122D02*
X80553Y-33150D01*
X80553Y-33150D02*
X80497Y-33167D01*
X80497Y-33167D02*
X80439Y-33173D01*
X80439Y-33173D02*
X80381Y-33168D01*
X80381Y-33168D02*
X80325Y-33152D01*
X80325Y-33152D02*
X80273Y-33125D01*
X80273Y-33125D02*
X80228Y-33088D01*
X80228Y-33088D02*
X80190Y-33043D01*
X80190Y-33043D02*
X80162Y-32992D01*
X80162Y-32992D02*
X80144Y-32936D01*
X80144Y-32936D02*
X80138Y-32878D01*
X80138Y-32878D02*
X80142Y-32820D01*
X80142Y-32820D02*
X80159Y-32764D01*
X80159Y-32764D02*
X80185Y-32712D01*
X80185Y-32712D02*
X80222Y-32666D01*
X80222Y-32666D02*
X80266Y-32628D01*
X80266Y-32628D02*
X80317Y-32600D01*
X80317Y-32600D02*
X80373Y-32581D01*
X80373Y-32581D02*
X80431Y-32575D01*
X80431Y-32575D02*
X80489Y-32579D01*
X80489Y-32579D02*
X80545Y-32595D01*
X80545Y-32595D02*
X80597Y-32621D01*
X80597Y-32621D02*
X80643Y-32657D01*
X80643Y-32657D02*
X80682Y-32702D01*
X80682Y-32702D02*
X80711Y-32752D01*
X80711Y-32752D02*
X80729Y-32808D01*
X80729Y-32808D02*
X80736Y-32866D01*
X80736Y-32866D02*
X80737Y-32874D01*
X77737Y-33858D02*
X77731Y-33916D01*
X77731Y-33916D02*
X77714Y-33972D01*
X77714Y-33972D02*
X77686Y-34024D01*
X77686Y-34024D02*
X77649Y-34069D01*
X77649Y-34069D02*
X77604Y-34106D01*
X77604Y-34106D02*
X77553Y-34134D01*
X77553Y-34134D02*
X77497Y-34151D01*
X77497Y-34151D02*
X77439Y-34157D01*
X77439Y-34157D02*
X77381Y-34152D01*
X77381Y-34152D02*
X77325Y-34136D01*
X77325Y-34136D02*
X77273Y-34109D01*
X77273Y-34109D02*
X77228Y-34072D01*
X77228Y-34072D02*
X77190Y-34027D01*
X77190Y-34027D02*
X77162Y-33976D01*
X77162Y-33976D02*
X77144Y-33920D01*
X77144Y-33920D02*
X77138Y-33862D01*
X77138Y-33862D02*
X77142Y-33804D01*
X77142Y-33804D02*
X77159Y-33748D01*
X77159Y-33748D02*
X77185Y-33696D01*
X77185Y-33696D02*
X77222Y-33650D01*
X77222Y-33650D02*
X77266Y-33612D01*
X77266Y-33612D02*
X77317Y-33584D01*
X77317Y-33584D02*
X77373Y-33565D01*
X77373Y-33565D02*
X77431Y-33559D01*
X77431Y-33559D02*
X77489Y-33563D01*
X77489Y-33563D02*
X77545Y-33579D01*
X77545Y-33579D02*
X77597Y-33605D01*
X77597Y-33605D02*
X77643Y-33641D01*
X77643Y-33641D02*
X77682Y-33686D01*
X77682Y-33686D02*
X77711Y-33736D01*
X77711Y-33736D02*
X77729Y-33792D01*
X77729Y-33792D02*
X77736Y-33850D01*
X77736Y-33850D02*
X77737Y-33858D01*
X80737Y-33858D02*
X80731Y-33916D01*
X80731Y-33916D02*
X80714Y-33972D01*
X80714Y-33972D02*
X80686Y-34024D01*
X80686Y-34024D02*
X80649Y-34069D01*
X80649Y-34069D02*
X80604Y-34106D01*
X80604Y-34106D02*
X80553Y-34134D01*
X80553Y-34134D02*
X80497Y-34151D01*
X80497Y-34151D02*
X80439Y-34157D01*
X80439Y-34157D02*
X80381Y-34152D01*
X80381Y-34152D02*
X80325Y-34136D01*
X80325Y-34136D02*
X80273Y-34109D01*
X80273Y-34109D02*
X80228Y-34072D01*
X80228Y-34072D02*
X80190Y-34027D01*
X80190Y-34027D02*
X80162Y-33976D01*
X80162Y-33976D02*
X80144Y-33920D01*
X80144Y-33920D02*
X80138Y-33862D01*
X80138Y-33862D02*
X80142Y-33804D01*
X80142Y-33804D02*
X80159Y-33748D01*
X80159Y-33748D02*
X80185Y-33696D01*
X80185Y-33696D02*
X80222Y-33650D01*
X80222Y-33650D02*
X80266Y-33612D01*
X80266Y-33612D02*
X80317Y-33584D01*
X80317Y-33584D02*
X80373Y-33565D01*
X80373Y-33565D02*
X80431Y-33559D01*
X80431Y-33559D02*
X80489Y-33563D01*
X80489Y-33563D02*
X80545Y-33579D01*
X80545Y-33579D02*
X80597Y-33605D01*
X80597Y-33605D02*
X80643Y-33641D01*
X80643Y-33641D02*
X80682Y-33686D01*
X80682Y-33686D02*
X80711Y-33736D01*
X80711Y-33736D02*
X80729Y-33792D01*
X80729Y-33792D02*
X80736Y-33850D01*
X80736Y-33850D02*
X80737Y-33858D01*
X73725Y-34471D02*
X73719Y-34529D01*
X73719Y-34529D02*
X73702Y-34585D01*
X73702Y-34585D02*
X73674Y-34637D01*
X73674Y-34637D02*
X73637Y-34682D01*
X73637Y-34682D02*
X73592Y-34719D01*
X73592Y-34719D02*
X73541Y-34747D01*
X73541Y-34747D02*
X73485Y-34764D01*
X73485Y-34764D02*
X73427Y-34770D01*
X73427Y-34770D02*
X73369Y-34765D01*
X73369Y-34765D02*
X73313Y-34749D01*
X73313Y-34749D02*
X73261Y-34722D01*
X73261Y-34722D02*
X73216Y-34685D01*
X73216Y-34685D02*
X73178Y-34640D01*
X73178Y-34640D02*
X73150Y-34589D01*
X73150Y-34589D02*
X73132Y-34533D01*
X73132Y-34533D02*
X73126Y-34475D01*
X73126Y-34475D02*
X73130Y-34417D01*
X73130Y-34417D02*
X73147Y-34361D01*
X73147Y-34361D02*
X73173Y-34309D01*
X73173Y-34309D02*
X73210Y-34263D01*
X73210Y-34263D02*
X73254Y-34225D01*
X73254Y-34225D02*
X73305Y-34197D01*
X73305Y-34197D02*
X73361Y-34178D01*
X73361Y-34178D02*
X73419Y-34172D01*
X73419Y-34172D02*
X73477Y-34176D01*
X73477Y-34176D02*
X73533Y-34192D01*
X73533Y-34192D02*
X73585Y-34218D01*
X73585Y-34218D02*
X73631Y-34254D01*
X73631Y-34254D02*
X73670Y-34299D01*
X73670Y-34299D02*
X73699Y-34349D01*
X73699Y-34349D02*
X73717Y-34405D01*
X73717Y-34405D02*
X73724Y-34463D01*
X73724Y-34463D02*
X73725Y-34471D01*
X73725Y-33471D02*
X73719Y-33529D01*
X73719Y-33529D02*
X73702Y-33585D01*
X73702Y-33585D02*
X73674Y-33637D01*
X73674Y-33637D02*
X73637Y-33682D01*
X73637Y-33682D02*
X73592Y-33719D01*
X73592Y-33719D02*
X73541Y-33747D01*
X73541Y-33747D02*
X73485Y-33764D01*
X73485Y-33764D02*
X73427Y-33770D01*
X73427Y-33770D02*
X73369Y-33765D01*
X73369Y-33765D02*
X73313Y-33749D01*
X73313Y-33749D02*
X73261Y-33722D01*
X73261Y-33722D02*
X73216Y-33685D01*
X73216Y-33685D02*
X73178Y-33640D01*
X73178Y-33640D02*
X73150Y-33589D01*
X73150Y-33589D02*
X73132Y-33533D01*
X73132Y-33533D02*
X73126Y-33475D01*
X73126Y-33475D02*
X73130Y-33417D01*
X73130Y-33417D02*
X73147Y-33361D01*
X73147Y-33361D02*
X73173Y-33309D01*
X73173Y-33309D02*
X73210Y-33263D01*
X73210Y-33263D02*
X73254Y-33225D01*
X73254Y-33225D02*
X73305Y-33197D01*
X73305Y-33197D02*
X73361Y-33178D01*
X73361Y-33178D02*
X73419Y-33172D01*
X73419Y-33172D02*
X73477Y-33176D01*
X73477Y-33176D02*
X73533Y-33192D01*
X73533Y-33192D02*
X73585Y-33218D01*
X73585Y-33218D02*
X73631Y-33254D01*
X73631Y-33254D02*
X73670Y-33299D01*
X73670Y-33299D02*
X73699Y-33349D01*
X73699Y-33349D02*
X73717Y-33405D01*
X73717Y-33405D02*
X73724Y-33463D01*
X73724Y-33463D02*
X73725Y-33471D01*
X73725Y-32671D02*
X73719Y-32729D01*
X73719Y-32729D02*
X73702Y-32785D01*
X73702Y-32785D02*
X73674Y-32837D01*
X73674Y-32837D02*
X73637Y-32882D01*
X73637Y-32882D02*
X73592Y-32919D01*
X73592Y-32919D02*
X73541Y-32947D01*
X73541Y-32947D02*
X73485Y-32964D01*
X73485Y-32964D02*
X73427Y-32970D01*
X73427Y-32970D02*
X73369Y-32965D01*
X73369Y-32965D02*
X73313Y-32949D01*
X73313Y-32949D02*
X73261Y-32922D01*
X73261Y-32922D02*
X73216Y-32885D01*
X73216Y-32885D02*
X73178Y-32840D01*
X73178Y-32840D02*
X73150Y-32789D01*
X73150Y-32789D02*
X73132Y-32733D01*
X73132Y-32733D02*
X73126Y-32675D01*
X73126Y-32675D02*
X73130Y-32617D01*
X73130Y-32617D02*
X73147Y-32561D01*
X73147Y-32561D02*
X73173Y-32509D01*
X73173Y-32509D02*
X73210Y-32463D01*
X73210Y-32463D02*
X73254Y-32425D01*
X73254Y-32425D02*
X73305Y-32397D01*
X73305Y-32397D02*
X73361Y-32378D01*
X73361Y-32378D02*
X73419Y-32372D01*
X73419Y-32372D02*
X73477Y-32376D01*
X73477Y-32376D02*
X73533Y-32392D01*
X73533Y-32392D02*
X73585Y-32418D01*
X73585Y-32418D02*
X73631Y-32454D01*
X73631Y-32454D02*
X73670Y-32499D01*
X73670Y-32499D02*
X73699Y-32549D01*
X73699Y-32549D02*
X73717Y-32605D01*
X73717Y-32605D02*
X73724Y-32663D01*
X73724Y-32663D02*
X73725Y-32671D01*
X73725Y-31671D02*
X73719Y-31729D01*
X73719Y-31729D02*
X73702Y-31785D01*
X73702Y-31785D02*
X73674Y-31837D01*
X73674Y-31837D02*
X73637Y-31882D01*
X73637Y-31882D02*
X73592Y-31919D01*
X73592Y-31919D02*
X73541Y-31947D01*
X73541Y-31947D02*
X73485Y-31964D01*
X73485Y-31964D02*
X73427Y-31970D01*
X73427Y-31970D02*
X73369Y-31965D01*
X73369Y-31965D02*
X73313Y-31949D01*
X73313Y-31949D02*
X73261Y-31922D01*
X73261Y-31922D02*
X73216Y-31885D01*
X73216Y-31885D02*
X73178Y-31840D01*
X73178Y-31840D02*
X73150Y-31789D01*
X73150Y-31789D02*
X73132Y-31733D01*
X73132Y-31733D02*
X73126Y-31675D01*
X73126Y-31675D02*
X73130Y-31617D01*
X73130Y-31617D02*
X73147Y-31561D01*
X73147Y-31561D02*
X73173Y-31509D01*
X73173Y-31509D02*
X73210Y-31463D01*
X73210Y-31463D02*
X73254Y-31425D01*
X73254Y-31425D02*
X73305Y-31397D01*
X73305Y-31397D02*
X73361Y-31378D01*
X73361Y-31378D02*
X73419Y-31372D01*
X73419Y-31372D02*
X73477Y-31376D01*
X73477Y-31376D02*
X73533Y-31392D01*
X73533Y-31392D02*
X73585Y-31418D01*
X73585Y-31418D02*
X73631Y-31454D01*
X73631Y-31454D02*
X73670Y-31499D01*
X73670Y-31499D02*
X73699Y-31549D01*
X73699Y-31549D02*
X73717Y-31605D01*
X73717Y-31605D02*
X73724Y-31663D01*
X73724Y-31663D02*
X73725Y-31671D01*
X72675Y-35671D02*
X72669Y-35729D01*
X72669Y-35729D02*
X72652Y-35785D01*
X72652Y-35785D02*
X72624Y-35837D01*
X72624Y-35837D02*
X72587Y-35882D01*
X72587Y-35882D02*
X72542Y-35919D01*
X72542Y-35919D02*
X72491Y-35947D01*
X72491Y-35947D02*
X72435Y-35964D01*
X72435Y-35964D02*
X72377Y-35970D01*
X72377Y-35970D02*
X72319Y-35965D01*
X72319Y-35965D02*
X72263Y-35949D01*
X72263Y-35949D02*
X72211Y-35922D01*
X72211Y-35922D02*
X72166Y-35885D01*
X72166Y-35885D02*
X72128Y-35840D01*
X72128Y-35840D02*
X72100Y-35789D01*
X72100Y-35789D02*
X72082Y-35733D01*
X72082Y-35733D02*
X72076Y-35675D01*
X72076Y-35675D02*
X72080Y-35617D01*
X72080Y-35617D02*
X72097Y-35561D01*
X72097Y-35561D02*
X72123Y-35509D01*
X72123Y-35509D02*
X72160Y-35463D01*
X72160Y-35463D02*
X72204Y-35425D01*
X72204Y-35425D02*
X72255Y-35397D01*
X72255Y-35397D02*
X72311Y-35378D01*
X72311Y-35378D02*
X72369Y-35372D01*
X72369Y-35372D02*
X72427Y-35376D01*
X72427Y-35376D02*
X72483Y-35392D01*
X72483Y-35392D02*
X72535Y-35418D01*
X72535Y-35418D02*
X72581Y-35454D01*
X72581Y-35454D02*
X72620Y-35499D01*
X72620Y-35499D02*
X72649Y-35549D01*
X72649Y-35549D02*
X72667Y-35605D01*
X72667Y-35605D02*
X72674Y-35663D01*
X72674Y-35663D02*
X72675Y-35671D01*
X72675Y-30271D02*
X72669Y-30329D01*
X72669Y-30329D02*
X72652Y-30385D01*
X72652Y-30385D02*
X72624Y-30437D01*
X72624Y-30437D02*
X72587Y-30482D01*
X72587Y-30482D02*
X72542Y-30519D01*
X72542Y-30519D02*
X72491Y-30547D01*
X72491Y-30547D02*
X72435Y-30564D01*
X72435Y-30564D02*
X72377Y-30570D01*
X72377Y-30570D02*
X72319Y-30565D01*
X72319Y-30565D02*
X72263Y-30549D01*
X72263Y-30549D02*
X72211Y-30522D01*
X72211Y-30522D02*
X72166Y-30485D01*
X72166Y-30485D02*
X72128Y-30440D01*
X72128Y-30440D02*
X72100Y-30389D01*
X72100Y-30389D02*
X72082Y-30333D01*
X72082Y-30333D02*
X72076Y-30275D01*
X72076Y-30275D02*
X72080Y-30217D01*
X72080Y-30217D02*
X72097Y-30161D01*
X72097Y-30161D02*
X72123Y-30109D01*
X72123Y-30109D02*
X72160Y-30063D01*
X72160Y-30063D02*
X72204Y-30025D01*
X72204Y-30025D02*
X72255Y-29997D01*
X72255Y-29997D02*
X72311Y-29978D01*
X72311Y-29978D02*
X72369Y-29972D01*
X72369Y-29972D02*
X72427Y-29976D01*
X72427Y-29976D02*
X72483Y-29992D01*
X72483Y-29992D02*
X72535Y-30018D01*
X72535Y-30018D02*
X72581Y-30054D01*
X72581Y-30054D02*
X72620Y-30099D01*
X72620Y-30099D02*
X72649Y-30149D01*
X72649Y-30149D02*
X72667Y-30205D01*
X72667Y-30205D02*
X72674Y-30263D01*
X72674Y-30263D02*
X72675Y-30271D01*
X77737Y-30906D02*
X77731Y-30964D01*
X77731Y-30964D02*
X77714Y-31020D01*
X77714Y-31020D02*
X77686Y-31072D01*
X77686Y-31072D02*
X77649Y-31117D01*
X77649Y-31117D02*
X77604Y-31154D01*
X77604Y-31154D02*
X77553Y-31182D01*
X77553Y-31182D02*
X77497Y-31199D01*
X77497Y-31199D02*
X77439Y-31205D01*
X77439Y-31205D02*
X77381Y-31200D01*
X77381Y-31200D02*
X77325Y-31184D01*
X77325Y-31184D02*
X77273Y-31157D01*
X77273Y-31157D02*
X77228Y-31120D01*
X77228Y-31120D02*
X77190Y-31075D01*
X77190Y-31075D02*
X77162Y-31024D01*
X77162Y-31024D02*
X77144Y-30968D01*
X77144Y-30968D02*
X77138Y-30910D01*
X77138Y-30910D02*
X77142Y-30852D01*
X77142Y-30852D02*
X77159Y-30796D01*
X77159Y-30796D02*
X77185Y-30744D01*
X77185Y-30744D02*
X77222Y-30698D01*
X77222Y-30698D02*
X77266Y-30660D01*
X77266Y-30660D02*
X77317Y-30632D01*
X77317Y-30632D02*
X77373Y-30613D01*
X77373Y-30613D02*
X77431Y-30607D01*
X77431Y-30607D02*
X77489Y-30611D01*
X77489Y-30611D02*
X77545Y-30627D01*
X77545Y-30627D02*
X77597Y-30653D01*
X77597Y-30653D02*
X77643Y-30689D01*
X77643Y-30689D02*
X77682Y-30734D01*
X77682Y-30734D02*
X77711Y-30784D01*
X77711Y-30784D02*
X77729Y-30840D01*
X77729Y-30840D02*
X77736Y-30898D01*
X77736Y-30898D02*
X77737Y-30906D01*
X80737Y-30906D02*
X80731Y-30964D01*
X80731Y-30964D02*
X80714Y-31020D01*
X80714Y-31020D02*
X80686Y-31072D01*
X80686Y-31072D02*
X80649Y-31117D01*
X80649Y-31117D02*
X80604Y-31154D01*
X80604Y-31154D02*
X80553Y-31182D01*
X80553Y-31182D02*
X80497Y-31199D01*
X80497Y-31199D02*
X80439Y-31205D01*
X80439Y-31205D02*
X80381Y-31200D01*
X80381Y-31200D02*
X80325Y-31184D01*
X80325Y-31184D02*
X80273Y-31157D01*
X80273Y-31157D02*
X80228Y-31120D01*
X80228Y-31120D02*
X80190Y-31075D01*
X80190Y-31075D02*
X80162Y-31024D01*
X80162Y-31024D02*
X80144Y-30968D01*
X80144Y-30968D02*
X80138Y-30910D01*
X80138Y-30910D02*
X80142Y-30852D01*
X80142Y-30852D02*
X80159Y-30796D01*
X80159Y-30796D02*
X80185Y-30744D01*
X80185Y-30744D02*
X80222Y-30698D01*
X80222Y-30698D02*
X80266Y-30660D01*
X80266Y-30660D02*
X80317Y-30632D01*
X80317Y-30632D02*
X80373Y-30613D01*
X80373Y-30613D02*
X80431Y-30607D01*
X80431Y-30607D02*
X80489Y-30611D01*
X80489Y-30611D02*
X80545Y-30627D01*
X80545Y-30627D02*
X80597Y-30653D01*
X80597Y-30653D02*
X80643Y-30689D01*
X80643Y-30689D02*
X80682Y-30734D01*
X80682Y-30734D02*
X80711Y-30784D01*
X80711Y-30784D02*
X80729Y-30840D01*
X80729Y-30840D02*
X80736Y-30898D01*
X80736Y-30898D02*
X80737Y-30906D01*
X77737Y-29921D02*
X77731Y-29979D01*
X77731Y-29979D02*
X77714Y-30035D01*
X77714Y-30035D02*
X77686Y-30087D01*
X77686Y-30087D02*
X77649Y-30132D01*
X77649Y-30132D02*
X77604Y-30169D01*
X77604Y-30169D02*
X77553Y-30197D01*
X77553Y-30197D02*
X77497Y-30214D01*
X77497Y-30214D02*
X77439Y-30220D01*
X77439Y-30220D02*
X77381Y-30215D01*
X77381Y-30215D02*
X77325Y-30199D01*
X77325Y-30199D02*
X77273Y-30172D01*
X77273Y-30172D02*
X77228Y-30135D01*
X77228Y-30135D02*
X77190Y-30090D01*
X77190Y-30090D02*
X77162Y-30039D01*
X77162Y-30039D02*
X77144Y-29983D01*
X77144Y-29983D02*
X77138Y-29925D01*
X77138Y-29925D02*
X77142Y-29867D01*
X77142Y-29867D02*
X77159Y-29811D01*
X77159Y-29811D02*
X77185Y-29759D01*
X77185Y-29759D02*
X77222Y-29713D01*
X77222Y-29713D02*
X77266Y-29675D01*
X77266Y-29675D02*
X77317Y-29647D01*
X77317Y-29647D02*
X77373Y-29628D01*
X77373Y-29628D02*
X77431Y-29622D01*
X77431Y-29622D02*
X77489Y-29626D01*
X77489Y-29626D02*
X77545Y-29642D01*
X77545Y-29642D02*
X77597Y-29668D01*
X77597Y-29668D02*
X77643Y-29704D01*
X77643Y-29704D02*
X77682Y-29749D01*
X77682Y-29749D02*
X77711Y-29799D01*
X77711Y-29799D02*
X77729Y-29855D01*
X77729Y-29855D02*
X77736Y-29913D01*
X77736Y-29913D02*
X77737Y-29921D01*
X80737Y-29921D02*
X80731Y-29979D01*
X80731Y-29979D02*
X80714Y-30035D01*
X80714Y-30035D02*
X80686Y-30087D01*
X80686Y-30087D02*
X80649Y-30132D01*
X80649Y-30132D02*
X80604Y-30169D01*
X80604Y-30169D02*
X80553Y-30197D01*
X80553Y-30197D02*
X80497Y-30214D01*
X80497Y-30214D02*
X80439Y-30220D01*
X80439Y-30220D02*
X80381Y-30215D01*
X80381Y-30215D02*
X80325Y-30199D01*
X80325Y-30199D02*
X80273Y-30172D01*
X80273Y-30172D02*
X80228Y-30135D01*
X80228Y-30135D02*
X80190Y-30090D01*
X80190Y-30090D02*
X80162Y-30039D01*
X80162Y-30039D02*
X80144Y-29983D01*
X80144Y-29983D02*
X80138Y-29925D01*
X80138Y-29925D02*
X80142Y-29867D01*
X80142Y-29867D02*
X80159Y-29811D01*
X80159Y-29811D02*
X80185Y-29759D01*
X80185Y-29759D02*
X80222Y-29713D01*
X80222Y-29713D02*
X80266Y-29675D01*
X80266Y-29675D02*
X80317Y-29647D01*
X80317Y-29647D02*
X80373Y-29628D01*
X80373Y-29628D02*
X80431Y-29622D01*
X80431Y-29622D02*
X80489Y-29626D01*
X80489Y-29626D02*
X80545Y-29642D01*
X80545Y-29642D02*
X80597Y-29668D01*
X80597Y-29668D02*
X80643Y-29704D01*
X80643Y-29704D02*
X80682Y-29749D01*
X80682Y-29749D02*
X80711Y-29799D01*
X80711Y-29799D02*
X80729Y-29855D01*
X80729Y-29855D02*
X80736Y-29913D01*
X80736Y-29913D02*
X80737Y-29921D01*
X77737Y-31890D02*
X77731Y-31948D01*
X77731Y-31948D02*
X77714Y-32004D01*
X77714Y-32004D02*
X77686Y-32056D01*
X77686Y-32056D02*
X77649Y-32101D01*
X77649Y-32101D02*
X77604Y-32138D01*
X77604Y-32138D02*
X77553Y-32166D01*
X77553Y-32166D02*
X77497Y-32183D01*
X77497Y-32183D02*
X77439Y-32189D01*
X77439Y-32189D02*
X77381Y-32184D01*
X77381Y-32184D02*
X77325Y-32168D01*
X77325Y-32168D02*
X77273Y-32141D01*
X77273Y-32141D02*
X77228Y-32104D01*
X77228Y-32104D02*
X77190Y-32059D01*
X77190Y-32059D02*
X77162Y-32008D01*
X77162Y-32008D02*
X77144Y-31952D01*
X77144Y-31952D02*
X77138Y-31894D01*
X77138Y-31894D02*
X77142Y-31836D01*
X77142Y-31836D02*
X77159Y-31780D01*
X77159Y-31780D02*
X77185Y-31728D01*
X77185Y-31728D02*
X77222Y-31682D01*
X77222Y-31682D02*
X77266Y-31644D01*
X77266Y-31644D02*
X77317Y-31616D01*
X77317Y-31616D02*
X77373Y-31597D01*
X77373Y-31597D02*
X77431Y-31591D01*
X77431Y-31591D02*
X77489Y-31595D01*
X77489Y-31595D02*
X77545Y-31611D01*
X77545Y-31611D02*
X77597Y-31637D01*
X77597Y-31637D02*
X77643Y-31673D01*
X77643Y-31673D02*
X77682Y-31718D01*
X77682Y-31718D02*
X77711Y-31768D01*
X77711Y-31768D02*
X77729Y-31824D01*
X77729Y-31824D02*
X77736Y-31882D01*
X77736Y-31882D02*
X77737Y-31890D01*
X80737Y-31890D02*
X80731Y-31948D01*
X80731Y-31948D02*
X80714Y-32004D01*
X80714Y-32004D02*
X80686Y-32056D01*
X80686Y-32056D02*
X80649Y-32101D01*
X80649Y-32101D02*
X80604Y-32138D01*
X80604Y-32138D02*
X80553Y-32166D01*
X80553Y-32166D02*
X80497Y-32183D01*
X80497Y-32183D02*
X80439Y-32189D01*
X80439Y-32189D02*
X80381Y-32184D01*
X80381Y-32184D02*
X80325Y-32168D01*
X80325Y-32168D02*
X80273Y-32141D01*
X80273Y-32141D02*
X80228Y-32104D01*
X80228Y-32104D02*
X80190Y-32059D01*
X80190Y-32059D02*
X80162Y-32008D01*
X80162Y-32008D02*
X80144Y-31952D01*
X80144Y-31952D02*
X80138Y-31894D01*
X80138Y-31894D02*
X80142Y-31836D01*
X80142Y-31836D02*
X80159Y-31780D01*
X80159Y-31780D02*
X80185Y-31728D01*
X80185Y-31728D02*
X80222Y-31682D01*
X80222Y-31682D02*
X80266Y-31644D01*
X80266Y-31644D02*
X80317Y-31616D01*
X80317Y-31616D02*
X80373Y-31597D01*
X80373Y-31597D02*
X80431Y-31591D01*
X80431Y-31591D02*
X80489Y-31595D01*
X80489Y-31595D02*
X80545Y-31611D01*
X80545Y-31611D02*
X80597Y-31637D01*
X80597Y-31637D02*
X80643Y-31673D01*
X80643Y-31673D02*
X80682Y-31718D01*
X80682Y-31718D02*
X80711Y-31768D01*
X80711Y-31768D02*
X80729Y-31824D01*
X80729Y-31824D02*
X80736Y-31882D01*
X80736Y-31882D02*
X80737Y-31890D01*
X77540Y-41929D02*
X77534Y-41987D01*
X77534Y-41987D02*
X77517Y-42043D01*
X77517Y-42043D02*
X77489Y-42095D01*
X77489Y-42095D02*
X77452Y-42140D01*
X77452Y-42140D02*
X77407Y-42177D01*
X77407Y-42177D02*
X77356Y-42205D01*
X77356Y-42205D02*
X77300Y-42222D01*
X77300Y-42222D02*
X77242Y-42228D01*
X77242Y-42228D02*
X77184Y-42223D01*
X77184Y-42223D02*
X77128Y-42207D01*
X77128Y-42207D02*
X77076Y-42180D01*
X77076Y-42180D02*
X77031Y-42143D01*
X77031Y-42143D02*
X76993Y-42098D01*
X76993Y-42098D02*
X76965Y-42047D01*
X76965Y-42047D02*
X76947Y-41991D01*
X76947Y-41991D02*
X76941Y-41933D01*
X76941Y-41933D02*
X76945Y-41875D01*
X76945Y-41875D02*
X76962Y-41819D01*
X76962Y-41819D02*
X76988Y-41767D01*
X76988Y-41767D02*
X77025Y-41721D01*
X77025Y-41721D02*
X77069Y-41683D01*
X77069Y-41683D02*
X77120Y-41655D01*
X77120Y-41655D02*
X77176Y-41636D01*
X77176Y-41636D02*
X77234Y-41630D01*
X77234Y-41630D02*
X77292Y-41634D01*
X77292Y-41634D02*
X77348Y-41650D01*
X77348Y-41650D02*
X77400Y-41676D01*
X77400Y-41676D02*
X77446Y-41712D01*
X77446Y-41712D02*
X77485Y-41757D01*
X77485Y-41757D02*
X77514Y-41807D01*
X77514Y-41807D02*
X77532Y-41863D01*
X77532Y-41863D02*
X77539Y-41921D01*
X77539Y-41921D02*
X77540Y-41929D01*
X80540Y-41929D02*
X80534Y-41987D01*
X80534Y-41987D02*
X80517Y-42043D01*
X80517Y-42043D02*
X80489Y-42095D01*
X80489Y-42095D02*
X80452Y-42140D01*
X80452Y-42140D02*
X80407Y-42177D01*
X80407Y-42177D02*
X80356Y-42205D01*
X80356Y-42205D02*
X80300Y-42222D01*
X80300Y-42222D02*
X80242Y-42228D01*
X80242Y-42228D02*
X80184Y-42223D01*
X80184Y-42223D02*
X80128Y-42207D01*
X80128Y-42207D02*
X80076Y-42180D01*
X80076Y-42180D02*
X80031Y-42143D01*
X80031Y-42143D02*
X79993Y-42098D01*
X79993Y-42098D02*
X79965Y-42047D01*
X79965Y-42047D02*
X79947Y-41991D01*
X79947Y-41991D02*
X79941Y-41933D01*
X79941Y-41933D02*
X79945Y-41875D01*
X79945Y-41875D02*
X79962Y-41819D01*
X79962Y-41819D02*
X79988Y-41767D01*
X79988Y-41767D02*
X80025Y-41721D01*
X80025Y-41721D02*
X80069Y-41683D01*
X80069Y-41683D02*
X80120Y-41655D01*
X80120Y-41655D02*
X80176Y-41636D01*
X80176Y-41636D02*
X80234Y-41630D01*
X80234Y-41630D02*
X80292Y-41634D01*
X80292Y-41634D02*
X80348Y-41650D01*
X80348Y-41650D02*
X80400Y-41676D01*
X80400Y-41676D02*
X80446Y-41712D01*
X80446Y-41712D02*
X80485Y-41757D01*
X80485Y-41757D02*
X80514Y-41807D01*
X80514Y-41807D02*
X80532Y-41863D01*
X80532Y-41863D02*
X80539Y-41921D01*
X80539Y-41921D02*
X80540Y-41929D01*
X80499Y-37992D02*
X80493Y-38045D01*
X80493Y-38045D02*
X80478Y-38096D01*
X80478Y-38096D02*
X80453Y-38144D01*
X80453Y-38144D02*
X80419Y-38185D01*
X80419Y-38185D02*
X80377Y-38219D01*
X80377Y-38219D02*
X80330Y-38245D01*
X80330Y-38245D02*
X80279Y-38261D01*
X80279Y-38261D02*
X80225Y-38266D01*
X80225Y-38266D02*
X80173Y-38262D01*
X80173Y-38262D02*
X80121Y-38246D01*
X80121Y-38246D02*
X80074Y-38222D01*
X80074Y-38222D02*
X80032Y-38188D01*
X80032Y-38188D02*
X79998Y-38147D01*
X79998Y-38147D02*
X79972Y-38100D01*
X79972Y-38100D02*
X79956Y-38049D01*
X79956Y-38049D02*
X79950Y-37995D01*
X79950Y-37995D02*
X79954Y-37943D01*
X79954Y-37943D02*
X79969Y-37891D01*
X79969Y-37891D02*
X79993Y-37844D01*
X79993Y-37844D02*
X80027Y-37801D01*
X80027Y-37801D02*
X80068Y-37767D01*
X80068Y-37767D02*
X80114Y-37741D01*
X80114Y-37741D02*
X80165Y-37724D01*
X80165Y-37724D02*
X80219Y-37718D01*
X80219Y-37718D02*
X80271Y-37722D01*
X80271Y-37722D02*
X80323Y-37736D01*
X80323Y-37736D02*
X80371Y-37760D01*
X80371Y-37760D02*
X80413Y-37793D01*
X80413Y-37793D02*
X80448Y-37834D01*
X80448Y-37834D02*
X80475Y-37881D01*
X80475Y-37881D02*
X80492Y-37932D01*
X80492Y-37932D02*
X80498Y-37985D01*
X80498Y-37985D02*
X80499Y-37992D01*
X79499Y-37992D02*
X79493Y-38045D01*
X79493Y-38045D02*
X79478Y-38096D01*
X79478Y-38096D02*
X79453Y-38144D01*
X79453Y-38144D02*
X79419Y-38185D01*
X79419Y-38185D02*
X79377Y-38219D01*
X79377Y-38219D02*
X79330Y-38245D01*
X79330Y-38245D02*
X79279Y-38261D01*
X79279Y-38261D02*
X79225Y-38266D01*
X79225Y-38266D02*
X79173Y-38262D01*
X79173Y-38262D02*
X79121Y-38246D01*
X79121Y-38246D02*
X79074Y-38222D01*
X79074Y-38222D02*
X79032Y-38188D01*
X79032Y-38188D02*
X78998Y-38147D01*
X78998Y-38147D02*
X78972Y-38100D01*
X78972Y-38100D02*
X78956Y-38049D01*
X78956Y-38049D02*
X78950Y-37995D01*
X78950Y-37995D02*
X78954Y-37943D01*
X78954Y-37943D02*
X78969Y-37891D01*
X78969Y-37891D02*
X78993Y-37844D01*
X78993Y-37844D02*
X79027Y-37801D01*
X79027Y-37801D02*
X79068Y-37767D01*
X79068Y-37767D02*
X79114Y-37741D01*
X79114Y-37741D02*
X79165Y-37724D01*
X79165Y-37724D02*
X79219Y-37718D01*
X79219Y-37718D02*
X79271Y-37722D01*
X79271Y-37722D02*
X79323Y-37736D01*
X79323Y-37736D02*
X79371Y-37760D01*
X79371Y-37760D02*
X79413Y-37793D01*
X79413Y-37793D02*
X79448Y-37834D01*
X79448Y-37834D02*
X79475Y-37881D01*
X79475Y-37881D02*
X79492Y-37932D01*
X79492Y-37932D02*
X79498Y-37985D01*
X79498Y-37985D02*
X79499Y-37992D01*
X85118Y-34827D02*
X85112Y-34880D01*
X85112Y-34880D02*
X85097Y-34931D01*
X85097Y-34931D02*
X85072Y-34979D01*
X85072Y-34979D02*
X85038Y-35020D01*
X85038Y-35020D02*
X84996Y-35054D01*
X84996Y-35054D02*
X84949Y-35080D01*
X84949Y-35080D02*
X84898Y-35096D01*
X84898Y-35096D02*
X84844Y-35101D01*
X84844Y-35101D02*
X84792Y-35097D01*
X84792Y-35097D02*
X84740Y-35081D01*
X84740Y-35081D02*
X84693Y-35057D01*
X84693Y-35057D02*
X84651Y-35023D01*
X84651Y-35023D02*
X84617Y-34982D01*
X84617Y-34982D02*
X84591Y-34935D01*
X84591Y-34935D02*
X84575Y-34884D01*
X84575Y-34884D02*
X84569Y-34830D01*
X84569Y-34830D02*
X84573Y-34778D01*
X84573Y-34778D02*
X84588Y-34726D01*
X84588Y-34726D02*
X84612Y-34679D01*
X84612Y-34679D02*
X84646Y-34636D01*
X84646Y-34636D02*
X84687Y-34602D01*
X84687Y-34602D02*
X84733Y-34576D01*
X84733Y-34576D02*
X84784Y-34559D01*
X84784Y-34559D02*
X84838Y-34553D01*
X84838Y-34553D02*
X84890Y-34557D01*
X84890Y-34557D02*
X84942Y-34571D01*
X84942Y-34571D02*
X84990Y-34595D01*
X84990Y-34595D02*
X85032Y-34628D01*
X85032Y-34628D02*
X85067Y-34669D01*
X85067Y-34669D02*
X85094Y-34716D01*
X85094Y-34716D02*
X85111Y-34767D01*
X85111Y-34767D02*
X85117Y-34820D01*
X85117Y-34820D02*
X85118Y-34827D01*
X85118Y-36827D02*
X85112Y-36880D01*
X85112Y-36880D02*
X85097Y-36931D01*
X85097Y-36931D02*
X85072Y-36979D01*
X85072Y-36979D02*
X85038Y-37020D01*
X85038Y-37020D02*
X84996Y-37054D01*
X84996Y-37054D02*
X84949Y-37080D01*
X84949Y-37080D02*
X84898Y-37096D01*
X84898Y-37096D02*
X84844Y-37101D01*
X84844Y-37101D02*
X84792Y-37097D01*
X84792Y-37097D02*
X84740Y-37081D01*
X84740Y-37081D02*
X84693Y-37057D01*
X84693Y-37057D02*
X84651Y-37023D01*
X84651Y-37023D02*
X84617Y-36982D01*
X84617Y-36982D02*
X84591Y-36935D01*
X84591Y-36935D02*
X84575Y-36884D01*
X84575Y-36884D02*
X84569Y-36830D01*
X84569Y-36830D02*
X84573Y-36778D01*
X84573Y-36778D02*
X84588Y-36726D01*
X84588Y-36726D02*
X84612Y-36679D01*
X84612Y-36679D02*
X84646Y-36636D01*
X84646Y-36636D02*
X84687Y-36602D01*
X84687Y-36602D02*
X84733Y-36576D01*
X84733Y-36576D02*
X84784Y-36559D01*
X84784Y-36559D02*
X84838Y-36553D01*
X84838Y-36553D02*
X84890Y-36557D01*
X84890Y-36557D02*
X84942Y-36571D01*
X84942Y-36571D02*
X84990Y-36595D01*
X84990Y-36595D02*
X85032Y-36628D01*
X85032Y-36628D02*
X85067Y-36669D01*
X85067Y-36669D02*
X85094Y-36716D01*
X85094Y-36716D02*
X85111Y-36767D01*
X85111Y-36767D02*
X85117Y-36820D01*
X85117Y-36820D02*
X85118Y-36827D01*
X77737Y-34843D02*
X77731Y-34901D01*
X77731Y-34901D02*
X77714Y-34957D01*
X77714Y-34957D02*
X77686Y-35009D01*
X77686Y-35009D02*
X77649Y-35054D01*
X77649Y-35054D02*
X77604Y-35091D01*
X77604Y-35091D02*
X77553Y-35119D01*
X77553Y-35119D02*
X77497Y-35136D01*
X77497Y-35136D02*
X77439Y-35142D01*
X77439Y-35142D02*
X77381Y-35137D01*
X77381Y-35137D02*
X77325Y-35121D01*
X77325Y-35121D02*
X77273Y-35094D01*
X77273Y-35094D02*
X77228Y-35057D01*
X77228Y-35057D02*
X77190Y-35012D01*
X77190Y-35012D02*
X77162Y-34961D01*
X77162Y-34961D02*
X77144Y-34905D01*
X77144Y-34905D02*
X77138Y-34847D01*
X77138Y-34847D02*
X77142Y-34789D01*
X77142Y-34789D02*
X77159Y-34733D01*
X77159Y-34733D02*
X77185Y-34681D01*
X77185Y-34681D02*
X77222Y-34635D01*
X77222Y-34635D02*
X77266Y-34597D01*
X77266Y-34597D02*
X77317Y-34569D01*
X77317Y-34569D02*
X77373Y-34550D01*
X77373Y-34550D02*
X77431Y-34544D01*
X77431Y-34544D02*
X77489Y-34548D01*
X77489Y-34548D02*
X77545Y-34564D01*
X77545Y-34564D02*
X77597Y-34590D01*
X77597Y-34590D02*
X77643Y-34626D01*
X77643Y-34626D02*
X77682Y-34671D01*
X77682Y-34671D02*
X77711Y-34721D01*
X77711Y-34721D02*
X77729Y-34777D01*
X77729Y-34777D02*
X77736Y-34835D01*
X77736Y-34835D02*
X77737Y-34843D01*
X80737Y-34843D02*
X80731Y-34901D01*
X80731Y-34901D02*
X80714Y-34957D01*
X80714Y-34957D02*
X80686Y-35009D01*
X80686Y-35009D02*
X80649Y-35054D01*
X80649Y-35054D02*
X80604Y-35091D01*
X80604Y-35091D02*
X80553Y-35119D01*
X80553Y-35119D02*
X80497Y-35136D01*
X80497Y-35136D02*
X80439Y-35142D01*
X80439Y-35142D02*
X80381Y-35137D01*
X80381Y-35137D02*
X80325Y-35121D01*
X80325Y-35121D02*
X80273Y-35094D01*
X80273Y-35094D02*
X80228Y-35057D01*
X80228Y-35057D02*
X80190Y-35012D01*
X80190Y-35012D02*
X80162Y-34961D01*
X80162Y-34961D02*
X80144Y-34905D01*
X80144Y-34905D02*
X80138Y-34847D01*
X80138Y-34847D02*
X80142Y-34789D01*
X80142Y-34789D02*
X80159Y-34733D01*
X80159Y-34733D02*
X80185Y-34681D01*
X80185Y-34681D02*
X80222Y-34635D01*
X80222Y-34635D02*
X80266Y-34597D01*
X80266Y-34597D02*
X80317Y-34569D01*
X80317Y-34569D02*
X80373Y-34550D01*
X80373Y-34550D02*
X80431Y-34544D01*
X80431Y-34544D02*
X80489Y-34548D01*
X80489Y-34548D02*
X80545Y-34564D01*
X80545Y-34564D02*
X80597Y-34590D01*
X80597Y-34590D02*
X80643Y-34626D01*
X80643Y-34626D02*
X80682Y-34671D01*
X80682Y-34671D02*
X80711Y-34721D01*
X80711Y-34721D02*
X80729Y-34777D01*
X80729Y-34777D02*
X80736Y-34835D01*
X80736Y-34835D02*
X80737Y-34843D01*
X75906Y-29631D02*
X76456Y-29631D01*
X76456Y-29631D02*
X76456Y-30181D01*
X76456Y-30181D02*
X75906Y-30181D01*
X75906Y-30181D02*
X75906Y-29631D01*
X76456Y-30906D02*
X76450Y-30959D01*
X76450Y-30959D02*
X76435Y-31010D01*
X76435Y-31010D02*
X76410Y-31058D01*
X76410Y-31058D02*
X76376Y-31099D01*
X76376Y-31099D02*
X76334Y-31133D01*
X76334Y-31133D02*
X76287Y-31159D01*
X76287Y-31159D02*
X76236Y-31175D01*
X76236Y-31175D02*
X76182Y-31180D01*
X76182Y-31180D02*
X76130Y-31176D01*
X76130Y-31176D02*
X76078Y-31160D01*
X76078Y-31160D02*
X76031Y-31136D01*
X76031Y-31136D02*
X75989Y-31102D01*
X75989Y-31102D02*
X75955Y-31061D01*
X75955Y-31061D02*
X75929Y-31014D01*
X75929Y-31014D02*
X75913Y-30963D01*
X75913Y-30963D02*
X75907Y-30909D01*
X75907Y-30909D02*
X75911Y-30857D01*
X75911Y-30857D02*
X75926Y-30805D01*
X75926Y-30805D02*
X75950Y-30758D01*
X75950Y-30758D02*
X75984Y-30715D01*
X75984Y-30715D02*
X76025Y-30681D01*
X76025Y-30681D02*
X76071Y-30655D01*
X76071Y-30655D02*
X76122Y-30638D01*
X76122Y-30638D02*
X76176Y-30632D01*
X76176Y-30632D02*
X76228Y-30636D01*
X76228Y-30636D02*
X76280Y-30650D01*
X76280Y-30650D02*
X76328Y-30674D01*
X76328Y-30674D02*
X76370Y-30707D01*
X76370Y-30707D02*
X76405Y-30748D01*
X76405Y-30748D02*
X76432Y-30795D01*
X76432Y-30795D02*
X76449Y-30846D01*
X76449Y-30846D02*
X76455Y-30899D01*
X76455Y-30899D02*
X76456Y-30906D01*
X76456Y-31906D02*
X76450Y-31959D01*
X76450Y-31959D02*
X76435Y-32010D01*
X76435Y-32010D02*
X76410Y-32058D01*
X76410Y-32058D02*
X76376Y-32099D01*
X76376Y-32099D02*
X76334Y-32133D01*
X76334Y-32133D02*
X76287Y-32159D01*
X76287Y-32159D02*
X76236Y-32175D01*
X76236Y-32175D02*
X76182Y-32180D01*
X76182Y-32180D02*
X76130Y-32176D01*
X76130Y-32176D02*
X76078Y-32160D01*
X76078Y-32160D02*
X76031Y-32136D01*
X76031Y-32136D02*
X75989Y-32102D01*
X75989Y-32102D02*
X75955Y-32061D01*
X75955Y-32061D02*
X75929Y-32014D01*
X75929Y-32014D02*
X75913Y-31963D01*
X75913Y-31963D02*
X75907Y-31909D01*
X75907Y-31909D02*
X75911Y-31857D01*
X75911Y-31857D02*
X75926Y-31805D01*
X75926Y-31805D02*
X75950Y-31758D01*
X75950Y-31758D02*
X75984Y-31715D01*
X75984Y-31715D02*
X76025Y-31681D01*
X76025Y-31681D02*
X76071Y-31655D01*
X76071Y-31655D02*
X76122Y-31638D01*
X76122Y-31638D02*
X76176Y-31632D01*
X76176Y-31632D02*
X76228Y-31636D01*
X76228Y-31636D02*
X76280Y-31650D01*
X76280Y-31650D02*
X76328Y-31674D01*
X76328Y-31674D02*
X76370Y-31707D01*
X76370Y-31707D02*
X76405Y-31748D01*
X76405Y-31748D02*
X76432Y-31795D01*
X76432Y-31795D02*
X76449Y-31846D01*
X76449Y-31846D02*
X76455Y-31899D01*
X76455Y-31899D02*
X76456Y-31906D01*
X76103Y-38776D02*
X76653Y-38776D01*
X76653Y-38776D02*
X76653Y-39326D01*
X76653Y-39326D02*
X76103Y-39326D01*
X76103Y-39326D02*
X76103Y-38776D01*
X76653Y-40051D02*
X76647Y-40104D01*
X76647Y-40104D02*
X76632Y-40155D01*
X76632Y-40155D02*
X76607Y-40203D01*
X76607Y-40203D02*
X76573Y-40244D01*
X76573Y-40244D02*
X76531Y-40278D01*
X76531Y-40278D02*
X76484Y-40304D01*
X76484Y-40304D02*
X76433Y-40320D01*
X76433Y-40320D02*
X76379Y-40325D01*
X76379Y-40325D02*
X76327Y-40321D01*
X76327Y-40321D02*
X76275Y-40305D01*
X76275Y-40305D02*
X76228Y-40281D01*
X76228Y-40281D02*
X76186Y-40247D01*
X76186Y-40247D02*
X76152Y-40206D01*
X76152Y-40206D02*
X76126Y-40159D01*
X76126Y-40159D02*
X76110Y-40108D01*
X76110Y-40108D02*
X76104Y-40054D01*
X76104Y-40054D02*
X76108Y-40002D01*
X76108Y-40002D02*
X76123Y-39950D01*
X76123Y-39950D02*
X76147Y-39903D01*
X76147Y-39903D02*
X76181Y-39860D01*
X76181Y-39860D02*
X76222Y-39826D01*
X76222Y-39826D02*
X76268Y-39800D01*
X76268Y-39800D02*
X76319Y-39783D01*
X76319Y-39783D02*
X76373Y-39777D01*
X76373Y-39777D02*
X76425Y-39781D01*
X76425Y-39781D02*
X76477Y-39795D01*
X76477Y-39795D02*
X76525Y-39819D01*
X76525Y-39819D02*
X76567Y-39852D01*
X76567Y-39852D02*
X76602Y-39893D01*
X76602Y-39893D02*
X76629Y-39940D01*
X76629Y-39940D02*
X76646Y-39991D01*
X76646Y-39991D02*
X76652Y-40044D01*
X76652Y-40044D02*
X76653Y-40051D01*
X76653Y-41051D02*
X76647Y-41104D01*
X76647Y-41104D02*
X76632Y-41155D01*
X76632Y-41155D02*
X76607Y-41203D01*
X76607Y-41203D02*
X76573Y-41244D01*
X76573Y-41244D02*
X76531Y-41278D01*
X76531Y-41278D02*
X76484Y-41304D01*
X76484Y-41304D02*
X76433Y-41320D01*
X76433Y-41320D02*
X76379Y-41325D01*
X76379Y-41325D02*
X76327Y-41321D01*
X76327Y-41321D02*
X76275Y-41305D01*
X76275Y-41305D02*
X76228Y-41281D01*
X76228Y-41281D02*
X76186Y-41247D01*
X76186Y-41247D02*
X76152Y-41206D01*
X76152Y-41206D02*
X76126Y-41159D01*
X76126Y-41159D02*
X76110Y-41108D01*
X76110Y-41108D02*
X76104Y-41054D01*
X76104Y-41054D02*
X76108Y-41002D01*
X76108Y-41002D02*
X76123Y-40950D01*
X76123Y-40950D02*
X76147Y-40903D01*
X76147Y-40903D02*
X76181Y-40860D01*
X76181Y-40860D02*
X76222Y-40826D01*
X76222Y-40826D02*
X76268Y-40800D01*
X76268Y-40800D02*
X76319Y-40783D01*
X76319Y-40783D02*
X76373Y-40777D01*
X76373Y-40777D02*
X76425Y-40781D01*
X76425Y-40781D02*
X76477Y-40795D01*
X76477Y-40795D02*
X76525Y-40819D01*
X76525Y-40819D02*
X76567Y-40852D01*
X76567Y-40852D02*
X76602Y-40893D01*
X76602Y-40893D02*
X76629Y-40940D01*
X76629Y-40940D02*
X76646Y-40991D01*
X76646Y-40991D02*
X76652Y-41044D01*
X76652Y-41044D02*
X76653Y-41051D01*
X76653Y-42051D02*
X76647Y-42104D01*
X76647Y-42104D02*
X76632Y-42155D01*
X76632Y-42155D02*
X76607Y-42203D01*
X76607Y-42203D02*
X76573Y-42244D01*
X76573Y-42244D02*
X76531Y-42278D01*
X76531Y-42278D02*
X76484Y-42304D01*
X76484Y-42304D02*
X76433Y-42320D01*
X76433Y-42320D02*
X76379Y-42325D01*
X76379Y-42325D02*
X76327Y-42321D01*
X76327Y-42321D02*
X76275Y-42305D01*
X76275Y-42305D02*
X76228Y-42281D01*
X76228Y-42281D02*
X76186Y-42247D01*
X76186Y-42247D02*
X76152Y-42206D01*
X76152Y-42206D02*
X76126Y-42159D01*
X76126Y-42159D02*
X76110Y-42108D01*
X76110Y-42108D02*
X76104Y-42054D01*
X76104Y-42054D02*
X76108Y-42002D01*
X76108Y-42002D02*
X76123Y-41950D01*
X76123Y-41950D02*
X76147Y-41903D01*
X76147Y-41903D02*
X76181Y-41860D01*
X76181Y-41860D02*
X76222Y-41826D01*
X76222Y-41826D02*
X76268Y-41800D01*
X76268Y-41800D02*
X76319Y-41783D01*
X76319Y-41783D02*
X76373Y-41777D01*
X76373Y-41777D02*
X76425Y-41781D01*
X76425Y-41781D02*
X76477Y-41795D01*
X76477Y-41795D02*
X76525Y-41819D01*
X76525Y-41819D02*
X76567Y-41852D01*
X76567Y-41852D02*
X76602Y-41893D01*
X76602Y-41893D02*
X76629Y-41940D01*
X76629Y-41940D02*
X76646Y-41991D01*
X76646Y-41991D02*
X76652Y-42044D01*
X76652Y-42044D02*
X76653Y-42051D01*
X89645Y-42539D02*
X89095Y-42539D01*
X89095Y-42539D02*
X89095Y-41989D01*
X89095Y-41989D02*
X89645Y-41989D01*
X89645Y-41989D02*
X89645Y-42539D01*
X89670Y-41264D02*
X89664Y-41322D01*
X89664Y-41322D02*
X89647Y-41378D01*
X89647Y-41378D02*
X89619Y-41430D01*
X89619Y-41430D02*
X89582Y-41475D01*
X89582Y-41475D02*
X89537Y-41512D01*
X89537Y-41512D02*
X89486Y-41540D01*
X89486Y-41540D02*
X89430Y-41557D01*
X89430Y-41557D02*
X89372Y-41563D01*
X89372Y-41563D02*
X89314Y-41558D01*
X89314Y-41558D02*
X89258Y-41542D01*
X89258Y-41542D02*
X89206Y-41515D01*
X89206Y-41515D02*
X89161Y-41478D01*
X89161Y-41478D02*
X89123Y-41433D01*
X89123Y-41433D02*
X89095Y-41382D01*
X89095Y-41382D02*
X89077Y-41326D01*
X89077Y-41326D02*
X89071Y-41268D01*
X89071Y-41268D02*
X89075Y-41210D01*
X89075Y-41210D02*
X89092Y-41154D01*
X89092Y-41154D02*
X89118Y-41102D01*
X89118Y-41102D02*
X89155Y-41056D01*
X89155Y-41056D02*
X89199Y-41018D01*
X89199Y-41018D02*
X89250Y-40990D01*
X89250Y-40990D02*
X89306Y-40971D01*
X89306Y-40971D02*
X89364Y-40965D01*
X89364Y-40965D02*
X89422Y-40969D01*
X89422Y-40969D02*
X89478Y-40985D01*
X89478Y-40985D02*
X89530Y-41011D01*
X89530Y-41011D02*
X89576Y-41047D01*
X89576Y-41047D02*
X89615Y-41092D01*
X89615Y-41092D02*
X89644Y-41142D01*
X89644Y-41142D02*
X89662Y-41198D01*
X89662Y-41198D02*
X89669Y-41256D01*
X89669Y-41256D02*
X89670Y-41264D01*
X89670Y-40264D02*
X89664Y-40322D01*
X89664Y-40322D02*
X89647Y-40378D01*
X89647Y-40378D02*
X89619Y-40430D01*
X89619Y-40430D02*
X89582Y-40475D01*
X89582Y-40475D02*
X89537Y-40512D01*
X89537Y-40512D02*
X89486Y-40540D01*
X89486Y-40540D02*
X89430Y-40557D01*
X89430Y-40557D02*
X89372Y-40563D01*
X89372Y-40563D02*
X89314Y-40558D01*
X89314Y-40558D02*
X89258Y-40542D01*
X89258Y-40542D02*
X89206Y-40515D01*
X89206Y-40515D02*
X89161Y-40478D01*
X89161Y-40478D02*
X89123Y-40433D01*
X89123Y-40433D02*
X89095Y-40382D01*
X89095Y-40382D02*
X89077Y-40326D01*
X89077Y-40326D02*
X89071Y-40268D01*
X89071Y-40268D02*
X89075Y-40210D01*
X89075Y-40210D02*
X89092Y-40154D01*
X89092Y-40154D02*
X89118Y-40102D01*
X89118Y-40102D02*
X89155Y-40056D01*
X89155Y-40056D02*
X89199Y-40018D01*
X89199Y-40018D02*
X89250Y-39990D01*
X89250Y-39990D02*
X89306Y-39971D01*
X89306Y-39971D02*
X89364Y-39965D01*
X89364Y-39965D02*
X89422Y-39969D01*
X89422Y-39969D02*
X89478Y-39985D01*
X89478Y-39985D02*
X89530Y-40011D01*
X89530Y-40011D02*
X89576Y-40047D01*
X89576Y-40047D02*
X89615Y-40092D01*
X89615Y-40092D02*
X89644Y-40142D01*
X89644Y-40142D02*
X89662Y-40198D01*
X89662Y-40198D02*
X89669Y-40256D01*
X89669Y-40256D02*
X89670Y-40264D01*
X89670Y-39264D02*
X89664Y-39322D01*
X89664Y-39322D02*
X89647Y-39378D01*
X89647Y-39378D02*
X89619Y-39430D01*
X89619Y-39430D02*
X89582Y-39475D01*
X89582Y-39475D02*
X89537Y-39512D01*
X89537Y-39512D02*
X89486Y-39540D01*
X89486Y-39540D02*
X89430Y-39557D01*
X89430Y-39557D02*
X89372Y-39563D01*
X89372Y-39563D02*
X89314Y-39558D01*
X89314Y-39558D02*
X89258Y-39542D01*
X89258Y-39542D02*
X89206Y-39515D01*
X89206Y-39515D02*
X89161Y-39478D01*
X89161Y-39478D02*
X89123Y-39433D01*
X89123Y-39433D02*
X89095Y-39382D01*
X89095Y-39382D02*
X89077Y-39326D01*
X89077Y-39326D02*
X89071Y-39268D01*
X89071Y-39268D02*
X89075Y-39210D01*
X89075Y-39210D02*
X89092Y-39154D01*
X89092Y-39154D02*
X89118Y-39102D01*
X89118Y-39102D02*
X89155Y-39056D01*
X89155Y-39056D02*
X89199Y-39018D01*
X89199Y-39018D02*
X89250Y-38990D01*
X89250Y-38990D02*
X89306Y-38971D01*
X89306Y-38971D02*
X89364Y-38965D01*
X89364Y-38965D02*
X89422Y-38969D01*
X89422Y-38969D02*
X89478Y-38985D01*
X89478Y-38985D02*
X89530Y-39011D01*
X89530Y-39011D02*
X89576Y-39047D01*
X89576Y-39047D02*
X89615Y-39092D01*
X89615Y-39092D02*
X89644Y-39142D01*
X89644Y-39142D02*
X89662Y-39198D01*
X89662Y-39198D02*
X89669Y-39256D01*
X89669Y-39256D02*
X89670Y-39264D01*
X89670Y-38264D02*
X89664Y-38322D01*
X89664Y-38322D02*
X89647Y-38378D01*
X89647Y-38378D02*
X89619Y-38430D01*
X89619Y-38430D02*
X89582Y-38475D01*
X89582Y-38475D02*
X89537Y-38512D01*
X89537Y-38512D02*
X89486Y-38540D01*
X89486Y-38540D02*
X89430Y-38557D01*
X89430Y-38557D02*
X89372Y-38563D01*
X89372Y-38563D02*
X89314Y-38558D01*
X89314Y-38558D02*
X89258Y-38542D01*
X89258Y-38542D02*
X89206Y-38515D01*
X89206Y-38515D02*
X89161Y-38478D01*
X89161Y-38478D02*
X89123Y-38433D01*
X89123Y-38433D02*
X89095Y-38382D01*
X89095Y-38382D02*
X89077Y-38326D01*
X89077Y-38326D02*
X89071Y-38268D01*
X89071Y-38268D02*
X89075Y-38210D01*
X89075Y-38210D02*
X89092Y-38154D01*
X89092Y-38154D02*
X89118Y-38102D01*
X89118Y-38102D02*
X89155Y-38056D01*
X89155Y-38056D02*
X89199Y-38018D01*
X89199Y-38018D02*
X89250Y-37990D01*
X89250Y-37990D02*
X89306Y-37971D01*
X89306Y-37971D02*
X89364Y-37965D01*
X89364Y-37965D02*
X89422Y-37969D01*
X89422Y-37969D02*
X89478Y-37985D01*
X89478Y-37985D02*
X89530Y-38011D01*
X89530Y-38011D02*
X89576Y-38047D01*
X89576Y-38047D02*
X89615Y-38092D01*
X89615Y-38092D02*
X89644Y-38142D01*
X89644Y-38142D02*
X89662Y-38198D01*
X89662Y-38198D02*
X89669Y-38256D01*
X89669Y-38256D02*
X89670Y-38264D01*
X89448Y-33287D02*
X88898Y-33287D01*
X88898Y-33287D02*
X88898Y-32737D01*
X88898Y-32737D02*
X89448Y-32737D01*
X89448Y-32737D02*
X89448Y-33287D01*
X89473Y-32012D02*
X89467Y-32070D01*
X89467Y-32070D02*
X89450Y-32126D01*
X89450Y-32126D02*
X89422Y-32178D01*
X89422Y-32178D02*
X89385Y-32223D01*
X89385Y-32223D02*
X89340Y-32260D01*
X89340Y-32260D02*
X89289Y-32288D01*
X89289Y-32288D02*
X89233Y-32305D01*
X89233Y-32305D02*
X89175Y-32311D01*
X89175Y-32311D02*
X89117Y-32306D01*
X89117Y-32306D02*
X89061Y-32290D01*
X89061Y-32290D02*
X89009Y-32263D01*
X89009Y-32263D02*
X88964Y-32226D01*
X88964Y-32226D02*
X88926Y-32181D01*
X88926Y-32181D02*
X88898Y-32130D01*
X88898Y-32130D02*
X88880Y-32074D01*
X88880Y-32074D02*
X88874Y-32016D01*
X88874Y-32016D02*
X88878Y-31958D01*
X88878Y-31958D02*
X88895Y-31902D01*
X88895Y-31902D02*
X88921Y-31850D01*
X88921Y-31850D02*
X88958Y-31804D01*
X88958Y-31804D02*
X89002Y-31766D01*
X89002Y-31766D02*
X89053Y-31738D01*
X89053Y-31738D02*
X89109Y-31719D01*
X89109Y-31719D02*
X89167Y-31713D01*
X89167Y-31713D02*
X89225Y-31717D01*
X89225Y-31717D02*
X89281Y-31733D01*
X89281Y-31733D02*
X89333Y-31759D01*
X89333Y-31759D02*
X89379Y-31795D01*
X89379Y-31795D02*
X89418Y-31840D01*
X89418Y-31840D02*
X89447Y-31890D01*
X89447Y-31890D02*
X89465Y-31946D01*
X89465Y-31946D02*
X89472Y-32004D01*
X89472Y-32004D02*
X89473Y-32012D01*
X89473Y-31012D02*
X89467Y-31070D01*
X89467Y-31070D02*
X89450Y-31126D01*
X89450Y-31126D02*
X89422Y-31178D01*
X89422Y-31178D02*
X89385Y-31223D01*
X89385Y-31223D02*
X89340Y-31260D01*
X89340Y-31260D02*
X89289Y-31288D01*
X89289Y-31288D02*
X89233Y-31305D01*
X89233Y-31305D02*
X89175Y-31311D01*
X89175Y-31311D02*
X89117Y-31306D01*
X89117Y-31306D02*
X89061Y-31290D01*
X89061Y-31290D02*
X89009Y-31263D01*
X89009Y-31263D02*
X88964Y-31226D01*
X88964Y-31226D02*
X88926Y-31181D01*
X88926Y-31181D02*
X88898Y-31130D01*
X88898Y-31130D02*
X88880Y-31074D01*
X88880Y-31074D02*
X88874Y-31016D01*
X88874Y-31016D02*
X88878Y-30958D01*
X88878Y-30958D02*
X88895Y-30902D01*
X88895Y-30902D02*
X88921Y-30850D01*
X88921Y-30850D02*
X88958Y-30804D01*
X88958Y-30804D02*
X89002Y-30766D01*
X89002Y-30766D02*
X89053Y-30738D01*
X89053Y-30738D02*
X89109Y-30719D01*
X89109Y-30719D02*
X89167Y-30713D01*
X89167Y-30713D02*
X89225Y-30717D01*
X89225Y-30717D02*
X89281Y-30733D01*
X89281Y-30733D02*
X89333Y-30759D01*
X89333Y-30759D02*
X89379Y-30795D01*
X89379Y-30795D02*
X89418Y-30840D01*
X89418Y-30840D02*
X89447Y-30890D01*
X89447Y-30890D02*
X89465Y-30946D01*
X89465Y-30946D02*
X89472Y-31004D01*
X89472Y-31004D02*
X89473Y-31012D01*
X89473Y-30012D02*
X89467Y-30070D01*
X89467Y-30070D02*
X89450Y-30126D01*
X89450Y-30126D02*
X89422Y-30178D01*
X89422Y-30178D02*
X89385Y-30223D01*
X89385Y-30223D02*
X89340Y-30260D01*
X89340Y-30260D02*
X89289Y-30288D01*
X89289Y-30288D02*
X89233Y-30305D01*
X89233Y-30305D02*
X89175Y-30311D01*
X89175Y-30311D02*
X89117Y-30306D01*
X89117Y-30306D02*
X89061Y-30290D01*
X89061Y-30290D02*
X89009Y-30263D01*
X89009Y-30263D02*
X88964Y-30226D01*
X88964Y-30226D02*
X88926Y-30181D01*
X88926Y-30181D02*
X88898Y-30130D01*
X88898Y-30130D02*
X88880Y-30074D01*
X88880Y-30074D02*
X88874Y-30016D01*
X88874Y-30016D02*
X88878Y-29958D01*
X88878Y-29958D02*
X88895Y-29902D01*
X88895Y-29902D02*
X88921Y-29850D01*
X88921Y-29850D02*
X88958Y-29804D01*
X88958Y-29804D02*
X89002Y-29766D01*
X89002Y-29766D02*
X89053Y-29738D01*
X89053Y-29738D02*
X89109Y-29719D01*
X89109Y-29719D02*
X89167Y-29713D01*
X89167Y-29713D02*
X89225Y-29717D01*
X89225Y-29717D02*
X89281Y-29733D01*
X89281Y-29733D02*
X89333Y-29759D01*
X89333Y-29759D02*
X89379Y-29795D01*
X89379Y-29795D02*
X89418Y-29840D01*
X89418Y-29840D02*
X89447Y-29890D01*
X89447Y-29890D02*
X89465Y-29946D01*
X89465Y-29946D02*
X89472Y-30004D01*
X89472Y-30004D02*
X89473Y-30012D01*
X89473Y-29012D02*
X89467Y-29070D01*
X89467Y-29070D02*
X89450Y-29126D01*
X89450Y-29126D02*
X89422Y-29178D01*
X89422Y-29178D02*
X89385Y-29223D01*
X89385Y-29223D02*
X89340Y-29260D01*
X89340Y-29260D02*
X89289Y-29288D01*
X89289Y-29288D02*
X89233Y-29305D01*
X89233Y-29305D02*
X89175Y-29311D01*
X89175Y-29311D02*
X89117Y-29306D01*
X89117Y-29306D02*
X89061Y-29290D01*
X89061Y-29290D02*
X89009Y-29263D01*
X89009Y-29263D02*
X88964Y-29226D01*
X88964Y-29226D02*
X88926Y-29181D01*
X88926Y-29181D02*
X88898Y-29130D01*
X88898Y-29130D02*
X88880Y-29074D01*
X88880Y-29074D02*
X88874Y-29016D01*
X88874Y-29016D02*
X88878Y-28958D01*
X88878Y-28958D02*
X88895Y-28902D01*
X88895Y-28902D02*
X88921Y-28850D01*
X88921Y-28850D02*
X88958Y-28804D01*
X88958Y-28804D02*
X89002Y-28766D01*
X89002Y-28766D02*
X89053Y-28738D01*
X89053Y-28738D02*
X89109Y-28719D01*
X89109Y-28719D02*
X89167Y-28713D01*
X89167Y-28713D02*
X89225Y-28717D01*
X89225Y-28717D02*
X89281Y-28733D01*
X89281Y-28733D02*
X89333Y-28759D01*
X89333Y-28759D02*
X89379Y-28795D01*
X89379Y-28795D02*
X89418Y-28840D01*
X89418Y-28840D02*
X89447Y-28890D01*
X89447Y-28890D02*
X89465Y-28946D01*
X89465Y-28946D02*
X89472Y-29004D01*
X89472Y-29004D02*
X89473Y-29012D01*
X89473Y-28012D02*
X89467Y-28070D01*
X89467Y-28070D02*
X89450Y-28126D01*
X89450Y-28126D02*
X89422Y-28178D01*
X89422Y-28178D02*
X89385Y-28223D01*
X89385Y-28223D02*
X89340Y-28260D01*
X89340Y-28260D02*
X89289Y-28288D01*
X89289Y-28288D02*
X89233Y-28305D01*
X89233Y-28305D02*
X89175Y-28311D01*
X89175Y-28311D02*
X89117Y-28306D01*
X89117Y-28306D02*
X89061Y-28290D01*
X89061Y-28290D02*
X89009Y-28263D01*
X89009Y-28263D02*
X88964Y-28226D01*
X88964Y-28226D02*
X88926Y-28181D01*
X88926Y-28181D02*
X88898Y-28130D01*
X88898Y-28130D02*
X88880Y-28074D01*
X88880Y-28074D02*
X88874Y-28016D01*
X88874Y-28016D02*
X88878Y-27958D01*
X88878Y-27958D02*
X88895Y-27902D01*
X88895Y-27902D02*
X88921Y-27850D01*
X88921Y-27850D02*
X88958Y-27804D01*
X88958Y-27804D02*
X89002Y-27766D01*
X89002Y-27766D02*
X89053Y-27738D01*
X89053Y-27738D02*
X89109Y-27719D01*
X89109Y-27719D02*
X89167Y-27713D01*
X89167Y-27713D02*
X89225Y-27717D01*
X89225Y-27717D02*
X89281Y-27733D01*
X89281Y-27733D02*
X89333Y-27759D01*
X89333Y-27759D02*
X89379Y-27795D01*
X89379Y-27795D02*
X89418Y-27840D01*
X89418Y-27840D02*
X89447Y-27890D01*
X89447Y-27890D02*
X89465Y-27946D01*
X89465Y-27946D02*
X89472Y-28004D01*
X89472Y-28004D02*
X89473Y-28012D01*
X86692Y-36824D02*
X86692Y-36224D01*
X86692Y-36224D02*
X87292Y-36224D01*
X87292Y-36224D02*
X87292Y-36824D01*
X87292Y-36824D02*
X86692Y-36824D01*
X87292Y-35524D02*
X87286Y-35582D01*
X87286Y-35582D02*
X87269Y-35638D01*
X87269Y-35638D02*
X87241Y-35690D01*
X87241Y-35690D02*
X87204Y-35735D01*
X87204Y-35735D02*
X87159Y-35772D01*
X87159Y-35772D02*
X87108Y-35800D01*
X87108Y-35800D02*
X87052Y-35817D01*
X87052Y-35817D02*
X86994Y-35823D01*
X86994Y-35823D02*
X86936Y-35818D01*
X86936Y-35818D02*
X86880Y-35802D01*
X86880Y-35802D02*
X86828Y-35775D01*
X86828Y-35775D02*
X86783Y-35738D01*
X86783Y-35738D02*
X86745Y-35693D01*
X86745Y-35693D02*
X86717Y-35642D01*
X86717Y-35642D02*
X86699Y-35586D01*
X86699Y-35586D02*
X86693Y-35528D01*
X86693Y-35528D02*
X86697Y-35470D01*
X86697Y-35470D02*
X86714Y-35414D01*
X86714Y-35414D02*
X86740Y-35362D01*
X86740Y-35362D02*
X86777Y-35316D01*
X86777Y-35316D02*
X86821Y-35278D01*
X86821Y-35278D02*
X86872Y-35250D01*
X86872Y-35250D02*
X86928Y-35231D01*
X86928Y-35231D02*
X86986Y-35225D01*
X86986Y-35225D02*
X87044Y-35229D01*
X87044Y-35229D02*
X87100Y-35245D01*
X87100Y-35245D02*
X87152Y-35271D01*
X87152Y-35271D02*
X87198Y-35307D01*
X87198Y-35307D02*
X87237Y-35352D01*
X87237Y-35352D02*
X87266Y-35402D01*
X87266Y-35402D02*
X87284Y-35458D01*
X87284Y-35458D02*
X87291Y-35516D01*
X87291Y-35516D02*
X87292Y-35524D01*
X88292Y-36524D02*
X88286Y-36582D01*
X88286Y-36582D02*
X88269Y-36638D01*
X88269Y-36638D02*
X88241Y-36690D01*
X88241Y-36690D02*
X88204Y-36735D01*
X88204Y-36735D02*
X88159Y-36772D01*
X88159Y-36772D02*
X88108Y-36800D01*
X88108Y-36800D02*
X88052Y-36817D01*
X88052Y-36817D02*
X87994Y-36823D01*
X87994Y-36823D02*
X87936Y-36818D01*
X87936Y-36818D02*
X87880Y-36802D01*
X87880Y-36802D02*
X87828Y-36775D01*
X87828Y-36775D02*
X87783Y-36738D01*
X87783Y-36738D02*
X87745Y-36693D01*
X87745Y-36693D02*
X87717Y-36642D01*
X87717Y-36642D02*
X87699Y-36586D01*
X87699Y-36586D02*
X87693Y-36528D01*
X87693Y-36528D02*
X87697Y-36470D01*
X87697Y-36470D02*
X87714Y-36414D01*
X87714Y-36414D02*
X87740Y-36362D01*
X87740Y-36362D02*
X87777Y-36316D01*
X87777Y-36316D02*
X87821Y-36278D01*
X87821Y-36278D02*
X87872Y-36250D01*
X87872Y-36250D02*
X87928Y-36231D01*
X87928Y-36231D02*
X87986Y-36225D01*
X87986Y-36225D02*
X88044Y-36229D01*
X88044Y-36229D02*
X88100Y-36245D01*
X88100Y-36245D02*
X88152Y-36271D01*
X88152Y-36271D02*
X88198Y-36307D01*
X88198Y-36307D02*
X88237Y-36352D01*
X88237Y-36352D02*
X88266Y-36402D01*
X88266Y-36402D02*
X88284Y-36458D01*
X88284Y-36458D02*
X88291Y-36516D01*
X88291Y-36516D02*
X88292Y-36524D01*
X88292Y-35524D02*
X88286Y-35582D01*
X88286Y-35582D02*
X88269Y-35638D01*
X88269Y-35638D02*
X88241Y-35690D01*
X88241Y-35690D02*
X88204Y-35735D01*
X88204Y-35735D02*
X88159Y-35772D01*
X88159Y-35772D02*
X88108Y-35800D01*
X88108Y-35800D02*
X88052Y-35817D01*
X88052Y-35817D02*
X87994Y-35823D01*
X87994Y-35823D02*
X87936Y-35818D01*
X87936Y-35818D02*
X87880Y-35802D01*
X87880Y-35802D02*
X87828Y-35775D01*
X87828Y-35775D02*
X87783Y-35738D01*
X87783Y-35738D02*
X87745Y-35693D01*
X87745Y-35693D02*
X87717Y-35642D01*
X87717Y-35642D02*
X87699Y-35586D01*
X87699Y-35586D02*
X87693Y-35528D01*
X87693Y-35528D02*
X87697Y-35470D01*
X87697Y-35470D02*
X87714Y-35414D01*
X87714Y-35414D02*
X87740Y-35362D01*
X87740Y-35362D02*
X87777Y-35316D01*
X87777Y-35316D02*
X87821Y-35278D01*
X87821Y-35278D02*
X87872Y-35250D01*
X87872Y-35250D02*
X87928Y-35231D01*
X87928Y-35231D02*
X87986Y-35225D01*
X87986Y-35225D02*
X88044Y-35229D01*
X88044Y-35229D02*
X88100Y-35245D01*
X88100Y-35245D02*
X88152Y-35271D01*
X88152Y-35271D02*
X88198Y-35307D01*
X88198Y-35307D02*
X88237Y-35352D01*
X88237Y-35352D02*
X88266Y-35402D01*
X88266Y-35402D02*
X88284Y-35458D01*
X88284Y-35458D02*
X88291Y-35516D01*
X88291Y-35516D02*
X88292Y-35524D01*
X89292Y-36524D02*
X89286Y-36582D01*
X89286Y-36582D02*
X89269Y-36638D01*
X89269Y-36638D02*
X89241Y-36690D01*
X89241Y-36690D02*
X89204Y-36735D01*
X89204Y-36735D02*
X89159Y-36772D01*
X89159Y-36772D02*
X89108Y-36800D01*
X89108Y-36800D02*
X89052Y-36817D01*
X89052Y-36817D02*
X88994Y-36823D01*
X88994Y-36823D02*
X88936Y-36818D01*
X88936Y-36818D02*
X88880Y-36802D01*
X88880Y-36802D02*
X88828Y-36775D01*
X88828Y-36775D02*
X88783Y-36738D01*
X88783Y-36738D02*
X88745Y-36693D01*
X88745Y-36693D02*
X88717Y-36642D01*
X88717Y-36642D02*
X88699Y-36586D01*
X88699Y-36586D02*
X88693Y-36528D01*
X88693Y-36528D02*
X88697Y-36470D01*
X88697Y-36470D02*
X88714Y-36414D01*
X88714Y-36414D02*
X88740Y-36362D01*
X88740Y-36362D02*
X88777Y-36316D01*
X88777Y-36316D02*
X88821Y-36278D01*
X88821Y-36278D02*
X88872Y-36250D01*
X88872Y-36250D02*
X88928Y-36231D01*
X88928Y-36231D02*
X88986Y-36225D01*
X88986Y-36225D02*
X89044Y-36229D01*
X89044Y-36229D02*
X89100Y-36245D01*
X89100Y-36245D02*
X89152Y-36271D01*
X89152Y-36271D02*
X89198Y-36307D01*
X89198Y-36307D02*
X89237Y-36352D01*
X89237Y-36352D02*
X89266Y-36402D01*
X89266Y-36402D02*
X89284Y-36458D01*
X89284Y-36458D02*
X89291Y-36516D01*
X89291Y-36516D02*
X89292Y-36524D01*
X89292Y-35524D02*
X89286Y-35582D01*
X89286Y-35582D02*
X89269Y-35638D01*
X89269Y-35638D02*
X89241Y-35690D01*
X89241Y-35690D02*
X89204Y-35735D01*
X89204Y-35735D02*
X89159Y-35772D01*
X89159Y-35772D02*
X89108Y-35800D01*
X89108Y-35800D02*
X89052Y-35817D01*
X89052Y-35817D02*
X88994Y-35823D01*
X88994Y-35823D02*
X88936Y-35818D01*
X88936Y-35818D02*
X88880Y-35802D01*
X88880Y-35802D02*
X88828Y-35775D01*
X88828Y-35775D02*
X88783Y-35738D01*
X88783Y-35738D02*
X88745Y-35693D01*
X88745Y-35693D02*
X88717Y-35642D01*
X88717Y-35642D02*
X88699Y-35586D01*
X88699Y-35586D02*
X88693Y-35528D01*
X88693Y-35528D02*
X88697Y-35470D01*
X88697Y-35470D02*
X88714Y-35414D01*
X88714Y-35414D02*
X88740Y-35362D01*
X88740Y-35362D02*
X88777Y-35316D01*
X88777Y-35316D02*
X88821Y-35278D01*
X88821Y-35278D02*
X88872Y-35250D01*
X88872Y-35250D02*
X88928Y-35231D01*
X88928Y-35231D02*
X88986Y-35225D01*
X88986Y-35225D02*
X89044Y-35229D01*
X89044Y-35229D02*
X89100Y-35245D01*
X89100Y-35245D02*
X89152Y-35271D01*
X89152Y-35271D02*
X89198Y-35307D01*
X89198Y-35307D02*
X89237Y-35352D01*
X89237Y-35352D02*
X89266Y-35402D01*
X89266Y-35402D02*
X89284Y-35458D01*
X89284Y-35458D02*
X89291Y-35516D01*
X89291Y-35516D02*
X89292Y-35524D01*
X71666Y-26969D02*
X71650Y-27124D01*
X71650Y-27124D02*
X71605Y-27273D01*
X71605Y-27273D02*
X71532Y-27411D01*
X71532Y-27411D02*
X71433Y-27532D01*
X71433Y-27532D02*
X71313Y-27632D01*
X71313Y-27632D02*
X71176Y-27706D01*
X71176Y-27706D02*
X71026Y-27752D01*
X71026Y-27752D02*
X70871Y-27768D01*
X70871Y-27768D02*
X70717Y-27754D01*
X70717Y-27754D02*
X70567Y-27710D01*
X70567Y-27710D02*
X70428Y-27638D01*
X70428Y-27638D02*
X70307Y-27540D01*
X70307Y-27540D02*
X70206Y-27420D01*
X70206Y-27420D02*
X70131Y-27284D01*
X70131Y-27284D02*
X70084Y-27135D01*
X70084Y-27135D02*
X70067Y-26980D01*
X70067Y-26980D02*
X70080Y-26825D01*
X70080Y-26825D02*
X70123Y-26675D01*
X70123Y-26675D02*
X70194Y-26536D01*
X70194Y-26536D02*
X70291Y-26414D01*
X70291Y-26414D02*
X70410Y-26313D01*
X70410Y-26313D02*
X70546Y-26236D01*
X70546Y-26236D02*
X70695Y-26188D01*
X70695Y-26188D02*
X70850Y-26170D01*
X70850Y-26170D02*
X71004Y-26182D01*
X71004Y-26182D02*
X71155Y-26224D01*
X71155Y-26224D02*
X71294Y-26294D01*
X71294Y-26294D02*
X71417Y-26390D01*
X71417Y-26390D02*
X71519Y-26508D01*
X71519Y-26508D02*
X71596Y-26644D01*
X71596Y-26644D02*
X71646Y-26792D01*
X71646Y-26792D02*
X71665Y-26947D01*
X71665Y-26947D02*
X71666Y-26969D01*
X89481Y-44390D02*
X89465Y-44545D01*
X89465Y-44545D02*
X89420Y-44694D01*
X89420Y-44694D02*
X89347Y-44832D01*
X89347Y-44832D02*
X89248Y-44953D01*
X89248Y-44953D02*
X89128Y-45053D01*
X89128Y-45053D02*
X88991Y-45127D01*
X88991Y-45127D02*
X88841Y-45173D01*
X88841Y-45173D02*
X88686Y-45189D01*
X88686Y-45189D02*
X88532Y-45175D01*
X88532Y-45175D02*
X88382Y-45131D01*
X88382Y-45131D02*
X88243Y-45059D01*
X88243Y-45059D02*
X88122Y-44961D01*
X88122Y-44961D02*
X88021Y-44841D01*
X88021Y-44841D02*
X87946Y-44705D01*
X87946Y-44705D02*
X87899Y-44556D01*
X87899Y-44556D02*
X87882Y-44401D01*
X87882Y-44401D02*
X87895Y-44246D01*
X87895Y-44246D02*
X87938Y-44096D01*
X87938Y-44096D02*
X88009Y-43957D01*
X88009Y-43957D02*
X88106Y-43835D01*
X88106Y-43835D02*
X88225Y-43734D01*
X88225Y-43734D02*
X88361Y-43657D01*
X88361Y-43657D02*
X88510Y-43609D01*
X88510Y-43609D02*
X88665Y-43591D01*
X88665Y-43591D02*
X88819Y-43603D01*
X88819Y-43603D02*
X88970Y-43645D01*
X88970Y-43645D02*
X89109Y-43715D01*
X89109Y-43715D02*
X89232Y-43811D01*
X89232Y-43811D02*
X89334Y-43929D01*
X89334Y-43929D02*
X89411Y-44065D01*
X89411Y-44065D02*
X89461Y-44213D01*
X89461Y-44213D02*
X89480Y-44368D01*
X89480Y-44368D02*
X89481Y-44390D01*
X84461Y-26378D02*
X84445Y-26533D01*
X84445Y-26533D02*
X84400Y-26682D01*
X84400Y-26682D02*
X84327Y-26820D01*
X84327Y-26820D02*
X84228Y-26941D01*
X84228Y-26941D02*
X84108Y-27041D01*
X84108Y-27041D02*
X83971Y-27115D01*
X83971Y-27115D02*
X83821Y-27161D01*
X83821Y-27161D02*
X83666Y-27177D01*
X83666Y-27177D02*
X83512Y-27163D01*
X83512Y-27163D02*
X83362Y-27119D01*
X83362Y-27119D02*
X83223Y-27047D01*
X83223Y-27047D02*
X83102Y-26949D01*
X83102Y-26949D02*
X83001Y-26829D01*
X83001Y-26829D02*
X82926Y-26693D01*
X82926Y-26693D02*
X82879Y-26544D01*
X82879Y-26544D02*
X82862Y-26389D01*
X82862Y-26389D02*
X82875Y-26234D01*
X82875Y-26234D02*
X82918Y-26084D01*
X82918Y-26084D02*
X82989Y-25945D01*
X82989Y-25945D02*
X83086Y-25823D01*
X83086Y-25823D02*
X83205Y-25722D01*
X83205Y-25722D02*
X83341Y-25645D01*
X83341Y-25645D02*
X83490Y-25597D01*
X83490Y-25597D02*
X83645Y-25579D01*
X83645Y-25579D02*
X83799Y-25591D01*
X83799Y-25591D02*
X83950Y-25633D01*
X83950Y-25633D02*
X84089Y-25703D01*
X84089Y-25703D02*
X84212Y-25799D01*
X84212Y-25799D02*
X84314Y-25917D01*
X84314Y-25917D02*
X84391Y-26053D01*
X84391Y-26053D02*
X84441Y-26201D01*
X84441Y-26201D02*
X84460Y-26356D01*
X84460Y-26356D02*
X84461Y-26378D01*
X72257Y-44193D02*
X72241Y-44348D01*
X72241Y-44348D02*
X72196Y-44497D01*
X72196Y-44497D02*
X72123Y-44635D01*
X72123Y-44635D02*
X72024Y-44756D01*
X72024Y-44756D02*
X71904Y-44856D01*
X71904Y-44856D02*
X71767Y-44930D01*
X71767Y-44930D02*
X71617Y-44976D01*
X71617Y-44976D02*
X71462Y-44992D01*
X71462Y-44992D02*
X71308Y-44978D01*
X71308Y-44978D02*
X71158Y-44934D01*
X71158Y-44934D02*
X71019Y-44862D01*
X71019Y-44862D02*
X70898Y-44764D01*
X70898Y-44764D02*
X70797Y-44644D01*
X70797Y-44644D02*
X70722Y-44508D01*
X70722Y-44508D02*
X70675Y-44359D01*
X70675Y-44359D02*
X70658Y-44204D01*
X70658Y-44204D02*
X70671Y-44049D01*
X70671Y-44049D02*
X70714Y-43899D01*
X70714Y-43899D02*
X70785Y-43760D01*
X70785Y-43760D02*
X70882Y-43638D01*
X70882Y-43638D02*
X71001Y-43537D01*
X71001Y-43537D02*
X71137Y-43460D01*
X71137Y-43460D02*
X71286Y-43412D01*
X71286Y-43412D02*
X71441Y-43394D01*
X71441Y-43394D02*
X71595Y-43406D01*
X71595Y-43406D02*
X71746Y-43448D01*
X71746Y-43448D02*
X71885Y-43518D01*
X71885Y-43518D02*
X72008Y-43614D01*
X72008Y-43614D02*
X72110Y-43732D01*
X72110Y-43732D02*
X72187Y-43868D01*
X72187Y-43868D02*
X72237Y-44016D01*
X72237Y-44016D02*
X72256Y-44171D01*
X72256Y-44171D02*
X72257Y-44193D01*
G54D17*
X82977Y-31763D02*
X82977Y-31563D01*
X82977Y-31663D02*
X82377Y-31663D01*
X82377Y-31763D02*
X82377Y-31563D01*
X82911Y-30843D02*
X82977Y-30893D01*
X82977Y-30893D02*
X82977Y-31143D01*
X82977Y-31143D02*
X82911Y-31193D01*
X82911Y-31193D02*
X82444Y-31193D01*
X82444Y-31193D02*
X82377Y-31143D01*
X82377Y-31143D02*
X82377Y-30893D01*
X82377Y-30893D02*
X82444Y-30843D01*
X82977Y-30473D02*
X82977Y-30273D01*
X82977Y-30373D02*
X82377Y-30373D01*
X82444Y-30373D02*
X82577Y-30473D01*
X82977Y-42173D02*
X82511Y-42173D01*
X82511Y-42173D02*
X82377Y-42073D01*
X82377Y-42073D02*
X82377Y-41923D01*
X82377Y-41923D02*
X82511Y-41823D01*
X82511Y-41823D02*
X82977Y-41823D01*
X82644Y-42173D02*
X82644Y-41823D01*
X82377Y-41553D02*
X82377Y-41153D01*
X82377Y-41353D02*
X82977Y-41353D01*
X82977Y-40933D02*
X82377Y-40933D01*
X82377Y-40933D02*
X82644Y-40733D01*
X82644Y-40733D02*
X82377Y-40533D01*
X82377Y-40533D02*
X82977Y-40533D01*
X82977Y-39963D02*
X82977Y-40313D01*
X82977Y-40313D02*
X82377Y-40313D01*
X82377Y-40313D02*
X82377Y-39963D01*
X82644Y-40313D02*
X82644Y-40113D01*
X82444Y-39393D02*
X82377Y-39393D01*
X82377Y-39393D02*
X82377Y-39643D01*
X82377Y-39643D02*
X82444Y-39693D01*
X82444Y-39693D02*
X82911Y-39693D01*
X82911Y-39693D02*
X82977Y-39643D01*
X82977Y-39643D02*
X82977Y-39393D01*
X82977Y-39393D02*
X82911Y-39343D01*
X82911Y-39343D02*
X82711Y-39343D01*
X82711Y-39343D02*
X82711Y-39493D01*
X82977Y-39073D02*
X82511Y-39073D01*
X82511Y-39073D02*
X82377Y-38973D01*
X82377Y-38973D02*
X82377Y-38823D01*
X82377Y-38823D02*
X82511Y-38723D01*
X82511Y-38723D02*
X82977Y-38723D01*
X82644Y-39073D02*
X82644Y-38723D01*
X82977Y-38403D02*
X82911Y-38453D01*
X82911Y-38453D02*
X82711Y-38453D01*
X82711Y-38453D02*
X82644Y-38403D01*
X82644Y-38403D02*
X82644Y-38153D01*
X82644Y-38153D02*
X82577Y-38103D01*
X82577Y-38103D02*
X82444Y-38103D01*
X82444Y-38103D02*
X82377Y-38153D01*
X82377Y-38153D02*
X82377Y-38403D01*
X82377Y-38403D02*
X82444Y-38453D01*
X82444Y-38453D02*
X82577Y-38453D01*
X82577Y-38453D02*
X82644Y-38403D01*
X82644Y-38153D02*
X82711Y-38103D01*
X82711Y-38103D02*
X82911Y-38103D01*
X82911Y-38103D02*
X82977Y-38153D01*
X82977Y-38153D02*
X82977Y-38403D01*
X82711Y-37783D02*
X82711Y-37533D01*
X82977Y-37213D02*
X82377Y-37213D01*
X82377Y-37213D02*
X82377Y-36913D01*
X82377Y-36913D02*
X82444Y-36863D01*
X82444Y-36863D02*
X82644Y-36863D01*
X82644Y-36863D02*
X82711Y-36913D01*
X82711Y-36913D02*
X82711Y-37213D01*
G54D19*
X85981Y-32877D02*
X85981Y-32477D01*
X85937Y-32477D02*
X86204Y-32477D01*
X86204Y-32477D02*
X86248Y-32522D01*
X86248Y-32522D02*
X86248Y-32833D01*
X86248Y-32833D02*
X86204Y-32877D01*
X86204Y-32877D02*
X85937Y-32877D01*
X86550Y-32877D02*
X86728Y-32877D01*
X86639Y-32877D02*
X86639Y-32477D01*
X86639Y-32522D02*
X86550Y-32611D01*
X85981Y-30515D02*
X85981Y-30115D01*
X85937Y-30115D02*
X86204Y-30115D01*
X86204Y-30115D02*
X86248Y-30160D01*
X86248Y-30160D02*
X86248Y-30471D01*
X86248Y-30471D02*
X86204Y-30515D01*
X86204Y-30515D02*
X85937Y-30515D01*
X86772Y-30515D02*
X86461Y-30515D01*
X86461Y-30515D02*
X86461Y-30382D01*
X86461Y-30382D02*
X86505Y-30338D01*
X86505Y-30338D02*
X86728Y-30338D01*
X86728Y-30338D02*
X86772Y-30293D01*
X86772Y-30293D02*
X86772Y-30160D01*
X86772Y-30160D02*
X86728Y-30115D01*
X86728Y-30115D02*
X86505Y-30115D01*
X86505Y-30115D02*
X86461Y-30160D01*
X85981Y-28153D02*
X85981Y-27753D01*
X85937Y-27753D02*
X86204Y-27753D01*
X86204Y-27753D02*
X86248Y-27798D01*
X86248Y-27798D02*
X86248Y-28109D01*
X86248Y-28109D02*
X86204Y-28153D01*
X86204Y-28153D02*
X85937Y-28153D01*
X86461Y-27753D02*
X86772Y-27753D01*
X86772Y-27753D02*
X86772Y-27798D01*
X86772Y-27798D02*
X86594Y-27931D01*
X86594Y-27931D02*
X86728Y-27931D01*
X86728Y-27931D02*
X86772Y-27976D01*
X86772Y-27976D02*
X86772Y-28109D01*
X86772Y-28109D02*
X86728Y-28153D01*
X86728Y-28153D02*
X86505Y-28153D01*
X86505Y-28153D02*
X86461Y-28109D01*
X85981Y-34058D02*
X85981Y-33658D01*
X85937Y-33658D02*
X86204Y-33658D01*
X86204Y-33658D02*
X86248Y-33703D01*
X86248Y-33703D02*
X86248Y-34014D01*
X86248Y-34014D02*
X86204Y-34058D01*
X86204Y-34058D02*
X85937Y-34058D01*
X86683Y-34058D02*
X86683Y-33658D01*
X86683Y-33658D02*
X86461Y-33970D01*
X86461Y-33970D02*
X86772Y-33970D01*
X85981Y-31696D02*
X85981Y-31296D01*
X85937Y-31296D02*
X86204Y-31296D01*
X86204Y-31296D02*
X86248Y-31341D01*
X86248Y-31341D02*
X86248Y-31652D01*
X86248Y-31652D02*
X86204Y-31696D01*
X86204Y-31696D02*
X85937Y-31696D01*
X86461Y-31608D02*
X86461Y-31652D01*
X86461Y-31652D02*
X86505Y-31696D01*
X86505Y-31696D02*
X86728Y-31696D01*
X86728Y-31696D02*
X86772Y-31652D01*
X86772Y-31652D02*
X86772Y-31519D01*
X86772Y-31519D02*
X86683Y-31430D01*
X86683Y-31430D02*
X86461Y-31430D01*
X86461Y-31430D02*
X86461Y-31296D01*
X86461Y-31296D02*
X86772Y-31296D01*
X85981Y-29334D02*
X85981Y-28934D01*
X85937Y-28934D02*
X86204Y-28934D01*
X86204Y-28934D02*
X86248Y-28979D01*
X86248Y-28979D02*
X86248Y-29290D01*
X86248Y-29290D02*
X86204Y-29334D01*
X86204Y-29334D02*
X85937Y-29334D01*
X86772Y-28979D02*
X86728Y-28934D01*
X86728Y-28934D02*
X86505Y-28934D01*
X86505Y-28934D02*
X86461Y-28979D01*
X86461Y-28979D02*
X86461Y-29290D01*
X86461Y-29290D02*
X86505Y-29334D01*
X86505Y-29334D02*
X86728Y-29334D01*
X86728Y-29334D02*
X86772Y-29290D01*
X86772Y-29290D02*
X86772Y-29157D01*
X86772Y-29157D02*
X86728Y-29112D01*
X86728Y-29112D02*
X86505Y-29112D01*
X86505Y-29112D02*
X86461Y-29157D01*
X75791Y-34885D02*
X75391Y-34885D01*
X75391Y-34929D02*
X75391Y-34662D01*
X75391Y-34662D02*
X75436Y-34618D01*
X75436Y-34618D02*
X75747Y-34618D01*
X75747Y-34618D02*
X75791Y-34662D01*
X75791Y-34662D02*
X75791Y-34929D01*
X75391Y-34405D02*
X75391Y-34094D01*
X75391Y-34094D02*
X75791Y-34405D01*
X76775Y-34885D02*
X76375Y-34885D01*
X76375Y-34929D02*
X76375Y-34662D01*
X76375Y-34662D02*
X76420Y-34618D01*
X76420Y-34618D02*
X76731Y-34618D01*
X76731Y-34618D02*
X76775Y-34662D01*
X76775Y-34662D02*
X76775Y-34929D01*
X76775Y-34361D02*
X76731Y-34405D01*
X76731Y-34405D02*
X76598Y-34405D01*
X76598Y-34405D02*
X76553Y-34361D01*
X76553Y-34361D02*
X76553Y-34138D01*
X76553Y-34138D02*
X76509Y-34094D01*
X76509Y-34094D02*
X76420Y-34094D01*
X76420Y-34094D02*
X76375Y-34138D01*
X76375Y-34138D02*
X76375Y-34361D01*
X76375Y-34361D02*
X76420Y-34405D01*
X76420Y-34405D02*
X76509Y-34405D01*
X76509Y-34405D02*
X76553Y-34361D01*
X76553Y-34138D02*
X76598Y-34094D01*
X76598Y-34094D02*
X76731Y-34094D01*
X76731Y-34094D02*
X76775Y-34138D01*
X76775Y-34138D02*
X76775Y-34361D01*
X78357Y-29212D02*
X78357Y-28662D01*
X78357Y-28662D02*
X78690Y-28662D01*
X78690Y-28662D02*
X78746Y-28724D01*
X78746Y-28724D02*
X78746Y-28907D01*
X78746Y-28907D02*
X78690Y-28968D01*
X78690Y-28968D02*
X78357Y-28968D01*
X78524Y-28968D02*
X78746Y-29212D01*
X79103Y-29212D02*
X79325Y-29212D01*
X79214Y-29212D02*
X79214Y-28662D01*
X79214Y-28724D02*
X79103Y-28846D01*
X76719Y-38046D02*
X76719Y-37496D01*
X76719Y-37496D02*
X77052Y-37496D01*
X77052Y-37496D02*
X77108Y-37558D01*
X77108Y-37558D02*
X77108Y-37741D01*
X77108Y-37741D02*
X77052Y-37802D01*
X77052Y-37802D02*
X76719Y-37802D01*
X76886Y-37802D02*
X77108Y-38046D01*
X77743Y-38046D02*
X77354Y-38046D01*
X77354Y-38046D02*
X77354Y-37863D01*
X77354Y-37863D02*
X77410Y-37802D01*
X77410Y-37802D02*
X77687Y-37802D01*
X77687Y-37802D02*
X77743Y-37741D01*
X77743Y-37741D02*
X77743Y-37558D01*
X77743Y-37558D02*
X77687Y-37496D01*
X77687Y-37496D02*
X77410Y-37496D01*
X77410Y-37496D02*
X77354Y-37558D01*
X78160Y-40236D02*
X78160Y-39686D01*
X78160Y-39686D02*
X78493Y-39686D01*
X78493Y-39686D02*
X78549Y-39748D01*
X78549Y-39748D02*
X78549Y-39931D01*
X78549Y-39931D02*
X78493Y-39992D01*
X78493Y-39992D02*
X78160Y-39992D01*
X78327Y-39992D02*
X78549Y-40236D01*
X78795Y-39686D02*
X79184Y-39686D01*
X79184Y-39686D02*
X79184Y-39748D01*
X79184Y-39748D02*
X78962Y-39931D01*
X78962Y-39931D02*
X79128Y-39931D01*
X79128Y-39931D02*
X79184Y-39992D01*
X79184Y-39992D02*
X79184Y-40175D01*
X79184Y-40175D02*
X79128Y-40236D01*
X79128Y-40236D02*
X78851Y-40236D01*
X78851Y-40236D02*
X78795Y-40175D01*
X78160Y-41220D02*
X78160Y-40670D01*
X78160Y-40670D02*
X78493Y-40670D01*
X78493Y-40670D02*
X78549Y-40732D01*
X78549Y-40732D02*
X78549Y-40915D01*
X78549Y-40915D02*
X78493Y-40976D01*
X78493Y-40976D02*
X78160Y-40976D01*
X78327Y-40976D02*
X78549Y-41220D01*
X79073Y-41220D02*
X79073Y-40670D01*
X79073Y-40670D02*
X78795Y-41098D01*
X78795Y-41098D02*
X79184Y-41098D01*
X86034Y-38267D02*
X86034Y-37717D01*
X86034Y-37717D02*
X86367Y-37717D01*
X86367Y-37717D02*
X86423Y-37779D01*
X86423Y-37779D02*
X86423Y-37962D01*
X86423Y-37962D02*
X86367Y-38023D01*
X86367Y-38023D02*
X86034Y-38023D01*
X86201Y-38023D02*
X86423Y-38267D01*
X86669Y-38145D02*
X86669Y-38206D01*
X86669Y-38206D02*
X86725Y-38267D01*
X86725Y-38267D02*
X87002Y-38267D01*
X87002Y-38267D02*
X87058Y-38206D01*
X87058Y-38206D02*
X87058Y-38023D01*
X87058Y-38023D02*
X86947Y-37901D01*
X86947Y-37901D02*
X86669Y-37901D01*
X86669Y-37901D02*
X86669Y-37717D01*
X86669Y-37717D02*
X87058Y-37717D01*
X86034Y-42992D02*
X86034Y-42442D01*
X86034Y-42442D02*
X86367Y-42442D01*
X86367Y-42442D02*
X86423Y-42504D01*
X86423Y-42504D02*
X86423Y-42687D01*
X86423Y-42687D02*
X86367Y-42748D01*
X86367Y-42748D02*
X86034Y-42748D01*
X86201Y-42748D02*
X86423Y-42992D01*
X87058Y-42504D02*
X87002Y-42442D01*
X87002Y-42442D02*
X86725Y-42442D01*
X86725Y-42442D02*
X86669Y-42504D01*
X86669Y-42504D02*
X86669Y-42931D01*
X86669Y-42931D02*
X86725Y-42992D01*
X86725Y-42992D02*
X87002Y-42992D01*
X87002Y-42992D02*
X87058Y-42931D01*
X87058Y-42931D02*
X87058Y-42748D01*
X87058Y-42748D02*
X87002Y-42687D01*
X87002Y-42687D02*
X86725Y-42687D01*
X86725Y-42687D02*
X86669Y-42748D01*
X86034Y-41810D02*
X86034Y-41260D01*
X86034Y-41260D02*
X86367Y-41260D01*
X86367Y-41260D02*
X86423Y-41322D01*
X86423Y-41322D02*
X86423Y-41505D01*
X86423Y-41505D02*
X86367Y-41566D01*
X86367Y-41566D02*
X86034Y-41566D01*
X86201Y-41566D02*
X86423Y-41810D01*
X86669Y-41260D02*
X87058Y-41260D01*
X87058Y-41260D02*
X86669Y-41810D01*
X86034Y-40629D02*
X86034Y-40079D01*
X86034Y-40079D02*
X86367Y-40079D01*
X86367Y-40079D02*
X86423Y-40141D01*
X86423Y-40141D02*
X86423Y-40324D01*
X86423Y-40324D02*
X86367Y-40385D01*
X86367Y-40385D02*
X86034Y-40385D01*
X86201Y-40385D02*
X86423Y-40629D01*
X86725Y-40629D02*
X86669Y-40568D01*
X86669Y-40568D02*
X86669Y-40385D01*
X86669Y-40385D02*
X86725Y-40324D01*
X86725Y-40324D02*
X87002Y-40324D01*
X87002Y-40324D02*
X87058Y-40263D01*
X87058Y-40263D02*
X87058Y-40141D01*
X87058Y-40141D02*
X87002Y-40079D01*
X87002Y-40079D02*
X86725Y-40079D01*
X86725Y-40079D02*
X86669Y-40141D01*
X86669Y-40141D02*
X86669Y-40263D01*
X86669Y-40263D02*
X86725Y-40324D01*
X87002Y-40324D02*
X87058Y-40385D01*
X87058Y-40385D02*
X87058Y-40568D01*
X87058Y-40568D02*
X87002Y-40629D01*
X87002Y-40629D02*
X86725Y-40629D01*
X86034Y-39448D02*
X86034Y-38898D01*
X86034Y-38898D02*
X86367Y-38898D01*
X86367Y-38898D02*
X86423Y-38960D01*
X86423Y-38960D02*
X86423Y-39143D01*
X86423Y-39143D02*
X86367Y-39204D01*
X86367Y-39204D02*
X86034Y-39204D01*
X86201Y-39204D02*
X86423Y-39448D01*
X86725Y-39448D02*
X87002Y-39448D01*
X87002Y-39448D02*
X87058Y-39387D01*
X87058Y-39387D02*
X87058Y-38960D01*
X87058Y-38960D02*
X87002Y-38898D01*
X87002Y-38898D02*
X86725Y-38898D01*
X86725Y-38898D02*
X86669Y-38960D01*
X86669Y-38960D02*
X86669Y-39143D01*
X86669Y-39143D02*
X86725Y-39204D01*
X86725Y-39204D02*
X87002Y-39204D01*
X87002Y-39204D02*
X87058Y-39143D01*
X78040Y-33149D02*
X78040Y-32599D01*
X78040Y-32599D02*
X78373Y-32599D01*
X78373Y-32599D02*
X78429Y-32661D01*
X78429Y-32661D02*
X78429Y-32844D01*
X78429Y-32844D02*
X78373Y-32905D01*
X78373Y-32905D02*
X78040Y-32905D01*
X78207Y-32905D02*
X78429Y-33149D01*
X78786Y-33149D02*
X79008Y-33149D01*
X78897Y-33149D02*
X78897Y-32599D01*
X78897Y-32661D02*
X78786Y-32783D01*
X79310Y-33149D02*
X79699Y-32599D01*
X79310Y-33088D02*
X79310Y-32661D01*
X79310Y-32661D02*
X79366Y-32599D01*
X79366Y-32599D02*
X79643Y-32599D01*
X79643Y-32599D02*
X79699Y-32661D01*
X79699Y-32661D02*
X79699Y-33088D01*
X79699Y-33088D02*
X79643Y-33149D01*
X79643Y-33149D02*
X79366Y-33149D01*
X79366Y-33149D02*
X79310Y-33088D01*
X78040Y-34133D02*
X78040Y-33583D01*
X78040Y-33583D02*
X78373Y-33583D01*
X78373Y-33583D02*
X78429Y-33645D01*
X78429Y-33645D02*
X78429Y-33828D01*
X78429Y-33828D02*
X78373Y-33889D01*
X78373Y-33889D02*
X78040Y-33889D01*
X78207Y-33889D02*
X78429Y-34133D01*
X78786Y-34133D02*
X79008Y-34133D01*
X78897Y-34133D02*
X78897Y-33583D01*
X78897Y-33645D02*
X78786Y-33767D01*
X79421Y-34133D02*
X79643Y-34133D01*
X79532Y-34133D02*
X79532Y-33583D01*
X79532Y-33645D02*
X79421Y-33767D01*
G54D17*
X69950Y-33962D02*
X70417Y-33362D01*
X69950Y-33362D02*
X70417Y-33962D01*
X70870Y-33962D02*
X71136Y-33962D01*
X71003Y-33962D02*
X71003Y-33362D01*
X71003Y-33429D02*
X70870Y-33562D01*
X70422Y-35931D02*
X69955Y-35931D01*
X69955Y-35931D02*
X69955Y-35331D01*
X69955Y-35331D02*
X70422Y-35331D01*
X69955Y-35598D02*
X70222Y-35598D01*
X71208Y-35865D02*
X71141Y-35931D01*
X71141Y-35931D02*
X70808Y-35931D01*
X70808Y-35931D02*
X70741Y-35865D01*
X70741Y-35865D02*
X70741Y-35398D01*
X70741Y-35398D02*
X70808Y-35331D01*
X70808Y-35331D02*
X71141Y-35331D01*
X71141Y-35331D02*
X71208Y-35398D01*
X71527Y-35865D02*
X71594Y-35931D01*
X71594Y-35931D02*
X71927Y-35931D01*
X71927Y-35931D02*
X71994Y-35865D01*
X71994Y-35865D02*
X71994Y-35665D01*
X71994Y-35665D02*
X71927Y-35598D01*
X71927Y-35598D02*
X71594Y-35598D01*
X71594Y-35598D02*
X71527Y-35531D01*
X71527Y-35531D02*
X71527Y-35398D01*
X71527Y-35398D02*
X71594Y-35331D01*
X71594Y-35331D02*
X71927Y-35331D01*
X71927Y-35331D02*
X71994Y-35398D01*
X72380Y-35665D02*
X72713Y-35665D01*
X73566Y-35931D02*
X73099Y-35931D01*
X73099Y-35931D02*
X73099Y-35731D01*
X73099Y-35731D02*
X73166Y-35665D01*
X73166Y-35665D02*
X73499Y-35665D01*
X73499Y-35665D02*
X73566Y-35598D01*
X73566Y-35598D02*
X73566Y-35398D01*
X73566Y-35398D02*
X73499Y-35331D01*
X73499Y-35331D02*
X73166Y-35331D01*
X73166Y-35331D02*
X73099Y-35398D01*
X74019Y-35931D02*
X74285Y-35931D01*
X74152Y-35931D02*
X74152Y-35331D01*
X74152Y-35398D02*
X74019Y-35531D01*
X74671Y-35931D02*
X75138Y-35331D01*
X74671Y-35865D02*
X74671Y-35398D01*
X74671Y-35398D02*
X74738Y-35331D01*
X74738Y-35331D02*
X75071Y-35331D01*
X75071Y-35331D02*
X75138Y-35398D01*
X75138Y-35398D02*
X75138Y-35865D01*
X75138Y-35865D02*
X75071Y-35931D01*
X75071Y-35931D02*
X74738Y-35931D01*
X74738Y-35931D02*
X74671Y-35865D01*
X75457Y-35931D02*
X75924Y-35331D01*
X75457Y-35865D02*
X75457Y-35398D01*
X75457Y-35398D02*
X75524Y-35331D01*
X75524Y-35331D02*
X75857Y-35331D01*
X75857Y-35331D02*
X75924Y-35398D01*
X75924Y-35398D02*
X75924Y-35865D01*
X75924Y-35865D02*
X75857Y-35931D01*
X75857Y-35931D02*
X75524Y-35931D01*
X75524Y-35931D02*
X75457Y-35865D01*
X76243Y-35931D02*
X76710Y-35331D01*
X76243Y-35331D02*
X76710Y-35931D01*
X69889Y-34946D02*
X70155Y-34946D01*
X70022Y-34946D02*
X70022Y-34346D01*
X70022Y-34413D02*
X69889Y-34546D01*
X71008Y-34413D02*
X70941Y-34346D01*
X70941Y-34346D02*
X70608Y-34346D01*
X70608Y-34346D02*
X70541Y-34413D01*
X70541Y-34413D02*
X70541Y-34880D01*
X70541Y-34880D02*
X70608Y-34946D01*
X70608Y-34946D02*
X70941Y-34946D01*
X70941Y-34946D02*
X71008Y-34880D01*
X71008Y-34880D02*
X71008Y-34680D01*
X71008Y-34680D02*
X70941Y-34613D01*
X70941Y-34613D02*
X70608Y-34613D01*
X70608Y-34613D02*
X70541Y-34680D01*
X71327Y-34946D02*
X71327Y-34346D01*
X71327Y-34346D02*
X71594Y-34613D01*
X71594Y-34613D02*
X71861Y-34346D01*
X71861Y-34346D02*
X71861Y-34946D01*
X72113Y-34946D02*
X72113Y-34346D01*
X72580Y-34946D02*
X72580Y-34346D01*
X72113Y-34680D02*
X72580Y-34680D01*
X72899Y-34546D02*
X73366Y-34546D01*
X73366Y-34546D02*
X72899Y-34946D01*
X72899Y-34946D02*
X73366Y-34946D01*
X69705Y-32238D02*
X69772Y-32371D01*
X69772Y-32371D02*
X69905Y-32371D01*
X69905Y-32371D02*
X69972Y-32305D01*
X69972Y-32305D02*
X69972Y-31771D01*
X69839Y-31771D02*
X70105Y-31771D01*
X70625Y-32371D02*
X70891Y-32371D01*
X70758Y-32371D02*
X70758Y-31771D01*
X70758Y-31838D02*
X70625Y-31971D01*
X68526Y-33771D02*
X68526Y-34305D01*
X68526Y-34305D02*
X68593Y-34371D01*
X68593Y-34371D02*
X68926Y-34371D01*
X68926Y-34371D02*
X68993Y-34305D01*
X68993Y-34305D02*
X68993Y-33771D01*
X69312Y-34305D02*
X69379Y-34371D01*
X69379Y-34371D02*
X69712Y-34371D01*
X69712Y-34371D02*
X69779Y-34305D01*
X69779Y-34305D02*
X69779Y-34105D01*
X69779Y-34105D02*
X69712Y-34038D01*
X69712Y-34038D02*
X69379Y-34038D01*
X69379Y-34038D02*
X69312Y-33971D01*
X69312Y-33971D02*
X69312Y-33838D01*
X69312Y-33838D02*
X69379Y-33771D01*
X69379Y-33771D02*
X69712Y-33771D01*
X69712Y-33771D02*
X69779Y-33838D01*
X70098Y-34371D02*
X70098Y-33771D01*
X70098Y-33771D02*
X70498Y-33771D01*
X70498Y-33771D02*
X70565Y-33838D01*
X70565Y-33838D02*
X70565Y-33971D01*
X70565Y-33971D02*
X70498Y-34038D01*
X70498Y-34038D02*
X70098Y-34038D01*
X70498Y-34038D02*
X70565Y-34171D01*
X70565Y-34171D02*
X70565Y-34305D01*
X70565Y-34305D02*
X70498Y-34371D01*
X70498Y-34371D02*
X70098Y-34371D01*
X70884Y-34371D02*
X71351Y-34371D01*
X72137Y-34371D02*
X71670Y-34371D01*
X71670Y-34371D02*
X71670Y-34171D01*
X71670Y-34171D02*
X71737Y-34105D01*
X71737Y-34105D02*
X72070Y-34105D01*
X72070Y-34105D02*
X72137Y-34038D01*
X72137Y-34038D02*
X72137Y-33838D01*
X72137Y-33838D02*
X72070Y-33771D01*
X72070Y-33771D02*
X71737Y-33771D01*
X71737Y-33771D02*
X71670Y-33838D01*
G54D19*
X78040Y-31181D02*
X78040Y-30631D01*
X78040Y-30631D02*
X78373Y-30631D01*
X78373Y-30631D02*
X78429Y-30693D01*
X78429Y-30693D02*
X78429Y-30876D01*
X78429Y-30876D02*
X78373Y-30937D01*
X78373Y-30937D02*
X78040Y-30937D01*
X78207Y-30937D02*
X78429Y-31181D01*
X79064Y-31181D02*
X78675Y-31181D01*
X78675Y-31181D02*
X78675Y-30998D01*
X78675Y-30998D02*
X78731Y-30937D01*
X78731Y-30937D02*
X79008Y-30937D01*
X79008Y-30937D02*
X79064Y-30876D01*
X79064Y-30876D02*
X79064Y-30693D01*
X79064Y-30693D02*
X79008Y-30631D01*
X79008Y-30631D02*
X78731Y-30631D01*
X78731Y-30631D02*
X78675Y-30693D01*
X79310Y-31181D02*
X79699Y-30631D01*
X79310Y-31120D02*
X79310Y-30693D01*
X79310Y-30693D02*
X79366Y-30631D01*
X79366Y-30631D02*
X79643Y-30631D01*
X79643Y-30631D02*
X79699Y-30693D01*
X79699Y-30693D02*
X79699Y-31120D01*
X79699Y-31120D02*
X79643Y-31181D01*
X79643Y-31181D02*
X79366Y-31181D01*
X79366Y-31181D02*
X79310Y-31120D01*
X78040Y-30196D02*
X78040Y-29646D01*
X78040Y-29646D02*
X78373Y-29646D01*
X78373Y-29646D02*
X78429Y-29708D01*
X78429Y-29708D02*
X78429Y-29891D01*
X78429Y-29891D02*
X78373Y-29952D01*
X78373Y-29952D02*
X78040Y-29952D01*
X78207Y-29952D02*
X78429Y-30196D01*
X78786Y-30196D02*
X79008Y-30196D01*
X78897Y-30196D02*
X78897Y-29646D01*
X78897Y-29708D02*
X78786Y-29830D01*
X79366Y-30196D02*
X79643Y-30196D01*
X79643Y-30196D02*
X79699Y-30135D01*
X79699Y-30135D02*
X79699Y-29708D01*
X79699Y-29708D02*
X79643Y-29646D01*
X79643Y-29646D02*
X79366Y-29646D01*
X79366Y-29646D02*
X79310Y-29708D01*
X79310Y-29708D02*
X79310Y-29891D01*
X79310Y-29891D02*
X79366Y-29952D01*
X79366Y-29952D02*
X79643Y-29952D01*
X79643Y-29952D02*
X79699Y-29891D01*
X78040Y-32165D02*
X78040Y-31615D01*
X78040Y-31615D02*
X78373Y-31615D01*
X78373Y-31615D02*
X78429Y-31677D01*
X78429Y-31677D02*
X78429Y-31860D01*
X78429Y-31860D02*
X78373Y-31921D01*
X78373Y-31921D02*
X78040Y-31921D01*
X78207Y-31921D02*
X78429Y-32165D01*
X79064Y-32165D02*
X78675Y-32165D01*
X78675Y-32165D02*
X78675Y-31982D01*
X78675Y-31982D02*
X78731Y-31921D01*
X78731Y-31921D02*
X79008Y-31921D01*
X79008Y-31921D02*
X79064Y-31860D01*
X79064Y-31860D02*
X79064Y-31677D01*
X79064Y-31677D02*
X79008Y-31615D01*
X79008Y-31615D02*
X78731Y-31615D01*
X78731Y-31615D02*
X78675Y-31677D01*
X79421Y-32165D02*
X79643Y-32165D01*
X79532Y-32165D02*
X79532Y-31615D01*
X79532Y-31677D02*
X79421Y-31799D01*
X77843Y-42204D02*
X77843Y-41654D01*
X77843Y-41654D02*
X78176Y-41654D01*
X78176Y-41654D02*
X78232Y-41716D01*
X78232Y-41716D02*
X78232Y-41899D01*
X78232Y-41899D02*
X78176Y-41960D01*
X78176Y-41960D02*
X77843Y-41960D01*
X78010Y-41960D02*
X78232Y-42204D01*
X78867Y-42204D02*
X78478Y-42204D01*
X78478Y-42204D02*
X78478Y-42021D01*
X78478Y-42021D02*
X78534Y-41960D01*
X78534Y-41960D02*
X78811Y-41960D01*
X78811Y-41960D02*
X78867Y-41899D01*
X78867Y-41899D02*
X78867Y-41716D01*
X78867Y-41716D02*
X78811Y-41654D01*
X78811Y-41654D02*
X78534Y-41654D01*
X78534Y-41654D02*
X78478Y-41716D01*
X79502Y-42204D02*
X79113Y-42204D01*
X79113Y-42204D02*
X79113Y-42021D01*
X79113Y-42021D02*
X79169Y-41960D01*
X79169Y-41960D02*
X79446Y-41960D01*
X79446Y-41960D02*
X79502Y-41899D01*
X79502Y-41899D02*
X79502Y-41716D01*
X79502Y-41716D02*
X79446Y-41654D01*
X79446Y-41654D02*
X79169Y-41654D01*
X79169Y-41654D02*
X79113Y-41716D01*
X79544Y-37267D02*
X79544Y-36717D01*
X79544Y-36717D02*
X79877Y-36717D01*
X79877Y-36717D02*
X79933Y-36779D01*
X79933Y-36779D02*
X79933Y-36962D01*
X79933Y-36962D02*
X79877Y-37023D01*
X79877Y-37023D02*
X79544Y-37023D01*
X80179Y-36717D02*
X80568Y-36717D01*
X80568Y-36717D02*
X80568Y-36779D01*
X80568Y-36779D02*
X80346Y-36962D01*
X80346Y-36962D02*
X80512Y-36962D01*
X80512Y-36962D02*
X80568Y-37023D01*
X80568Y-37023D02*
X80568Y-37206D01*
X80568Y-37206D02*
X80512Y-37267D01*
X80512Y-37267D02*
X80235Y-37267D01*
X80235Y-37267D02*
X80179Y-37206D01*
X85043Y-37049D02*
X84643Y-37049D01*
X84643Y-37093D02*
X84643Y-36826D01*
X84643Y-36826D02*
X84688Y-36782D01*
X84688Y-36782D02*
X84999Y-36782D01*
X84999Y-36782D02*
X85043Y-36826D01*
X85043Y-36826D02*
X85043Y-37093D01*
X84999Y-36258D02*
X85043Y-36302D01*
X85043Y-36302D02*
X85043Y-36525D01*
X85043Y-36525D02*
X84999Y-36569D01*
X84999Y-36569D02*
X84821Y-36569D01*
X84821Y-36569D02*
X84777Y-36525D01*
X84777Y-36525D02*
X84777Y-36302D01*
X84777Y-36302D02*
X84821Y-36258D01*
X85176Y-36045D02*
X84777Y-36045D01*
X84821Y-36045D02*
X84777Y-36001D01*
X84777Y-36001D02*
X84777Y-35778D01*
X84777Y-35778D02*
X84821Y-35734D01*
X84821Y-35734D02*
X84999Y-35734D01*
X84999Y-35734D02*
X85043Y-35778D01*
X85043Y-35778D02*
X85043Y-36001D01*
X85043Y-36001D02*
X84999Y-36045D01*
X84643Y-35432D02*
X84643Y-35388D01*
X84643Y-35388D02*
X85043Y-35388D01*
X85043Y-35432D02*
X85043Y-35343D01*
X85043Y-34908D02*
X85043Y-34730D01*
X85043Y-34819D02*
X84643Y-34819D01*
X84688Y-34819D02*
X84777Y-34908D01*
X78040Y-35118D02*
X78040Y-34568D01*
X78040Y-34568D02*
X78373Y-34568D01*
X78373Y-34568D02*
X78429Y-34630D01*
X78429Y-34630D02*
X78429Y-34813D01*
X78429Y-34813D02*
X78373Y-34874D01*
X78373Y-34874D02*
X78040Y-34874D01*
X78207Y-34874D02*
X78429Y-35118D01*
X78786Y-35118D02*
X79008Y-35118D01*
X78897Y-35118D02*
X78897Y-34568D01*
X78897Y-34630D02*
X78786Y-34752D01*
X79699Y-35118D02*
X79310Y-35118D01*
X79310Y-35118D02*
X79310Y-34935D01*
X79310Y-34935D02*
X79366Y-34874D01*
X79366Y-34874D02*
X79643Y-34874D01*
X79643Y-34874D02*
X79699Y-34813D01*
X79699Y-34813D02*
X79699Y-34630D01*
X79699Y-34630D02*
X79643Y-34568D01*
X79643Y-34568D02*
X79366Y-34568D01*
X79366Y-34568D02*
X79310Y-34630D01*
G54D17*
X77533Y-32303D02*
X77533Y-32632D01*
X77533Y-32632D02*
X76828Y-32632D01*
X76828Y-32632D02*
X76828Y-32303D01*
X77142Y-32632D02*
X77142Y-32444D01*
X77533Y-32041D02*
X77063Y-31712D01*
X77063Y-32041D02*
X77533Y-31712D01*
X77455Y-31168D02*
X77533Y-31215D01*
X77533Y-31215D02*
X77533Y-31356D01*
X77533Y-31356D02*
X77455Y-31403D01*
X77455Y-31403D02*
X76828Y-31403D01*
X77063Y-31403D02*
X77063Y-31262D01*
X77533Y-30859D02*
X77063Y-30859D01*
X77220Y-30859D02*
X77063Y-30765D01*
X77063Y-30765D02*
X77063Y-30624D01*
X77063Y-30624D02*
X77220Y-30530D01*
X77063Y-30268D02*
X77063Y-29986D01*
X77063Y-29986D02*
X77142Y-29939D01*
X77142Y-29939D02*
X77533Y-29939D01*
X77533Y-29939D02*
X77533Y-30221D01*
X77533Y-30221D02*
X77455Y-30268D01*
X77455Y-30268D02*
X77377Y-30268D01*
X77377Y-30268D02*
X77298Y-30221D01*
X77298Y-30221D02*
X77298Y-29939D01*
X77533Y-29583D02*
X77533Y-29395D01*
X77533Y-29489D02*
X76828Y-29489D01*
X76907Y-29489D02*
X77063Y-29583D01*
X77416Y-42586D02*
X77416Y-42301D01*
X77644Y-42443D02*
X77188Y-42443D01*
X77416Y-41943D02*
X77416Y-41706D01*
X77719Y-41396D02*
X77036Y-41396D01*
X77036Y-41396D02*
X77036Y-41111D01*
X77036Y-41111D02*
X77112Y-41063D01*
X77112Y-41063D02*
X77340Y-41063D01*
X77340Y-41063D02*
X77416Y-41111D01*
X77416Y-41111D02*
X77416Y-41396D01*
X77036Y-40658D02*
X77112Y-40658D01*
X77340Y-40658D02*
X77644Y-40658D01*
X77644Y-40658D02*
X77719Y-40611D01*
X77719Y-40611D02*
X77719Y-40563D01*
X77644Y-39873D02*
X77719Y-39921D01*
X77719Y-39921D02*
X77719Y-40158D01*
X77719Y-40158D02*
X77644Y-40206D01*
X77644Y-40206D02*
X77340Y-40206D01*
X77340Y-40206D02*
X77264Y-40158D01*
X77264Y-40158D02*
X77264Y-39921D01*
X77264Y-39921D02*
X77340Y-39873D01*
X77719Y-39563D02*
X77036Y-39563D01*
X77492Y-39563D02*
X77492Y-39516D01*
X77492Y-39516D02*
X77264Y-39278D01*
X77492Y-39516D02*
X77719Y-39278D01*
X77719Y-38921D02*
X77719Y-38731D01*
X77719Y-38826D02*
X77036Y-38826D01*
X77112Y-38826D02*
X77264Y-38921D01*
X88710Y-41752D02*
X88029Y-41752D01*
X88029Y-41752D02*
X88029Y-41419D01*
X88332Y-41752D02*
X88332Y-41562D01*
X88710Y-41157D02*
X88256Y-41157D01*
X88408Y-41157D02*
X88256Y-41062D01*
X88256Y-41062D02*
X88256Y-40919D01*
X88256Y-40919D02*
X88408Y-40824D01*
X88483Y-40562D02*
X88483Y-40229D01*
X88483Y-40229D02*
X88332Y-40229D01*
X88332Y-40229D02*
X88256Y-40277D01*
X88256Y-40277D02*
X88256Y-40514D01*
X88256Y-40514D02*
X88332Y-40562D01*
X88332Y-40562D02*
X88635Y-40562D01*
X88635Y-40562D02*
X88710Y-40514D01*
X88710Y-40514D02*
X88710Y-40277D01*
X88710Y-40277D02*
X88635Y-40229D01*
X88635Y-39682D02*
X88710Y-39729D01*
X88710Y-39729D02*
X88710Y-39872D01*
X88710Y-39872D02*
X88635Y-39919D01*
X88635Y-39919D02*
X88029Y-39919D01*
X88256Y-39919D02*
X88256Y-39777D01*
X88635Y-39372D02*
X88710Y-39324D01*
X88710Y-39324D02*
X88710Y-39087D01*
X88710Y-39087D02*
X88635Y-39039D01*
X88635Y-39039D02*
X88559Y-39039D01*
X88559Y-39039D02*
X88483Y-39087D01*
X88483Y-39087D02*
X88483Y-39324D01*
X88483Y-39324D02*
X88408Y-39372D01*
X88408Y-39372D02*
X88332Y-39372D01*
X88332Y-39372D02*
X88256Y-39324D01*
X88256Y-39324D02*
X88256Y-39087D01*
X88256Y-39087D02*
X88332Y-39039D01*
X88710Y-38682D02*
X88710Y-38492D01*
X88710Y-38587D02*
X88029Y-38587D01*
X88105Y-38587D02*
X88256Y-38682D01*
X88438Y-32845D02*
X88513Y-32797D01*
X88513Y-32797D02*
X88513Y-32560D01*
X88513Y-32560D02*
X88438Y-32512D01*
X88438Y-32512D02*
X88211Y-32512D01*
X88211Y-32512D02*
X88135Y-32560D01*
X88135Y-32560D02*
X88135Y-32797D01*
X88135Y-32797D02*
X88059Y-32845D01*
X88059Y-32845D02*
X87908Y-32845D01*
X87908Y-32845D02*
X87832Y-32797D01*
X87832Y-32797D02*
X87832Y-32560D01*
X87832Y-32560D02*
X87908Y-32512D01*
X88438Y-31965D02*
X88513Y-32012D01*
X88513Y-32012D02*
X88513Y-32155D01*
X88513Y-32155D02*
X88438Y-32202D01*
X88438Y-32202D02*
X87832Y-32202D01*
X88059Y-32202D02*
X88059Y-32060D01*
X88513Y-31655D02*
X88059Y-31655D01*
X88211Y-31655D02*
X88059Y-31560D01*
X88059Y-31560D02*
X88059Y-31417D01*
X88059Y-31417D02*
X88211Y-31322D01*
X87832Y-30917D02*
X87908Y-30917D01*
X88135Y-30917D02*
X88438Y-30917D01*
X88438Y-30917D02*
X88513Y-30870D01*
X88513Y-30870D02*
X88513Y-30822D01*
X88513Y-30465D02*
X88059Y-30465D01*
X88135Y-30465D02*
X88059Y-30417D01*
X88059Y-30417D02*
X88059Y-30227D01*
X88059Y-30227D02*
X88135Y-30180D01*
X88135Y-30180D02*
X88513Y-30180D01*
X88664Y-29870D02*
X88740Y-29822D01*
X88740Y-29822D02*
X88740Y-29585D01*
X88740Y-29585D02*
X88664Y-29537D01*
X88664Y-29537D02*
X88135Y-29537D01*
X88135Y-29537D02*
X88059Y-29585D01*
X88059Y-29585D02*
X88059Y-29822D01*
X88059Y-29822D02*
X88135Y-29870D01*
X88135Y-29870D02*
X88438Y-29870D01*
X88438Y-29870D02*
X88513Y-29822D01*
X88513Y-29822D02*
X88513Y-29585D01*
X88513Y-29585D02*
X88438Y-29537D01*
X88438Y-29275D02*
X88513Y-29227D01*
X88513Y-29227D02*
X88513Y-28990D01*
X88513Y-28990D02*
X88438Y-28942D01*
X88438Y-28942D02*
X88362Y-28942D01*
X88362Y-28942D02*
X88286Y-28990D01*
X88286Y-28990D02*
X88286Y-29227D01*
X88286Y-29227D02*
X88211Y-29275D01*
X88211Y-29275D02*
X88135Y-29275D01*
X88135Y-29275D02*
X88059Y-29227D01*
X88059Y-29227D02*
X88059Y-28990D01*
X88059Y-28990D02*
X88135Y-28942D01*
X88513Y-28585D02*
X88513Y-28395D01*
X88513Y-28490D02*
X87832Y-28490D01*
X87908Y-28490D02*
X88059Y-28585D01*
G54D19*
X87032Y-34724D02*
X87210Y-34724D01*
X87121Y-34724D02*
X87121Y-34324D01*
X87032Y-34324D02*
X87210Y-34324D01*
X87512Y-34680D02*
X87556Y-34724D01*
X87556Y-34724D02*
X87779Y-34724D01*
X87779Y-34724D02*
X87823Y-34680D01*
X87823Y-34680D02*
X87823Y-34547D01*
X87823Y-34547D02*
X87779Y-34502D01*
X87779Y-34502D02*
X87556Y-34502D01*
X87556Y-34502D02*
X87512Y-34458D01*
X87512Y-34458D02*
X87512Y-34369D01*
X87512Y-34369D02*
X87556Y-34324D01*
X87556Y-34324D02*
X87779Y-34324D01*
X87779Y-34324D02*
X87823Y-34369D01*
X88036Y-34724D02*
X88036Y-34324D01*
X88036Y-34324D02*
X88303Y-34324D01*
X88303Y-34324D02*
X88347Y-34369D01*
X88347Y-34369D02*
X88347Y-34502D01*
X88347Y-34502D02*
X88303Y-34547D01*
X88303Y-34547D02*
X88036Y-34547D01*
X88649Y-34724D02*
X88827Y-34724D01*
X88738Y-34724D02*
X88738Y-34324D01*
X88738Y-34369D02*
X88649Y-34458D01*
G54D17*
X69871Y-25969D02*
X70049Y-25969D01*
X69960Y-25969D02*
X69960Y-25569D01*
X69960Y-25614D02*
X69871Y-25703D01*
X70346Y-25969D02*
X70346Y-25569D01*
X70346Y-25569D02*
X70613Y-25569D01*
X70613Y-25569D02*
X70657Y-25614D01*
X70657Y-25614D02*
X70657Y-25747D01*
X70657Y-25747D02*
X70613Y-25792D01*
X70613Y-25792D02*
X70346Y-25792D01*
X70954Y-25969D02*
X71132Y-25969D01*
X71043Y-25969D02*
X71043Y-25569D01*
X70954Y-25569D02*
X71132Y-25569D01*
X71474Y-25969D02*
X71474Y-25569D01*
X71474Y-25569D02*
X71785Y-25969D01*
X71785Y-25969D02*
X71785Y-25569D01*
X87686Y-43390D02*
X87864Y-43390D01*
X87775Y-43390D02*
X87775Y-42990D01*
X87775Y-43035D02*
X87686Y-43124D01*
X88161Y-43390D02*
X88161Y-42990D01*
X88161Y-42990D02*
X88428Y-42990D01*
X88428Y-42990D02*
X88472Y-43035D01*
X88472Y-43035D02*
X88472Y-43168D01*
X88472Y-43168D02*
X88428Y-43213D01*
X88428Y-43213D02*
X88161Y-43213D01*
X88769Y-43390D02*
X88947Y-43390D01*
X88858Y-43390D02*
X88858Y-42990D01*
X88769Y-42990D02*
X88947Y-42990D01*
X89289Y-43390D02*
X89289Y-42990D01*
X89289Y-42990D02*
X89600Y-43390D01*
X89600Y-43390D02*
X89600Y-42990D01*
X82666Y-25378D02*
X82844Y-25378D01*
X82755Y-25378D02*
X82755Y-24978D01*
X82755Y-25023D02*
X82666Y-25112D01*
X83141Y-25378D02*
X83141Y-24978D01*
X83141Y-24978D02*
X83408Y-24978D01*
X83408Y-24978D02*
X83452Y-25023D01*
X83452Y-25023D02*
X83452Y-25156D01*
X83452Y-25156D02*
X83408Y-25201D01*
X83408Y-25201D02*
X83141Y-25201D01*
X83749Y-25378D02*
X83927Y-25378D01*
X83838Y-25378D02*
X83838Y-24978D01*
X83749Y-24978D02*
X83927Y-24978D01*
X84269Y-25378D02*
X84269Y-24978D01*
X84269Y-24978D02*
X84580Y-25378D01*
X84580Y-25378D02*
X84580Y-24978D01*
X70462Y-43193D02*
X70640Y-43193D01*
X70551Y-43193D02*
X70551Y-42793D01*
X70551Y-42838D02*
X70462Y-42927D01*
X70937Y-43193D02*
X70937Y-42793D01*
X70937Y-42793D02*
X71204Y-42793D01*
X71204Y-42793D02*
X71248Y-42838D01*
X71248Y-42838D02*
X71248Y-42971D01*
X71248Y-42971D02*
X71204Y-43016D01*
X71204Y-43016D02*
X70937Y-43016D01*
X71545Y-43193D02*
X71723Y-43193D01*
X71634Y-43193D02*
X71634Y-42793D01*
X71545Y-42793D02*
X71723Y-42793D01*
X72065Y-43193D02*
X72065Y-42793D01*
X72065Y-42793D02*
X72376Y-43193D01*
X72376Y-43193D02*
X72376Y-42793D01*
M02*
