G04 (created by PCBnew (20090216-final)) date 16/01/2010 09:09:31*
G01*
G70*
G90*
%MOIN*%
G04 Gerber Fmt 3.4, Leading zero omitted, Abs format*
%FSLAX34Y34*%
G04 APERTURE LIST*
%ADD10C,0.015000*%
%ADD11C,0.055000*%
%ADD12R,0.055000X0.055000*%
%ADD13C,0.060000*%
%ADD14R,0.060000X0.060000*%
%ADD15C,0.106300*%
%ADD16C,0.045000*%
%ADD17C,0.070000*%
%ADD18C,0.160000*%
%ADD19C,0.017000*%
%ADD20C,0.000100*%
%ADD21C,0.015000*%
%ADD22C,0.007500*%
%ADD23C,0.012000*%
%ADD24C,0.008000*%
%ADD25C,0.006000*%
%ADD26C,0.075000*%
%ADD27R,0.075000X0.075000*%
%ADD28C,0.080000*%
%ADD29R,0.080000X0.080000*%
%ADD30C,0.126300*%
%ADD31C,0.065000*%
%ADD32C,0.090000*%
%ADD33C,0.180000*%
%ADD34C,0.010000*%
G04 APERTURE END LIST*
G54D10*
X90500Y-27800D02*
X90500Y-28000D01*
X72000Y-27800D02*
X90500Y-27800D01*
X72000Y-42700D02*
X72000Y-27800D01*
X90500Y-42700D02*
X72000Y-42700D01*
X90500Y-28000D02*
X90500Y-42700D01*
G54D26*
X76800Y-33000D03*
X79800Y-33000D03*
G54D27*
X72625Y-30725D03*
G54D28*
X72625Y-33725D03*
X81177Y-29933D03*
X81177Y-30933D03*
X81177Y-31933D03*
X81177Y-32933D03*
X81177Y-33933D03*
X81177Y-34933D03*
X81177Y-35933D03*
X81177Y-36933D03*
X81177Y-37933D03*
X81177Y-38933D03*
X81177Y-39933D03*
X81177Y-40933D03*
X81177Y-41933D03*
G54D27*
X81177Y-28933D03*
G54D28*
X84177Y-41933D03*
X84177Y-40933D03*
X84177Y-39933D03*
X84177Y-38933D03*
X84177Y-37933D03*
X84177Y-36933D03*
X84177Y-35933D03*
X84177Y-34933D03*
X84177Y-33933D03*
X84177Y-32933D03*
X84177Y-31933D03*
X84177Y-30933D03*
X84177Y-29933D03*
X84177Y-28933D03*
G54D27*
X75300Y-36100D03*
G54D28*
X75300Y-39100D03*
G54D27*
X76200Y-36100D03*
G54D28*
X76200Y-39100D03*
G54D27*
X78200Y-41100D03*
G54D28*
X75200Y-41100D03*
G54D27*
X73675Y-31175D03*
G54D28*
X73675Y-34175D03*
G54D27*
X78100Y-40200D03*
G54D28*
X75100Y-40200D03*
X80300Y-29000D03*
X80300Y-32000D03*
X88000Y-33900D03*
X85000Y-33900D03*
X88000Y-31900D03*
X85000Y-31900D03*
X88000Y-38000D03*
X85000Y-38000D03*
X88000Y-42000D03*
X85000Y-42000D03*
X88000Y-41000D03*
X85000Y-41000D03*
X88000Y-40000D03*
X85000Y-40000D03*
X88000Y-39000D03*
X85000Y-39000D03*
X76800Y-34000D03*
X79800Y-34000D03*
X88000Y-30900D03*
X85000Y-30900D03*
X75500Y-35000D03*
X78500Y-35000D03*
G54D29*
X86500Y-36500D03*
G54D28*
X86500Y-35500D03*
X87500Y-36500D03*
X87500Y-35500D03*
X88500Y-36500D03*
X88500Y-35500D03*
X76200Y-31550D03*
X77200Y-31550D03*
X77200Y-30763D03*
X76200Y-30763D03*
G54D30*
X74338Y-29700D03*
X79062Y-29700D03*
G54D26*
X80300Y-42100D03*
X77300Y-42100D03*
G54D31*
X76700Y-41925D03*
G54D26*
X77825Y-39075D03*
X77825Y-38075D03*
X77825Y-37075D03*
X77825Y-36075D03*
X80300Y-35000D03*
X79300Y-35000D03*
X88000Y-32900D03*
X85000Y-32900D03*
G54D27*
X88100Y-28500D03*
G54D26*
X87100Y-28500D03*
X86100Y-28500D03*
X85100Y-28500D03*
G54D27*
X89000Y-33900D03*
G54D26*
X89000Y-32900D03*
X89000Y-31900D03*
X89000Y-30900D03*
G54D27*
X88900Y-42000D03*
G54D26*
X88900Y-41000D03*
X88900Y-40000D03*
X88900Y-39000D03*
X88900Y-38000D03*
X75000Y-33000D03*
X76000Y-33000D03*
X75000Y-34000D03*
X76000Y-34000D03*
X85050Y-35500D03*
X85050Y-36500D03*
G54D32*
X79700Y-37400D03*
X79700Y-39400D03*
G54D31*
X80500Y-33000D03*
X80500Y-34000D03*
X79700Y-28200D03*
X90000Y-34400D03*
X89500Y-35100D03*
X89500Y-36100D03*
X89700Y-37100D03*
X88000Y-29800D03*
G54D27*
X72600Y-34700D03*
G54D26*
X72600Y-35700D03*
X72600Y-36700D03*
X72600Y-37700D03*
X72600Y-38700D03*
X72600Y-39700D03*
G54D33*
X73200Y-41200D03*
X73000Y-28800D03*
X89500Y-28900D03*
M02*
